<?xml version="1.0" standalone="no"?><!DOCTYPE svg PUBLIC "-//W3C//DTD SVG 1.1//EN" "http://www.w3.org/Graphics/SVG/1.1/DTD/svg11.dtd"><svg t="1768628874939" class="icon" viewBox="0 0 1024 1024" version="1.1" xmlns="http://www.w3.org/2000/svg" p-id="8391" xmlns:xlink="http://www.w3.org/1999/xlink" width="200" height="200"><path d="M736.825 16.774H183.15c-46.974 0-83.903 36.913-83.903 83.903v838.9c0 46.974 36.912 83.903 83.903 83.903h654.352c46.974 0 83.887-36.913 83.887-83.903v-738.24L736.825 16.775z m16.79 593.953c0 20.138-21.813 31.874-38.603 21.812l-87.235-53.686v13.425a63.716 63.716 0 0 1-63.764 63.732H330.8a63.716 63.716 0 0 1-63.765-63.748V451.324a63.716 63.716 0 0 1 63.765-63.764h233.212a63.716 63.716 0 0 1 63.764 63.764v33.548l87.235-53.687c16.79-10.077 38.603 1.674 38.603 21.813V610.71z" fill="#8283F2" p-id="8392"></path><path d="M740.19 15.1h-3.365v134.225c0 16.774 8.387 53.687 58.725 53.687h129.203L740.19 15.116z" fill="#C1C1F9" p-id="8393"></path></svg>