<?xml version="1.0" encoding="UTF-8" standalone="no"?>
<!-- Generator: Adobe Illustrator 27.5.0, SVG Export Plug-In . SVG Version: 6.00 Build 0)  -->

<svg
   version="1.1"
   id="Ñëîé_1"
   x="0px"
   y="0px"
   viewBox="0 0 3940.585 2200"
   style="enable-background:new 0 0 3940.585 2200;"
   xml:space="preserve"
   sodipodi:docname="25579683_frontend_text_2.svg"
   inkscape:version="1.3.2 (091e20e, 2023-11-25)"
   xmlns:inkscape="http://www.inkscape.org/namespaces/inkscape"
   xmlns:sodipodi="http://sodipodi.sourceforge.net/DTD/sodipodi-0.dtd"
   xmlns:xlink="http://www.w3.org/1999/xlink"
   xmlns="http://www.w3.org/2000/svg"
   xmlns:svg="http://www.w3.org/2000/svg"><defs
   id="defs248" /><sodipodi:namedview
   id="namedview248"
   pagecolor="#ffffff"
   bordercolor="#000000"
   borderopacity="0.25"
   inkscape:showpageshadow="2"
   inkscape:pageopacity="0.0"
   inkscape:pagecheckerboard="0"
   inkscape:deskcolor="#d1d1d1"
   inkscape:zoom="0.14462011"
   inkscape:cx="1967.2229"
   inkscape:cy="1099.4321"
   inkscape:window-width="1512"
   inkscape:window-height="921"
   inkscape:window-x="0"
   inkscape:window-y="33"
   inkscape:window-maximized="1"
   inkscape:current-layer="g248" />
<rect
   x="0"
   y="0"
   style="fill:#FFFFFF;"
   width="3940.585"
   height="2200"
   id="rect1" />
<g
   id="g248">
	<g
   id="g15">
		<path
   style="fill:#BBDBF3;"
   d="M2773.282,196.932v-8.202l47.349-25.625v12.527l-31.628,17.199l31.628,17.199v12.527    L2773.282,196.932z"
   id="path1" />
		<path
   style="fill:#BBDBF3;"
   d="M3695.867,877.684v-12.527l31.628-17.199l-31.628-17.199v-12.527l47.349,25.625v8.202    L3695.867,877.684z"
   id="path2" />
		<rect
   x="2838.193"
   y="183.158"
   style="fill:#BBDBF3;"
   width="188.302"
   height="19.346"
   id="rect2" />
		<rect
   x="2773.282"
   y="257.917"
   style="fill:#BBDBF3;"
   width="188.302"
   height="19.346"
   id="rect3" />
		<rect
   x="2813.393"
   y="309.996"
   style="fill:#BBDBF3;"
   width="188.302"
   height="19.346"
   id="rect4" />
		<rect
   x="2813.393"
   y="453.332"
   style="fill:#BBDBF3;"
   width="188.302"
   height="19.346"
   id="rect5" />
		<rect
   x="2813.393"
   y="497.671"
   style="fill:#BBDBF3;"
   width="188.302"
   height="19.346"
   id="rect6" />
		<rect
   x="2878.097"
   y="359.597"
   style="fill:#BBDBF3;"
   width="567.879"
   height="19.346"
   id="rect7" />
		<rect
   x="2878.097"
   y="544.78"
   style="fill:#BBDBF3;"
   width="758.639"
   height="19.346"
   id="rect8" />
		<rect
   x="2878.097"
   y="693.095"
   style="fill:#BBDBF3;"
   width="758.639"
   height="19.346"
   id="rect9" />
		<rect
   x="2949.449"
   y="838.285"
   style="fill:#BBDBF3;"
   width="726.812"
   height="19.346"
   id="rect10" />
		<rect
   x="2878.097"
   y="743.49"
   style="fill:#BBDBF3;"
   width="162.49"
   height="19.346"
   id="rect11" />
		<rect
   x="2878.097"
   y="791.426"
   style="fill:#BBDBF3;"
   width="162.49"
   height="19.346"
   id="rect12" />
		<rect
   x="2878.097"
   y="592.124"
   style="fill:#BBDBF3;"
   width="758.639"
   height="19.346"
   id="rect13" />
		<rect
   x="2878.097"
   y="639.469"
   style="fill:#BBDBF3;"
   width="410.458"
   height="19.346"
   id="rect14" />
		<rect
   x="2878.097"
   y="404.18"
   style="fill:#BBDBF3;"
   width="174.131"
   height="19.346"
   id="rect15" />
	</g>
	<path
   style="fill:#E5F0F8;"
   d="M987.492,298.236H830.896c-9.331,0-16.896,7.565-16.896,16.896v90.154   c0,9.331,7.565,16.896,16.896,16.896h62.953v20.339h-41.431c-0.811,0-1.468,0.657-1.468,1.468v5.203   c0,0.811,0.657,1.468,1.468,1.468H965.97c0.811,0,1.468-0.657,1.468-1.468v-5.203c0-0.811-0.657-1.468-1.468-1.468h-41.431v-20.339   h62.953c9.331,0,16.896-7.565,16.896-16.896v-90.154C1004.388,305.801,996.823,298.236,987.492,298.236z"
   id="path15" />
	<path
   style="fill:#E5F0F8;"
   d="M3547.226,1279.36c15.672,22.19,44.868,28.923,68.534,17.383l58.177,82.371l14.274-10.082   l-58.17-82.36c18.854-18.425,22.224-48.185,6.525-70.412c-17.412-24.653-51.55-30.624-76.203-13.212   C3535.711,1220.46,3529.814,1254.707,3547.226,1279.36z M3626.859,1223.117c13.56,19.199,8.947,46.003-10.252,59.563   c-19.308,13.637-46.003,8.946-59.563-10.253c-13.636-19.307-9.055-45.924,10.253-59.561   C3586.496,1199.304,3613.223,1203.81,3626.859,1223.117z"
   id="path16" />
	<path
   style="fill:#E5F0F8;"
   d="M353.317,2024.029c0,0-243.219-578.229,11.864-910.719s496.325,75.235,761.295-51.313   s240.517-964.632,880.565-933.706s638.73,629.987,957.749,818.049s711.861,161.261,603.763,1077.689H353.317z"
   id="path17" />
	<g
   id="g46">
		<rect
   x="1095.813"
   y="235.461"
   style="fill:#BBDBF3;"
   width="1682.623"
   height="1230.922"
   id="rect17" />
		<rect
   x="1111.425"
   y="251.07"
   style="fill:#FFFFFF;"
   width="1651.4"
   height="1199.697"
   id="rect18" />
		<rect
   x="1111.425"
   y="251.07"
   style="fill:#BBDBF3;"
   width="1651.4"
   height="113.064"
   id="rect19" />
		<g
   id="g20">
			
				<line
   style="fill:none;stroke:#FFFFFF;stroke-width:10.4305;stroke-linecap:round;stroke-linejoin:round;stroke-miterlimit:10;"
   x1="2658.437"
   y1="340.124"
   x2="2723.481"
   y2="275.08"
   id="line19" />
			
				<line
   style="fill:none;stroke:#FFFFFF;stroke-width:10.4305;stroke-linecap:round;stroke-linejoin:round;stroke-miterlimit:10;"
   x1="2723.481"
   y1="340.124"
   x2="2658.437"
   y2="275.08"
   id="line20" />
		</g>
		<rect
   x="1111.425"
   y="364.134"
   style="fill:#E5F0F8;"
   width="391.455"
   height="1086.634"
   id="rect20" />
		<rect
   x="1150.475"
   y="425.075"
   style="fill:#FFFFFF;"
   width="313.356"
   height="25.247"
   id="rect21" />
		<rect
   x="1150.475"
   y="491.792"
   style="fill:#FFFFFF;"
   width="313.356"
   height="25.247"
   id="rect22" />
		<rect
   x="1150.475"
   y="558.508"
   style="fill:#FFFFFF;"
   width="313.356"
   height="25.247"
   id="rect23" />
		<rect
   x="1150.475"
   y="625.224"
   style="fill:#FFFFFF;"
   width="313.356"
   height="25.247"
   id="rect24" />
		<rect
   x="1150.475"
   y="691.94"
   style="fill:#FFFFFF;"
   width="313.356"
   height="25.247"
   id="rect25" />
		<rect
   x="1150.475"
   y="758.656"
   style="fill:#FFFFFF;"
   width="313.356"
   height="25.247"
   id="rect26" />
		<rect
   x="1150.475"
   y="825.372"
   style="fill:#FFFFFF;"
   width="313.356"
   height="25.247"
   id="rect27" />
		<g
   id="g30">
			
				<rect
   x="1604.379"
   y="980.184"
   transform="matrix(-1.836970e-16 1 -1 -1.836970e-16 3028.7402 -566.2348)"
   style="fill:#BBDBF3;"
   width="386.216"
   height="502.137"
   id="rect28" />
			<polygon
   style="fill:#FFFFFF;"
   points="1909.078,1225.478 1720.263,1116.465 1720.263,1334.49    "
   id="polygon28" />
			<rect
   x="1546.419"
   y="1403.339"
   style="fill:#E5F0F8;"
   width="502.137"
   height="21.022"
   id="rect29" />
			<rect
   x="1546.419"
   y="1403.339"
   style="fill:#F74242;"
   width="246.484"
   height="21.022"
   id="rect30" />
			<path
   style="fill:#FFFFFF;"
   d="M1810.813,1424.361h-31.149c-5.781,0-10.511-4.73-10.511-10.511l0,0     c0-5.781,4.73-10.511,10.511-10.511h31.149c5.781,0,10.511,4.73,10.511,10.511l0,0     C1821.324,1419.631,1816.594,1424.361,1810.813,1424.361z"
   id="path30" />
		</g>
		<rect
   x="1150.475"
   y="892.089"
   style="fill:#FFFFFF;"
   width="313.356"
   height="25.247"
   id="rect31" />
		<rect
   x="1150.475"
   y="958.805"
   style="fill:#FFFFFF;"
   width="313.356"
   height="25.247"
   id="rect32" />
		<rect
   x="1150.475"
   y="1025.521"
   style="fill:#FFFFFF;"
   width="313.356"
   height="25.247"
   id="rect33" />
		<rect
   x="1150.475"
   y="1092.237"
   style="fill:#FFFFFF;"
   width="313.356"
   height="25.247"
   id="rect34" />
		<rect
   x="1150.475"
   y="1158.953"
   style="fill:#FFFFFF;"
   width="313.356"
   height="25.247"
   id="rect35" />
		
			<rect
   x="1672.181"
   y="393.009"
   style="fill:none;stroke:#BBDBF3;stroke-width:4.9084;stroke-miterlimit:10;"
   width="799.862"
   height="64.133"
   id="rect36" />
		
			<rect
   x="2344.171"
   y="393.009"
   style="fill:#BBDBF3;stroke:#BBDBF3;stroke-width:3.4316;stroke-miterlimit:10;"
   width="127.872"
   height="64.133"
   id="rect37" />
		
			<rect
   x="2594.501"
   y="393.009"
   style="fill:#BBDBF3;stroke:#BBDBF3;stroke-width:3.4316;stroke-miterlimit:10;"
   width="127.872"
   height="64.133"
   id="rect38" />
		<path
   style="fill:#FFFFFF;"
   d="M2386.002,438.113c9.207,5.144,20.559,2.61,26.913-5.397l34.176,19.096l3.309-5.922l-34.172-19.094    c3.515-9.612-0.292-20.598-9.514-25.751c-10.229-5.715-23.184-2.086-28.899,8.143    C2372.099,419.417,2375.773,432.398,2386.002,438.113z M2404.463,405.073c7.966,4.451,10.842,14.61,6.391,22.576    c-4.476,8.011-14.61,10.842-22.576,6.391c-8.011-4.476-10.867-14.565-6.391-22.576    C2386.339,403.498,2396.453,400.597,2404.463,405.073z"
   id="path38" />
		
			<rect
   x="1546.419"
   y="504.415"
   style="fill:none;stroke:#BBDBF3;stroke-width:4.8879;stroke-linecap:round;stroke-linejoin:round;stroke-miterlimit:10;stroke-dasharray:19.5518;"
   width="1175.954"
   height="506.299"
   id="rect39" />
		<g
   id="g41">
			<rect
   x="2088.751"
   y="1322.817"
   style="fill:#E5F0F8;"
   width="633.621"
   height="101.544"
   id="rect40" />
			<polygon
   style="fill:#FFFFFF;"
   points="2189.716,1373.589 2124.683,1336.042 2124.683,1411.136    "
   id="polygon40" />
			
				<line
   style="fill:none;stroke:#FFFFFF;stroke-width:4.1304;stroke-miterlimit:10;"
   x1="2218.698"
   y1="1373.589"
   x2="2680.935"
   y2="1373.589"
   id="line40" />
			<rect
   x="2218.698"
   y="1356.51"
   style="fill:#FFFFFF;"
   width="8.539"
   height="34.157"
   id="rect41" />
		</g>
		<g
   id="g43">
			<rect
   x="2088.751"
   y="1180.481"
   style="fill:#E5F0F8;"
   width="633.621"
   height="101.544"
   id="rect42" />
			<polygon
   style="fill:#FFFFFF;"
   points="2189.716,1231.253 2124.683,1193.706 2124.683,1268.8    "
   id="polygon42" />
			
				<line
   style="fill:none;stroke:#FFFFFF;stroke-width:4.1304;stroke-miterlimit:10;"
   x1="2218.698"
   y1="1231.253"
   x2="2680.935"
   y2="1231.253"
   id="line42" />
			<rect
   x="2218.698"
   y="1214.174"
   style="fill:#FFFFFF;"
   width="8.539"
   height="34.157"
   id="rect43" />
		</g>
		<g
   id="g45">
			<rect
   x="2088.751"
   y="1038.145"
   style="fill:#E5F0F8;"
   width="633.621"
   height="101.544"
   id="rect44" />
			<polygon
   style="fill:#FFFFFF;"
   points="2189.716,1088.916 2124.683,1051.37 2124.683,1126.463    "
   id="polygon44" />
			
				<line
   style="fill:none;stroke:#FFFFFF;stroke-width:4.1304;stroke-miterlimit:10;"
   x1="2218.698"
   y1="1088.916"
   x2="2680.935"
   y2="1088.916"
   id="line44" />
			<rect
   x="2218.698"
   y="1071.838"
   style="fill:#FFFFFF;"
   width="8.539"
   height="34.157"
   id="rect45" />
		</g>
	</g>
	<g
   id="g61">
		<path
   style="fill:#BBDBF3;"
   d="M1238.353,1959.07H559.904c-35.373,0-64.048-28.675-64.048-64.048V584.443    c0-35.373,28.675-64.048,64.048-64.048h678.449c35.373,0,64.048,28.675,64.048,64.048v1310.579    C1302.401,1930.395,1273.726,1959.07,1238.353,1959.07z"
   id="path46" />
		<g
   id="g49">
			<path
   style="fill:#FFFFFF;"
   d="M1249.384,764.487c0,63.7-51.651,115.351-115.351,115.351c-34.745,0-65.895-15.365-87.003-39.696     c-17.7-20.221-28.348-46.701-28.348-75.655c0-63.7,51.651-115.351,115.351-115.351     C1197.734,649.136,1249.384,700.787,1249.384,764.487z"
   id="path47" />
			<path
   style="fill:#BBDBF3;"
   d="M1134.034,760.144c-49.689-2.802-74.768,42.124-87.003,79.998     c21.108,24.331,52.258,39.696,87.003,39.696s65.895-15.365,87.003-39.696C1208.802,802.268,1183.723,757.342,1134.034,760.144z"
   id="path48" />
			<path
   style="fill:#BBDBF3;"
   d="M1176.026,723.658c0,34.136-18.797,69.876-41.985,69.876c-23.187,0-41.984-35.74-41.984-69.876     s18.797-53.742,41.984-53.742C1157.228,669.917,1176.026,689.522,1176.026,723.658z"
   id="path49" />
		</g>
		<rect
   x="555.287"
   y="649.136"
   style="fill:#FFFFFF;"
   width="291.496"
   height="31.157"
   id="rect49" />
		<rect
   x="555.287"
   y="716.147"
   style="fill:#FFFFFF;"
   width="368.615"
   height="31.157"
   id="rect50" />
		<rect
   x="555.287"
   y="988.416"
   style="fill:#FFFFFF;"
   width="217.207"
   height="25.471"
   id="rect51" />
		<rect
   x="555.287"
   y="1555.135"
   style="fill:#FFFFFF;"
   width="217.207"
   height="25.471"
   id="rect52" />
		<rect
   x="555.287"
   y="1607.137"
   style="fill:#FFFFFF;"
   width="362.955"
   height="25.471"
   id="rect53" />
		<rect
   x="555.287"
   y="1036.526"
   style="fill:#FFFFFF;"
   width="275.931"
   height="25.471"
   id="rect54" />
		<path
   style="fill:#FFFFFF;"
   d="M853.56,1220.834H572.565c-9.503,0-17.279-7.775-17.279-17.278v-78.645    c0-9.503,7.775-17.278,17.279-17.278H853.56c9.503,0,17.279,7.775,17.279,17.278v78.645    C870.838,1213.059,863.063,1220.834,853.56,1220.834z"
   id="path54" />
		<path
   style="fill:#FFFFFF;"
   d="M944.697,1220.834h280.995c9.503,0,17.278-7.775,17.278-17.278v-78.645    c0-9.503-7.775-17.278-17.278-17.278H944.697c-9.503,0-17.279,7.775-17.279,17.278v78.645    C927.419,1213.059,935.194,1220.834,944.697,1220.834z"
   id="path55" />
		<path
   style="fill:#FFFFFF;"
   d="M1214.857,1508.439H583.4c-17.226,0-31.32-14.094-31.32-31.32v-182.513    c0-17.226,14.094-31.321,31.32-31.321h631.457c17.226,0,31.32,14.094,31.32,31.321v182.513    C1246.177,1494.344,1232.083,1508.439,1214.857,1508.439z"
   id="path56" />
		<g
   id="g57">
			<rect
   x="590.309"
   y="1339.696"
   style="fill:#E5F0F8;"
   width="244.092"
   height="21.225"
   id="rect56" />
			<rect
   x="590.309"
   y="1385.331"
   style="fill:#E5F0F8;"
   width="372.506"
   height="46.696"
   id="rect57" />
		</g>
		<path
   style="fill:#E5F0F8;"
   d="M1235.033,1782.247H563.224c-6.129,0-11.145-5.015-11.145-11.145v-98.696    c0-6.129,5.015-11.145,11.145-11.145h671.808c6.13,0,11.145,5.015,11.145,11.145v98.696    C1246.177,1777.232,1241.162,1782.247,1235.033,1782.247z"
   id="path57" />
		<rect
   x="586.064"
   y="1710.08"
   style="fill:#FFFFFF;"
   width="301.401"
   height="23.348"
   id="rect58" />
		
			<rect
   x="1127.843"
   y="1710.08"
   transform="matrix(-1 -1.224647e-16 1.224647e-16 -1 2340.0361 3443.5083)"
   style="fill:#FFFFFF;"
   width="84.35"
   height="23.348"
   id="rect59" />
		<path
   style="fill:#E5F0F8;"
   d="M1235.033,1925.872H563.224c-6.129,0-11.145-5.015-11.145-11.145v-98.696    c0-6.13,5.015-11.145,11.145-11.145h671.808c6.13,0,11.145,5.015,11.145,11.145v98.696    C1246.177,1920.857,1241.162,1925.872,1235.033,1925.872z"
   id="path59" />
		<rect
   x="586.064"
   y="1853.706"
   style="fill:#FFFFFF;"
   width="301.401"
   height="23.348"
   id="rect60" />
		
			<rect
   x="1127.843"
   y="1853.706"
   transform="matrix(-1 -1.224647e-16 1.224647e-16 -1 2340.0361 3730.7595)"
   style="fill:#FFFFFF;"
   width="84.35"
   height="23.348"
   id="rect61" />
	</g>
	<g
   id="g85">
		<path
   style="fill:#BBDBF3;"
   d="M1046.848,1636.632l817.486,25.047c60.434,1.852,117.493,28.296,157.969,73.212l208.265,231.111    c8.567,9.507,3.148,24.727-9.5,26.679l-13.194,2.037c-14.115,2.179-28.325-3.31-37.31-14.412l-165.063-203.953    c-42.057-51.966-105.31-82.189-172.163-82.261l-832.494-0.896L1046.848,1636.632z"
   id="path61" />
		<path
   style="fill:#BBDBF3;"
   d="M2157.924,1636.632l-817.486,25.047c-60.434,1.852-117.493,28.296-157.969,73.212l-208.265,231.111    c-8.567,9.507-3.148,24.727,9.5,26.679l13.194,2.037c14.115,2.179,28.325-3.31,37.31-14.412l165.063-203.953    c42.057-51.966,105.311-82.189,172.163-82.261l832.494-0.896L2157.924,1636.632z"
   id="path62" />
		<path
   style="fill:#93ACBF;"
   d="M2268.456,1648.216c-19.448-3.242-61.831-12.264-96.391-33.3    c-46.463-28.282-141.41-62.624-231.306-59.594c-89.896,3.03-143.935,18.686-180.297,46.463    c-36.362,27.777-44.948,30.302-75.755,25.252c-30.807-5.05-82.321-5.05-82.321-5.05s-51.514,0-82.321,5.05    c-30.807,5.05-39.392,2.525-75.755-25.252c-36.363-27.777-90.401-43.433-180.297-46.463    c-89.896-3.03-184.843,31.312-231.306,59.594c-34.56,21.036-76.943,30.058-96.391,33.3c-6.176,1.03-10.677,6.385-10.677,12.646    v20.326c0,6.445,4.771,11.94,11.169,12.72c14.467,1.762,39.059,7.828,49.436,28.582c15.151,30.302,23.232,127.269,83.836,193.933    c60.604,66.665,135.349,106.057,258.578,77.775c123.229-28.282,168.682-137.369,185.853-189.893    c17.171-52.524,17.676-86.866,17.676-86.866s-17.676-16.666-8.586-32.827c9.091-16.161,78.785-16.666,78.785-16.666    s69.695,0.505,78.785,16.666c9.091,16.161-8.586,32.827-8.586,32.827s0.505,34.342,17.676,86.866    c17.171,52.523,62.624,161.611,185.853,189.893c123.228,28.282,197.973-11.111,258.578-77.775s68.685-163.631,83.836-193.933    c10.377-20.754,34.969-26.82,49.436-28.582c6.398-0.779,11.168-6.275,11.168-12.72v-20.326    C2279.132,1654.6,2274.631,1649.245,2268.456,1648.216z"
   id="path63" />
		<g
   id="g74">
			<defs
   id="defs63">
				<path
   id="SVGID_1_"
   d="M1272.767,1570.978c67.337,0.277,181.812,35.016,210.094,121.208      c28.282,86.193-6.734,281.473-210.094,290.9s-254.537-212.788-224.909-288.206      C1077.487,1619.461,1137.754,1570.422,1272.767,1570.978z" />
			</defs>
			<use
   xlink:href="#SVGID_1_"
   style="overflow:visible;fill:#E5F0F8;"
   id="use63" />
			<clipPath
   id="SVGID_00000041283361245353013250000005778630019661850524_">
				<use
   xlink:href="#SVGID_1_"
   style="overflow:visible;"
   id="use64" />
			</clipPath>
			<g
   style="clip-path:url(#SVGID_00000041283361245353013250000005778630019661850524_);"
   clip-path="url(#SVGID_00000041283361245353013250000005778630019661850524_)"
   id="g73">
				<polygon
   style="fill:#BBDBF3;"
   points="1213.461,1641.716 1178.943,1693.347 1000.861,1693.172 1046.827,1636.635     "
   id="polygon64" />
				<polygon
   style="fill:#BBDBF3;"
   points="1307.905,1644.636 1291.902,1668.583 1275.256,1693.464 1242.139,1693.464       1247.688,1685.171 1275.431,1643.643     "
   id="polygon65" />
				<path
   style="fill:#6DA8C6;"
   d="M987.193,1980.3l21.611,14.427c-3.913,0.584-7.885,0.584-11.915,0l-13.2-2.044      c-12.616-1.927-18.048-17.172-9.462-26.692l87.26-96.838L987.193,1980.3z"
   id="path65" />
				<path
   style="fill:#BBDBF3;"
   d="M1291.902,1668.583l-16.646,24.881l-24.297,36.329v0.058      c-19.391,12.499-36.855,28.152-51.69,46.492l-72.015,88.953l114.886-171.833l5.549-8.294      C1261.764,1678.045,1276.599,1672.496,1291.902,1668.583z"
   id="path66" />
				<path
   style="fill:#BBDBF3;"
   d="M2203.925,1693.172l-231.758,0.234h-0.117l-369.657,0.467h-16.471l-214.47,0.233      c-20.092,0-39.95,2.745-58.933,8.06l5.782-8.644l21.26-31.773c0.292-0.058,0.584-0.058,0.876-0.058l261.254-8.002h0.701      l555.508-17.055L2203.925,1693.172z"
   id="path67" />
				<polygon
   style="fill:#FFFFFF;"
   points="1380.038,1487.171 1275.431,1643.643 1213.461,1641.716 1336.291,1457.968     "
   id="polygon67" />
				<path
   style="fill:#F2FDFF;"
   d="M1127.136,1865.473l-96.254,144.031l-22.078-14.777c9.812-1.402,18.924-6.483,25.407-14.427      L1127.136,1865.473z"
   id="path68" />
				<path
   style="fill:#FFFFFF;"
   d="M1232.677,1693.406c-18.515,11.156-35.511,25.115-50.23,41.469l-120.902,134.219l117.398-175.746      L1232.677,1693.406z"
   id="path69" />
				<polygon
   style="fill:#FFFFFF;"
   points="1429.158,1527.647 1350.134,1645.921 1307.905,1644.636 1399.429,1507.731     "
   id="polygon69" />
				<path
   style="fill:#E5F0F8;"
   d="M1350.134,1645.921l-10.572,15.828l-21.26,31.773l-5.782,8.644      c-21.844,6.016-42.637,15.361-61.561,27.626l24.297-36.329l16.646-24.881l16.003-23.947L1350.134,1645.921z"
   id="path70" />
				<path
   style="fill:#FFFFFF;"
   d="M1312.519,1702.167L1080.06,2049.98l-29.787-19.917l200.686-300.211v-0.058      C1269.883,1717.528,1290.675,1708.183,1312.519,1702.167z"
   id="path71" />
				<path
   style="fill:#E5F0F8;"
   d="M1275.431,1643.643l-27.743,41.528l-5.549,8.294l-114.886,171.833l-0.117,0.175l-92.925,114.828      c-6.483,7.943-15.595,13.025-25.407,14.427l-21.611-14.427l74.294-111.148l0.058-0.059l120.902-134.219      c14.719-16.354,31.715-30.313,50.23-41.469l-53.734-0.058l34.518-51.631L1275.431,1643.643z"
   id="path72" />
				<path
   style="fill:#BBDBF3;"
   d="M2221.038,1992.683l-13.142,2.044c-14.134,2.161-28.327-3.329-37.322-14.427l-165.058-203.957      c-42.053-51.982-105.308-82.179-172.184-82.237l-230.941-0.233h-16.471l-267.62-0.35l21.26-31.773l10.572-15.828l251.558,7.768      h0.701l261.955,8.002c38.373,1.168,75.404,12.265,107.702,31.715h0.117c18.515,11.272,35.336,25.115,50.113,41.469      l208.279,231.116C2239.145,1975.511,2233.713,1990.755,2221.038,1992.683z"
   id="path73" />
			</g>
		</g>
		<path
   style="fill:#E5F0F8;"
   d="M1932.005,1570.978c-67.337,0.277-181.812,35.016-210.094,121.208    c-28.282,86.193,6.734,281.473,210.094,290.9s254.537-212.788,224.909-288.206    C2127.285,1619.461,2067.018,1570.422,1932.005,1570.978z"
   id="path74" />
		<circle
   style="fill:#BBDBF3;"
   cx="963.686"
   cy="1674.005"
   r="9.427"
   id="circle74" />
		<g
   id="g83">
			<defs
   id="defs74">
				<path
   id="SVGID_00000166642894858196749770000001668738126022623142_"
   d="M1932.005,1570.978      c-67.337,0.277-181.812,35.016-210.094,121.208c-28.282,86.193,6.734,281.473,210.094,290.9s254.537-212.788,224.909-288.206      C2127.285,1619.461,2067.018,1570.422,1932.005,1570.978z" />
			</defs>
			<clipPath
   id="SVGID_00000099629655844593994070000012586612226176958868_">
				<use
   xlink:href="#SVGID_00000166642894858196749770000001668738126022623142_"
   style="overflow:visible;"
   id="use74" />
			</clipPath>
			<g
   style="clip-path:url(#SVGID_00000099629655844593994070000012586612226176958868_);"
   clip-path="url(#SVGID_00000099629655844593994070000012586612226176958868_)"
   id="g82">
				<path
   style="fill:#BBDBF3;"
   d="M2221.038,1992.683l-13.142,2.044c-14.134,2.161-28.327-3.329-37.322-14.427l-165.058-203.957      c-14.719-18.164-32.007-33.642-51.106-46.142l22.603-33.701h0.058c16.587,10.688,31.773,23.479,45.207,38.373l208.279,231.116      C2239.145,1975.511,2233.713,1990.755,2221.038,1992.683z"
   id="path75" />
				<path
   style="fill:#BBDBF3;"
   d="M1880.409,1645.162l-11.272,16.704l-21.318,31.715l-245.426,0.292l-369.715-0.467      c32.299-19.45,69.329-30.547,107.761-31.715l261.955-8.002L1880.409,1645.162z"
   id="path76" />
				<path
   style="fill:#BBDBF3;"
   d="M1978.007,1642.125l-26.984,40.126l-7.534,11.214l-14.952,22.195      c-8.761-4.147-17.814-7.768-27.042-10.747l7.71-11.389l14.66-21.786l19.158-28.503L1978.007,1642.125z"
   id="path77" />
				<polygon
   style="fill:#BBDBF3;"
   points="2203.925,1693.172 1979.117,1693.406 2014.395,1641.015 2157.9,1636.635     "
   id="polygon77" />
				<path
   style="fill:#E5F0F8;"
   d="M1943.022,1643.234l-19.158,28.503l-14.66,21.786l-7.71,11.389      c-17.464-5.665-35.745-9.228-54.319-10.338l0.643-0.993l21.318-31.715l11.272-16.704L1943.022,1643.234z"
   id="path78" />
				<path
   style="fill:#FFFFFF;"
   d="M1847.176,1694.574c18.574,1.11,36.855,4.672,54.319,10.338l-182.638,271.417l-42.17-28.386      L1847.176,1694.574z"
   id="path79" />
				<polygon
   style="fill:#FFFFFF;"
   points="2019.184,1530.042 1943.022,1643.234 1880.409,1645.162 1976.956,1501.656     "
   id="polygon79" />
				<path
   style="fill:#E5F0F8;"
   d="M1979.117,1693.406h-7.067c1.636,1.051,3.329,2.044,4.965,3.096l-22.603,33.701      c-8.294-5.432-16.938-10.28-25.874-14.543l14.952-22.195l7.534-11.214l26.984-40.126l36.387-1.109L1979.117,1693.406z"
   id="path80" />
				<path
   style="fill:#FFFFFF;"
   d="M1928.537,1715.659c8.936,4.264,17.58,9.111,25.874,14.543l-178.316,264.992l-24.531-16.471      L1928.537,1715.659z"
   id="path81" />
				<path
   style="fill:#DEECFF;"
   d="M1972.05,1693.406h7.067l-2.044,3.096h-0.058      C1975.379,1695.45,1973.685,1694.457,1972.05,1693.406z"
   id="path82" />
				<polygon
   style="fill:#FFFFFF;"
   points="2076.365,1548.907 2014.395,1641.015 1978.007,1642.125 2051.833,1532.378     "
   id="polygon82" />
			</g>
		</g>
		<circle
   style="fill:#BBDBF3;"
   cx="1010.27"
   cy="1674.005"
   r="9.427"
   id="circle83" />
		<circle
   style="fill:#BBDBF3;"
   cx="2241.086"
   cy="1674.005"
   r="9.427"
   id="circle84" />
		<circle
   style="fill:#BBDBF3;"
   cx="2194.502"
   cy="1674.005"
   r="9.427"
   id="circle85" />
	</g>
	<g
   id="g125">
		<path
   style="fill:#F74242;"
   d="M909.845,1204.511L909.845,1204.511c-12.911,6.949-29.159,2.07-36.108-10.84l-52.231-97.046    c-6.949-12.911-2.071-29.159,10.84-36.108h0c12.911-6.949,29.159-2.071,36.108,10.84l52.231,97.046    C927.634,1181.314,922.755,1197.563,909.845,1204.511z"
   id="path85" />
		<path
   style="fill:#FDAE97;"
   d="M885.069,1208.084c-13.269-6.4-19.503-21.221-13.854-32.933l62.154-94.456    c1.38-3.604,2.807-7.792,3.566-11.402c1.765-8.394,9.246-30.631,12.44-29.53c3.194,1.101,1.157,17.376,2.878,16.738    c1.72-0.637,6.002-12.227,7.436-17.313c1.433-5.086,2.75-16.484,5.639-17.578c2.889-1.095,5.543,2.602,5.543,2.602    s-0.03-4.411,2.727-3.899c2.757,0.513,4.471,7.375,4.471,7.375s-0.267-2.453,2.633-1.132c2.9,1.32,1.944,12.404,1.944,12.404    s0.978-2.006,3.042-0.705c2.063,1.301-0.801,15.723-6.064,25.069c-4.698,8.344-18.062,26.928-20.878,30.824l-39.276,104.278    C913.818,1210.139,898.339,1214.485,885.069,1208.084z"
   id="path86" />
		<path
   style="fill:#322A28;"
   d="M777.041,983.807c0,0-13.855,10.104-10.847,30.965c3.008,20.86,4.693,32.151-8.495,33.227    c-13.188,1.077-39.605-6.786-41.743,10.861c-2.139,17.647,10.307,29.405-8.271,32.657c-18.578,3.253-21.117,27.175-21.117,27.175    s66.345,41.778,129.419,3.414c63.073-38.364-4.144-64.824-4.144-64.824L777.041,983.807z"
   id="path87" />
		<polygon
   style="fill:#E89780;"
   points="908.145,1145.105 860.887,1167.483 858.621,1164.137 905.153,1139.544   "
   id="polygon87" />
		<g
   id="g92">
			
				<rect
   x="736.756"
   y="1563.327"
   transform="matrix(-1 -1.224647e-16 1.224647e-16 -1 1689.7643 3138.1172)"
   style="fill:#322A28;"
   width="216.252"
   height="11.463"
   id="rect87" />
			
				<rect
   x="715.083"
   y="1713.759"
   transform="matrix(-1 -1.224647e-16 1.224647e-16 -1 1646.4171 3438.9814)"
   style="fill:#322A28;"
   width="216.251"
   height="11.463"
   id="rect88" />
			
				<rect
   x="698.411"
   y="1864.192"
   transform="matrix(-1 -1.224647e-16 1.224647e-16 -1 1606.4612 3739.8459)"
   style="fill:#322A28;"
   width="209.639"
   height="11.463"
   id="rect89" />
			<polygon
   style="fill:#322A28;"
   points="885.425,2011.932 897.651,2011.932 969.094,1457.897 956.868,1457.897    "
   id="polygon89" />
			<polygon
   style="fill:#322A28;"
   points="676.644,2011.932 688.87,2011.932 760.312,1457.897 748.086,1457.897    "
   id="polygon90" />
			<polygon
   style="fill:#322A28;"
   points="831.816,2011.932 819.59,2011.932 748.148,1457.897 760.374,1457.897    "
   id="polygon91" />
			<polygon
   style="fill:#322A28;"
   points="1040.598,2011.932 1028.372,2011.932 956.929,1457.897 969.155,1457.897    "
   id="polygon92" />
			
				<rect
   x="750.057"
   y="1457.897"
   transform="matrix(-1 -1.224647e-16 1.224647e-16 -1 1716.3655 2927.2566)"
   style="fill:#322A28;"
   width="216.251"
   height="11.463"
   id="rect92" />
		</g>
		<path
   style="fill:#0775EF;"
   d="M778.256,1304.299c20.555,20.108,66.777,32.409,118.789,27.583    c52.012-4.826,85.771-4.469,85.771-4.469c23.802,0,43.098-19.295,43.098-43.098c0-23.802-19.296-43.098-43.098-43.098    l-196.055-6.194L778.256,1304.299z"
   id="path92" />
		<path
   style="fill:#F74242;"
   d="M787.29,1049.46l-46.652,21.129c0,0,10.372,120.097,11.445,133.234    c1.072,13.137-2.949,32.977-2.949,32.977h111.8c0,0-1.341-64.345,6.167-82.308c5.086-12.169,8.579-19.572,5.63-33.513    c-2.949-13.942-24.528-38.588-21.043-62.717l-24.338-7.795L787.29,1049.46z"
   id="path93" />
		<path
   style="fill:#F74242;"
   d="M728.446,1228.545L728.446,1228.545c-14.415-2.681-24.014-16.669-21.333-31.083l20.155-108.35    c2.681-14.415,16.669-24.015,31.083-21.333l0,0c14.415,2.681,24.015,16.669,21.333,31.083l-20.155,108.35    C756.848,1221.626,742.861,1231.226,728.446,1228.545z"
   id="path94" />
		<path
   style="fill:#322A28;"
   d="M835.66,985.035c0,0,7.181-15.252-7.799-20.796L835.66,985.035z"
   id="path95" />
		<path
   style="fill:#FDAE97;"
   d="M787.093,1049.453l0.031,0.031c0.501,0.878,8.964,15.138,24.979,13.947    c14.166-1.066,15.232-12.975,15.232-12.975v-54.251h-34.475L787.093,1049.453z"
   id="path96" />
		<polygon
   style="fill:#E89780;"
   points="827.334,1044.277 803.282,1018.122 827.35,1027.163   "
   id="polygon96" />
		<path
   style="fill:#FDAE97;"
   d="M803.828,1027.43c10.87,7.227,24.117,7.934,32.398,2.991c8.287-4.912,7.638-17.298,5.679-25.245    c-0.006-0.031-0.006-0.031-0.013-0.061c-0.409-1.643-0.991-3.955-1.638-6.573c-2.509-10.265-6.216-25.467-6.216-25.467    c-1.548-8.011-23.228-27.016-45.916-4.986C765.44,990.149,792.957,1020.203,803.828,1027.43z"
   id="path97" />
		<path
   style="fill:#322A28;"
   d="M833.494,969.84c0,0-0.806,9.456-14.416,15.068c-13.611,5.612-26.728,14.609-25.897,28.684    c0.831,14.075-4.391,21.707-4.391,21.707s-1.033-17.539-9.028-32.777c-3.101-5.911-5.436-18.153,0.79-28.263    C790.378,958.307,814.126,947.067,833.494,969.84z"
   id="path98" />
		<path
   style="fill:#FDAE97;"
   d="M795.613,1010.708c2.626,4.371,3.276,7.415-0.156,9.477c-3.432,2.062-9.022,1.227-11.648-3.144    c-2.626-4.371-1.972-9.586,1.46-11.648C788.701,1003.332,792.987,1006.337,795.613,1010.708z"
   id="path99" />
		
			<path
   style="fill:none;stroke:#E89780;stroke-width:0.6333;stroke-linecap:round;stroke-linejoin:round;stroke-miterlimit:10;"
   d="    M787.974,1013.449c2.852-1.203,5.207,0.143,5.207,0.143c-1.659-4.914-7.542-3.282-7.542-3.282"
   id="path100" />
		<path
   style="fill:#322A28;"
   d="M816.043,998.896c0.424,1.924,1.777,3.261,3.022,2.987c1.245-0.274,1.91-2.057,1.485-3.981    s-1.777-3.261-3.022-2.987C816.284,995.19,815.619,996.972,816.043,998.896z"
   id="path101" />
		<path
   style="fill:#322A28;"
   d="M832.151,993.777c0.424,1.924,1.777,3.261,3.022,2.987c1.245-0.275,1.91-2.057,1.485-3.981    s-1.777-3.261-3.022-2.987C832.391,990.071,831.726,991.854,832.151,993.777z"
   id="path102" />
		<path
   style="fill:none;stroke:#2C3447;stroke-width:0.9402;stroke-miterlimit:10;"
   d="M810.808,995.997    c0,0,2.805-5.646,7.689-4.905"
   id="path103" />
		<path
   style="fill:none;stroke:#FFFFFF;stroke-width:1.2666;stroke-miterlimit:10;"
   d="M865.719,1158.662    c0,0,8.198-17.942,7.942-31.432c-0.255-13.49-9.481-25.251-9.481-25.251"
   id="path104" />
		<path
   style="fill:none;stroke:#2C3447;stroke-width:0.9402;stroke-miterlimit:10;"
   d="M831.099,987.411    c0,0,2.69-1.142,6.347,1.238"
   id="path105" />
		<path
   style="fill:#088CFF;"
   d="M755.858,1664.929h-72.264l22.934-229.906l0.067-0.799c1.531-22.335,20.171-39.976,42.906-39.976    c23.766,0,43.005,19.239,43.005,43.005c0,1.331-0.066,2.63-0.2,3.895L755.858,1664.929z"
   id="path106" />
		<path
   style="fill:none;stroke:#2C3447;stroke-width:0.9402;stroke-miterlimit:10;"
   d="M826.4,995.335c0,0,2.323,9.484,8.175,9.416    c0,0-1.423,2.012-3.505,3.171"
   id="path107" />
		<path
   style="fill:#088CFF;"
   d="M749.133,1236.8c-22.146,18.34-37.264,57.474-37.901,109.706    c-0.637,52.232-4.521,85.769-4.521,85.769c-2.488,23.672,14.685,44.879,38.357,47.367c23.672,2.488,44.879-14.685,47.367-38.357    l33.446-204.485H749.133z"
   id="path108" />
		<g
   id="g111">
			<path
   style="fill:#586773;"
   d="M1108.013,866.11c0,0-70.32,67.846-126.753,131.033s-374.595,430.799-402.91,463.498     c-27.43,31.677-51.112,57.273-51.222,84.763c-0.006,1.505,1.355,2.64,2.849,2.458c8.701-1.057,36.725-7.459,68.945-46.165     c38.926-46.763,328.036-348.31,356.459-380.553c28.423-32.243,170.787-196.807,187.023-225.676L1108.013,866.11z"
   id="path109" />
			<path
   style="fill:#403534;"
   d="M1381.39,599.213c0,0-3.718,30.685-32.514,65.027c-12.273,14.634-29.032,29.917-52.045,43.784     l-13.985-12.273c0,0,15.401-36.998,42.545-65.263C1340.556,614.673,1359.439,601.574,1381.39,599.213z"
   id="path110" />
			<path
   style="fill:#93ACBF;"
   d="M1296.853,708.03l-152.768,191.905c-0.698,0.877-1.987,0.993-2.83,0.254l-35.716-31.297     c-0.866-0.759-0.896-2.096-0.065-2.894l177.393-170.222L1296.853,708.03z"
   id="path111" />
		</g>
		<path
   style="fill:none;stroke:#2C3447;stroke-width:0.9402;stroke-miterlimit:10;"
   d="M833.767,1015.653    c0,0-5.638,3.992-11.621-1.876"
   id="path112" />
		<path
   style="fill:#E89780;"
   d="M807.522,1007.132c-0.167,2.046,2.95,3.971,6.962,4.3c4.012,0.328,7.401-1.064,7.568-3.111    c0.167-2.046-2.95-3.971-6.962-4.3C811.078,1003.693,807.689,1005.086,807.522,1007.132z"
   id="path113" />
		<path
   style="fill:#E89780;"
   d="M837.701,1003.914c0.589,1.125,2.209,1.521,4.191,1.201c-0.409-1.643-0.991-3.955-1.638-6.573    C838.041,1000.352,836.925,1002.508,837.701,1003.914z"
   id="path114" />
		<path
   style="fill:#FDAE97;"
   d="M914.3,1157.004c-1.344-2.461-4.745,0.349-4.745,0.349s1.19-4.392-1.484-5.941    c-2.673-1.549-12.341,4.63-17.19,6.732c-4.848,2.101-16.538,6.102-18.118,5.171c-1.581-0.931,12.322-9.632,11.159-12.804    c-1.164-3.172-23.129,5.075-30.751,9.009c-3.278,1.692-7.426,3.231-11.092,4.438l-112.486,11.48    c-12.649,3.019-20.2,17.213-16.78,31.543c3.42,14.33,16.567,23.585,29.216,20.567l105.65-35.42    c4.799-0.277,27.649-1.656,37.084-3.285c10.57-1.824,23.559-8.713,23.265-11.134c-0.294-2.422-2.468-1.913-2.468-1.913    s9.196-6.261,8.388-9.343c-0.808-3.082-2.541-1.326-2.541-1.326S915.645,1159.465,914.3,1157.004z"
   id="path115" />
		<path
   style="fill:#322A28;"
   d="M787.541,952.369c6.555,4.94,5.881,16.892-1.507,26.695c-7.387,9.804-18.69,13.746-25.246,8.806    c-6.555-4.94-5.881-16.892,1.507-26.695C769.682,951.372,780.985,947.429,787.541,952.369z"
   id="path116" />
		<path
   style="fill:none;stroke:#FFFFFF;stroke-width:0.8322;stroke-miterlimit:10;"
   d="M797.01,1020.264    c0.372,1.772-0.762,3.51-2.534,3.882c-1.772,0.372-3.51-0.762-3.882-2.534c-0.372-1.772,0.762-3.51,2.534-3.882    C794.899,1017.358,796.638,1018.493,797.01,1020.264z"
   id="path117" />
		<polygon
   style="fill:#FDAE97;"
   points="763.647,1706.104 772.135,1713.759 692.914,1713.759 693.28,1706.104 694.479,1681.905     695.311,1664.929 740.746,1664.929 736.819,1681.905   "
   id="polygon117" />
		<path
   style="fill:#088CFC;"
   d="M692.921,1713.75h79.191l-0.715-3.572c-0.219-1.044-0.494-2.088-0.824-3.132    c-2.033-6.87-6.1-12.805-11.431-17.146c-6.099-5.001-13.903-7.969-22.312-7.969h-42.371l-1.154,24.181l-0.055,0.934    L692.921,1713.75z"
   id="path118" />
		
			<line
   style="fill:none;stroke:#FFFFFF;stroke-width:0.8322;stroke-miterlimit:10;"
   x1="726.359"
   y1="1691.297"
   x2="740.664"
   y2="1691.297"
   id="line118" />
		
			<line
   style="fill:none;stroke:#FFFFFF;stroke-width:0.8322;stroke-miterlimit:10;"
   x1="730.903"
   y1="1696.851"
   x2="745.208"
   y2="1696.851"
   id="line119" />
		<path
   style="fill:#FFFFFF;"
   d="M715.924,1695c0,3.346-2.713,6.059-6.059,6.059s-6.059-2.713-6.059-6.059    c0-3.346,2.713-6.059,6.059-6.059S715.924,1691.653,715.924,1695z"
   id="path119" />
		<path
   style="fill:#0775EF;"
   d="M954.953,1514.497h-72.264l57.247-229.907l0.066-0.799c1.531-22.335,20.171-39.977,42.906-39.977    c23.766,0,43.005,19.239,43.005,43.005c0,1.332-0.066,2.63-0.2,3.895L954.953,1514.497z"
   id="path120" />
		<polygon
   style="fill:#FDAE97;"
   points="962.976,1555.671 971.464,1563.327 886.045,1563.327 887.991,1555.671 893.807,1531.472     899.101,1514.497 944.537,1514.497 936.147,1531.472   "
   id="polygon120" />
		<path
   style="fill:#088CFF;"
   d="M886.036,1563.336h85.401c-0.11-2.308-0.44-4.561-0.99-6.705    c-3.792-14.563-16.981-25.17-32.534-25.17h-44.13l-5.77,24.236l-0.219,0.934L886.036,1563.336z"
   id="path121" />
		
			<line
   style="fill:none;stroke:#FFFFFF;stroke-width:0.8322;stroke-miterlimit:10;"
   x1="925.687"
   y1="1540.865"
   x2="939.993"
   y2="1540.865"
   id="line121" />
		
			<line
   style="fill:none;stroke:#FFFFFF;stroke-width:0.8322;stroke-miterlimit:10;"
   x1="930.231"
   y1="1546.419"
   x2="944.537"
   y2="1546.419"
   id="line122" />
		<circle
   style="fill:#FFFFFF;"
   cx="909.194"
   cy="1544.567"
   r="6.059"
   id="circle122" />
		
			<line
   style="fill:none;stroke:#FFFFFF;stroke-width:1.2666;stroke-miterlimit:10;"
   x1="765.786"
   y1="1174.441"
   x2="774.508"
   y2="1127.313"
   id="line123" />
		<path
   style="fill:#FFFFFF;"
   d="M692.921,1713.75h79.191l-0.715-3.572c-0.219-1.044-0.494-2.088-0.824-3.132h-77.323    L692.921,1713.75z"
   id="path123" />
		<path
   style="fill:#FFFFFF;"
   d="M886.036,1563.336h85.401c-0.11-2.308-0.44-4.561-0.99-6.705h-82.653L886.036,1563.336z"
   id="path124" />
		<path
   style="fill:#BBDBF3;"
   d="M1348.876,664.24c1.77-12.274,9.972-27.911,6.373-33.694c-5.901-9.5-23.603,16.994-29.858,0v-0.059    c15.165-15.815,34.048-28.914,55.999-31.275C1381.39,599.213,1377.672,629.898,1348.876,664.24z"
   id="path125" />
	</g>
	<g
   id="g131">
		<polygon
   style="fill:#93ACBF;"
   points="3565.973,846.534 3504.74,756.334 3475.871,899.59 3520.922,1015.52   "
   id="polygon125" />
		<path
   style="fill:#93ACBF;"
   d="M2691.129,2002.623h647.357c14.532,0,28.434-11.718,31.052-26.175l199.999-1104.586    c2.645-14.607,0.555-29.503-14.055-29.503l-641.423-90.924c-14.61,0-28.562,11.843-31.163,26.451l-213.418,1198.563    C2666.903,1990.905,2676.597,2002.623,2691.129,2002.623z"
   id="path126" />
		<path
   style="fill:#BBDBF3;"
   d="M2616.567,2002.623h647.357c14.532,0,28.434-11.718,31.052-26.175L3511.99,777.885    c2.645-14.607-7.054-26.451-21.664-26.451h-650.829c-14.61,0-28.562,11.843-31.163,26.451l-213.418,1198.563    C2592.341,1990.905,2602.035,2002.623,2616.567,2002.623z"
   id="path127" />
		<polygon
   style="fill:#586773;"
   points="2851.249,797.949 2655.42,1896.507 3263.17,1896.507 3341.5,1463.422 3095.948,815.174     3202.332,815.174 3375.823,1273.649 3461.86,797.949   "
   id="polygon127" />
		<path
   style="fill:#BBDBF3;"
   d="M3067.011,791.386c-0.412,2.297-0.476,4.485-0.191,6.563c0.388,3.938,1.895,7.438,4.184,10.227    c3.547,4.32,9.028,6.999,15.537,6.999h133.841c10.775,0,21.282-7.328,25.908-17.226c1.03-2.078,1.752-4.266,2.165-6.563    c1.181-6.563-0.436-12.471-3.981-16.792c-3.545-4.322-8.97-7.002-15.535-7.002h-133.868    C3081.996,767.593,3069.353,778.314,3067.011,791.386z"
   id="path128" />
		<polygon
   style="fill:#93ACBF;"
   points="3095.948,815.174 3341.5,1463.422 3375.823,1273.649 3202.332,815.174   "
   id="polygon128" />
		<polygon
   style="fill:#93ACBF;"
   points="2851.249,797.949 2850.488,802.214 3264.16,1891.035 3330.89,1522.082 3056.481,797.949       "
   id="polygon129" />
		<polygon
   style="fill:#93ACBF;"
   points="2759.597,1312.097 2746.012,1388.301 2939.777,1896.507 2982.352,1896.507   "
   id="polygon130" />
		<polygon
   style="fill:#93ACBF;"
   points="2741.823,1411.805 2715.355,1560.285 2843.684,1896.507 2926.656,1896.507   "
   id="polygon131" />
		<path
   style="fill:#BBDBF3;"
   d="M2870.235,1979.767h148.229c16.951,0,33.303-13.797,36.339-30.662v0    c3.036-16.868-8.352-30.671-25.307-30.671h-148.268c-16.955,0-33.3,13.803-36.321,30.671v0    C2841.886,1965.97,2853.284,1979.767,2870.235,1979.767z"
   id="path131" />
	</g>
	<path
   style="fill:#0775EF;"
   d="M3688.743,2072.544H227.741c-16.774,0-30.372-13.598-30.372-30.372v-9.176   c0-16.774,13.598-30.372,30.372-30.372h3461.002c16.774,0,30.372,13.598,30.372,30.372v9.176   C3719.115,2058.946,3705.517,2072.544,3688.743,2072.544z"
   id="path132" />
	
	<path
   style="fill:#FFFFFF;"
   d="M440.822,1424.376c-11.49-6.924-26.424-3.018-33.045,8.643l-11.34,19.973l-4.589-2.765   c-3.552-2.141-7.638-2.645-11.384-1.716c-3.745,0.929-7.122,3.284-9.263,6.837c-4.295,7.108-1.998,16.369,5.12,20.647l5.252,3.165   l-65.036,114.465c-2.114,3.719-1.122,8.36,2.164,10.942l-6.558,17.919l13.635,8.228l12.779-14.171   c3.829,1.682,8.385,0.407,10.682-3.213l70.818-110.969l5.252,3.165c3.556,2.154,7.652,2.642,11.397,1.713   c3.732-0.925,7.112-3.267,9.263-6.837c4.291-7.122,1.998-16.369-5.124-20.661l-4.589-2.765l12.346-19.355   C455.819,1446.318,452.294,1431.289,440.822,1424.376z"
   id="path150" />
	<g
   id="g165">
		<path
   style="fill:#F9E181;"
   d="M710.811,415.306c1.069,71.692-33.118,135.653-86.49,175.473    c-31.546,23.57-49.215,61.433-48.628,100.841l0.526,35.281l-151.296,2.256l-0.526-35.281    c-0.588-39.408-19.329-76.728-51.612-99.297c-11.772-8.229-22.675-17.65-32.611-28.02l-0.001-0.049    c-12.583-13.23-23.469-28.058-32.409-44.193c-18.538-33.538-28.41-72.661-26.476-114.318    c5.05-106.335,89.015-193.99,195.035-203.484c2.356-0.183,4.762-0.366,7.119-0.499c77.786-4.453,147.49,32.647,188.62,91.406    C695.917,329.42,710.146,370.689,710.811,415.306z"
   id="path151" />
		<path
   style="fill:#BBDBF3;"
   d="M577.631,758.925c0.053,3.538-0.141,7.03-0.581,10.477c-2.082,15.267-9.005,28.985-19.267,39.508    c-12.488,12.916-29.961,21.04-49.372,21.329l-11.743,0.175c-35.233,0.525-64.807-24.984-70.372-58.764    c-0.543-3.432-0.841-6.917-0.894-10.455c-0.053-3.538,0.141-7.03,0.582-10.428c2.081-15.267,9.004-28.984,19.265-39.557    c12.488-12.916,29.963-21.04,49.323-21.329l11.743-0.175c35.282-0.526,64.857,25.032,70.423,58.813    C577.28,751.902,577.578,755.387,577.631,758.925z"
   id="path152" />
		<path
   style="fill:#A7ADC7;"
   d="M594.055,716.658c-1.838,1.944-4.474,3.163-7.325,3.206c3.342-0.05,6.363,1.527,8.317,3.955    c1.401,1.748,2.271,3.996,2.306,6.355c0.043,2.85-1.098,5.472-2.986,7.417c-1.839,1.895-4.475,3.114-7.325,3.156    c3.047-0.045,5.867,1.24,7.767,3.374c1.746,1.792,2.816,4.234,2.856,6.936c0.043,2.899-1.098,5.472-2.986,7.417    c-1.839,1.895-4.475,3.114-7.325,3.156l-9.778,0.146c-0.06,2.557-0.218,5.115-0.525,7.626    c-2.082,15.267-9.005,28.985-19.267,39.508c-12.488,12.916-29.961,21.04-49.372,21.329l-11.743,0.175    c-26.191,0.391-49.253-13.617-61.608-34.665c17.873,2.191,41.635,0.411,63.355-16.279c30.565-23.457,25.382-74.347,20.325-100.37    l67.368-1.005c3.39-0.051,6.461,1.526,8.417,4.052c1.351,1.7,2.17,3.851,2.206,6.209c0.043,2.899-1.097,5.521-2.986,7.417    c-1.838,1.944-4.474,3.163-7.325,3.206c3.146-0.047,6.016,1.336,7.966,3.518c1.648,1.843,2.618,4.188,2.656,6.743    C597.084,712.091,595.944,714.762,594.055,716.658z"
   id="path153" />
		<path
   style="fill:none;stroke:#FFFFFF;stroke-width:5.4724;stroke-miterlimit:10;"
   d="M480.607,695.688    c0,0,4.264-280.693-68.601-256.18c-72.865,24.513,167.75,105.423,190.825,15.887c23.075-89.536-92.682-5.399-91.803,65.107    c0.879,70.506,2.678,179.562,2.678,179.562"
   id="path154" />
		<path
   style="fill:#93ACBF;"
   d="M594.055,716.658c-1.838,1.944-4.474,3.163-7.325,3.206c3.342-0.05,6.363,1.527,8.317,3.955    c1.401,1.748,2.271,3.996,2.306,6.355c0.043,2.85-1.098,5.472-2.986,7.417c-1.839,1.895-4.475,3.114-7.325,3.156    c3.047-0.045,5.867,1.24,7.767,3.374c1.746,1.792,2.816,4.234,2.856,6.936c0.043,2.899-1.098,5.472-2.986,7.417    c-1.839,1.895-4.475,3.114-7.325,3.156l-9.778,0.146c-0.06,2.557-0.218,5.115-0.525,7.626    c-2.082,15.267-9.005,28.985-19.267,39.508c-12.488,12.916-29.961,21.04-49.372,21.329l-11.743,0.175    c-26.191,0.391-49.253-13.617-61.608-34.665c17.873,2.191,41.635,0.411,63.355-16.279c30.565-23.457,25.382-74.347,20.325-100.37    l67.368-1.005c3.39-0.051,6.461,1.526,8.417,4.052c1.351,1.7,2.17,3.851,2.206,6.209c0.043,2.899-1.097,5.521-2.986,7.417    c-1.838,1.944-4.474,3.163-7.325,3.206c3.146-0.047,6.016,1.336,7.966,3.518c1.648,1.843,2.618,4.188,2.656,6.743    C597.084,712.091,595.944,714.762,594.055,716.658z"
   id="path155" />
		<path
   style="fill:#93ACBF;"
   d="M577.631,758.925c0.053,3.538-0.141,7.03-0.581,10.477l-150.754,2.248    c-0.543-3.432-0.841-6.917-0.894-10.455c-0.053-3.538,0.141-7.03,0.582-10.428l150.754-2.248    C577.28,751.902,577.578,755.387,577.631,758.925z"
   id="path156" />
		<path
   style="fill:#BBDBF3;"
   d="M597.665,751.057c0.043,2.899-1.098,5.472-2.986,7.417c-1.839,1.895-4.475,3.114-7.325,3.156    l-172.571,2.573c-5.75,0.086-10.487-4.513-10.573-10.262c-0.04-2.703,0.955-5.175,2.599-7.018    c0.096-0.149,0.193-0.249,0.338-0.398c1.838-1.944,4.474-3.163,7.325-3.206l172.571-2.573c3.047-0.045,5.867,1.24,7.767,3.374    C596.555,745.913,597.625,748.355,597.665,751.057z"
   id="path157" />
		<path
   style="fill:#BBDBF3;"
   d="M596.73,688.357c0.043,2.899-1.097,5.521-2.986,7.417c-1.838,1.944-4.474,3.163-7.325,3.206    l-172.571,2.573c-5.75,0.086-10.488-4.562-10.574-10.311c-0.035-2.359,0.718-4.532,1.971-6.271    c0.337-0.398,0.627-0.796,0.966-1.145c1.839-1.895,4.475-3.114,7.325-3.156l172.571-2.573c3.39-0.051,6.461,1.526,8.417,4.052    C595.876,683.848,596.695,685.999,596.73,688.357z"
   id="path158" />
		<path
   style="fill:#BBDBF3;"
   d="M597.042,709.241c0.043,2.85-1.097,5.521-2.986,7.417c-1.838,1.944-4.474,3.163-7.325,3.206    l-172.571,2.573c-5.75,0.086-10.488-4.562-10.574-10.311c-0.038-2.555,0.861-4.928,2.405-6.818    c0.194-0.199,0.339-0.398,0.532-0.598c1.839-1.895,4.475-3.114,7.325-3.156l172.571-2.573c3.146-0.047,6.016,1.336,7.966,3.518    C596.034,704.341,597.003,706.685,597.042,709.241z"
   id="path159" />
		<path
   style="fill:#93ACBF;"
   d="M594.525,682.148c-0.289,0.398-0.628,0.796-0.967,1.145c-1.838,1.944-4.474,3.163-7.325,3.206    l-172.571,2.573c-3.391,0.051-6.462-1.575-8.416-4.102c0.337-0.398,0.627-0.796,0.966-1.145c1.839-1.895,4.475-3.114,7.325-3.156    l172.571-2.573C589.498,678.046,592.569,679.622,594.525,682.148z"
   id="path160" />
		<path
   style="fill:#93ACBF;"
   d="M594.385,702.498c-0.145,0.199-0.339,0.398-0.532,0.598c-1.838,1.944-4.474,3.163-7.324,3.206    l-172.571,2.573c-3.146,0.047-6.016-1.336-7.967-3.567c0.194-0.199,0.339-0.398,0.532-0.598c1.839-1.895,4.475-3.114,7.325-3.156    l172.571-2.573C589.565,698.933,592.435,700.315,594.385,702.498z"
   id="path161" />
		<path
   style="fill:#BBDBF3;"
   d="M597.354,730.174c0.043,2.85-1.098,5.472-2.986,7.417c-1.839,1.895-4.475,3.114-7.325,3.156    l-172.571,2.573c-5.75,0.086-10.488-4.562-10.573-10.262c-0.035-2.358,0.767-4.631,2.068-6.42    c0.289-0.348,0.579-0.697,0.869-0.996c1.838-1.944,4.474-3.163,7.325-3.206l172.571-2.573c3.342-0.05,6.363,1.527,8.317,3.955    C596.449,725.567,597.319,727.815,597.354,730.174z"
   id="path162" />
		<path
   style="fill:#93ACBF;"
   d="M595.048,723.819c-0.241,0.348-0.531,0.696-0.87,1.045c-1.839,1.895-4.475,3.114-7.325,3.156    l-172.571,2.573c-3.341,0.05-6.362-1.478-8.316-3.955c0.289-0.348,0.579-0.697,0.869-0.996c1.838-1.944,4.474-3.163,7.325-3.206    l172.571-2.573C590.073,719.813,593.094,721.39,595.048,723.819z"
   id="path163" />
		<path
   style="fill:#93ACBF;"
   d="M594.809,744.121c-0.145,0.149-0.242,0.249-0.339,0.349c-1.838,1.944-4.474,3.163-7.325,3.206    l-172.571,2.573c-3.047,0.045-5.818-1.24-7.766-3.324c0.096-0.149,0.193-0.249,0.338-0.398c1.838-1.944,4.474-3.163,7.325-3.206    l172.571-2.573C590.089,740.701,592.909,741.986,594.809,744.121z"
   id="path164" />
		<path
   style="fill:#F9ECB8;"
   d="M476.326,204.514c2.356-0.183,4.762-0.366,7.119-0.499c-25.143,14.579-53.454,34.267-84.463,60.877    c-96.084,82.528-96.71,202.067-91.215,257.425c-18.538-33.538-28.41-72.661-26.476-114.318    C286.34,301.664,370.306,214.008,476.326,204.514z"
   id="path165" />
	</g>
	<g
   id="g210">
		<polygon
   style="fill:#FDAE97;"
   points="2359.769,1383.774 2414.652,1382.842 2411.777,1325.214 2410.404,1297.655     2410.326,1296.283 2367.383,1278.23 2365.985,1297.707 2364.949,1311.901   "
   id="polygon165" />
		<path
   style="fill:#B86B76;"
   d="M2467.101,1562.159l23.079,191.049c0.725,4.829,0.702,9.85-0.283,14.917    c-4.637,23.855-27.734,39.434-51.589,34.797c-23.855-4.637-32.984-23.056-37.269-50.447c-8.225-52.581-36.95-210.34-36.95-210.34    L2467.101,1562.159z"
   id="path166" />
		<polygon
   style="fill:#B86B76;"
   points="2317.453,1552.542 2402.231,1558.23 2401.809,1652.155 2391.747,1667.036     2382.419,1757.583 2296.603,1750.724   "
   id="polygon166" />
		<path
   style="fill:#FDAE97;"
   d="M2386.498,1359.674c-20.137,0.443-29.939-10.604-32.049-15.475l8.755-2.365l49.321-1.566    l5.983,1.915C2415.983,1346.884,2407.071,1359.221,2386.498,1359.674z"
   id="path167" />
		<path
   style="fill:#FFFFFF;"
   d="M2315.033,1484.963l0.866,82.353h151.825l-0.701-207.62l-53.197-19.222    c-0.596,1.093-1.242,2.235-2.036,3.427l-0.198,0.248c-2.881,3.676-8.394,7.152-23.842,7.5c-12.864,0.298-19.173-1.49-22.749-3.825    l-0.05-0.05c-1.937-1.292-3.477-3.841-4.371-5.232l-49.819,12.087l3.378,104.804L2315.033,1484.963z"
   id="path168" />
		<path
   style="fill:#F74242;"
   d="M2354.449,1344.199c0,0,4.309,76.833,3.688,121.244s-3.688,156.644-3.688,156.644    s-28.125,0.594-53.996-4.644c0,0-0.39-50.845,6.743-85.91c7.133-35.065,3.565-176.904,3.565-176.904L2354.449,1344.199z"
   id="path169" />
		<path
   style="fill:#F74242;"
   d="M2515.311,1527.372l-0.322,0.126c-14.143,5.547-30.252-1.486-35.799-15.628l-45.195-115.231    c-5.547-14.142,1.486-30.252,15.628-35.799l0.322-0.126c14.142-5.547,30.252,1.486,35.798,15.628l45.196,115.231    C2536.486,1505.716,2529.453,1521.825,2515.311,1527.372z"
   id="path170" />
		<path
   style="fill:#B86B76;"
   d="M2506.252,1947.124l-79.744-0.055l-24.038-185.573c-2.51-24.183,15.021-45.839,39.174-48.385    c24.184-2.51,45.805,15.019,48.351,39.171c0.229,2.099,0.256,4.15,0.179,6.228l13.882,162.88L2506.252,1947.124L2506.252,1947.124    z"
   id="path171" />
		<path
   style="fill:#B86B76;"
   d="M2382.725,1754.246l-20.478,192.878h-78.343l12.561-193.934c-0.102-2.044,0.477-4.327,0.647-6.439    c2.146-24.222,21.395-42.312,45.617-40.2C2366.917,1708.697,2384.837,1730.024,2382.725,1754.246z"
   id="path172" />
		<path
   style="fill:#322A28;"
   d="M2356.608,1265.404c0,0-7.297-18.217,1.645-16.549S2356.608,1265.404,2356.608,1265.404z"
   id="path173" />
		<path
   style="fill:#F74242;"
   d="M2418.508,1342.183c0,0-20.761,107.635-21.459,161.132c-0.698,53.497-0.698,53.497-0.698,53.497    l2.377,65.275c0,0,57.844,7.171,78.066-1.078c0,0,1.412-77.484-3.963-104.918c-5.375-27.434-5.81-156.395-5.81-156.395    L2418.508,1342.183z"
   id="path174" />
		<polygon
   style="fill:#EA9D85;"
   points="2363.435,1332.903 2394.286,1310.409 2364.949,1311.901   "
   id="polygon174" />
		
			<path
   style="fill:none;stroke:#FFFFFF;stroke-width:1.4695;stroke-linecap:round;stroke-linejoin:round;stroke-miterlimit:10;"
   d="    M2407.844,1606.286c0,0,42.104,6.973,61.72,0"
   id="path175" />
		<path
   style="fill:#FDAE97;"
   d="M2357.227,1251.08c0,0-1.746,18.361-2.985,31.386l-1.024,10.765    c-0.809,8.506,0.376,21.35,9.672,25.179c9.264,3.826,22.793,1.091,32.904-7.987c10.114-9.109,34.726-52.12,8.027-71.412    C2377.09,1219.716,2358.304,1246.749,2357.227,1251.08z"
   id="path176" />
		
			<path
   style="fill:none;stroke:#FFFFFF;stroke-width:1.4695;stroke-linecap:round;stroke-linejoin:round;stroke-miterlimit:10;"
   d="    M2344.439,1365.411c0,0,4.178,67.168,5.656,96.889c1.478,29.721-5.656,134.338-5.656,134.338"
   id="path177" />
		<path
   style="fill:#322A28;"
   d="M2411.294,1312.912c0,0-6.958-11.633-6.488-17.97c0.47-6.338-6.794-13.469-5.623-23.202    c1.172-9.733,1.641-13.834-3.398-13.366c-5.039,0.469-40.659,8.436-41.596-8.436c-0.937-16.873,41.148-33.16,58.128-4.57    c0,0,11.289-0.517,7.84,23.417S2411.688,1296.795,2411.294,1312.912z"
   id="path178" />
		
			<path
   style="fill:none;stroke:#FFFFFF;stroke-width:1.4695;stroke-linecap:round;stroke-linejoin:round;stroke-miterlimit:10;"
   d="    M2427.387,1352.73c0,0-7.908,65.782-12.735,98.276c-4.827,32.495-5.662,112.589-6.808,142.263"
   id="path179" />
		<g
   id="g180">
			<path
   style="fill:#FDAE97;"
   d="M2400.598,1290.315c-3.815,4.884-5.05,8.46-1.215,11.455c3.835,2.995,10.702,2.818,14.517-2.067     c3.815-4.884,3.799-11.272-0.036-14.268S2404.413,1285.43,2400.598,1290.315z"
   id="path180" />
		</g>
		<path
   style="fill:#322A28;"
   d="M2380.383,1277.384c-0.188,1.973-1.375,3.474-2.651,3.353c-1.276-0.121-2.159-1.819-1.971-3.792    c0.188-1.973,1.375-3.474,2.651-3.353C2379.688,1273.713,2380.571,1275.411,2380.383,1277.384z"
   id="path181" />
		<path
   style="fill:#322A28;"
   d="M2356.518,1275.115c-0.188,1.973,0.695,3.671,1.971,3.792c1.276,0.121,2.463-1.38,2.651-3.353    c0.188-1.973-0.695-3.671-1.971-3.792C2357.893,1271.641,2356.706,1273.141,2356.518,1275.115z"
   id="path182" />
		<path
   style="fill:#EA9D85;"
   d="M2375.471,1290.062c0.435,1.87,3.802,2.686,7.521,1.822c3.719-0.864,6.381-3.081,5.947-4.952    c-0.435-1.87-3.802-2.686-7.521-1.822C2377.698,1285.975,2375.036,1288.192,2375.471,1290.062z"
   id="path183" />
		<path
   style="fill:#EA9D85;"
   d="M2354.242,1282.467l-0.666,6.999c2.917,0.626,5.412,0.04,5.966-1.459    C2360.156,1286.228,2357.794,1283.754,2354.242,1282.467z"
   id="path184" />
		
			<path
   style="fill:none;stroke:#EA9D85;stroke-width:1.4317;stroke-linecap:round;stroke-linejoin:round;stroke-miterlimit:10;"
   d="    M2409.648,1295.564c-3.164-0.915-5.872-0.558-5.872-0.558c3.383-5.101,7.517-4.077,7.517-4.077"
   id="path185" />
		<path
   style="fill:none;stroke:#332B27;stroke-width:0.9158;stroke-miterlimit:10;"
   d="M2370.438,1277.816l-5.552,12.185    c-0.563,1.234-0.212,2.693,0.85,3.537l1.645,1.307l1.685,1.339"
   id="path186" />
		<path
   style="fill:none;stroke:#332B27;stroke-width:0.9158;stroke-miterlimit:10;"
   d="M2383.667,1273.645    c0,0-3.827-4.577-8.892-3.7"
   id="path187" />
		<path
   style="fill:none;stroke:#332B27;stroke-width:0.9158;stroke-miterlimit:10;"
   d="M2354.956,1268.785    c0,0,3.677-2.888,8.111-0.288"
   id="path188" />
		<polygon
   style="fill:#FDAE97;"
   points="2350.943,1977.268 2353.042,1947.124 2294.346,1947.124 2292.054,1977.268   "
   id="polygon188" />
		<path
   style="fill:#F74242;"
   d="M2276.475,1527.439l-0.333-0.091c-14.651-4.014-23.354-19.286-19.34-33.937l32.708-119.378    c4.014-14.651,19.286-23.354,33.937-19.34l0.333,0.091c14.651,4.014,23.354,19.286,19.34,33.938l-32.708,119.378    C2306.398,1522.75,2291.126,1531.453,2276.475,1527.439z"
   id="path189" />
		<polygon
   style="fill:#EA9D85;"
   points="2293.308,1960.78 2353.042,1947.124 2294.346,1947.124   "
   id="polygon189" />
		<polygon
   style="fill:#FDAE97;"
   points="2438.067,1977.268 2435.815,1947.076 2495.937,1947.124 2496.956,1977.268   "
   id="polygon190" />
		<polygon
   style="fill:#EA9D85;"
   points="2437.071,1963.916 2495.937,1947.124 2435.815,1947.076   "
   id="polygon191" />
		<path
   style="fill:#322A28;"
   d="M2263.128,2002.623h86.674l0.149-3.527l1.064-23.36h-58.979c-7.302,0-14.057,4.287-19.222,8.757    c-4.272,3.825-7.45,8.841-8.941,14.603C2263.526,2000.239,2263.277,2001.431,2263.128,2002.623z"
   id="path191" />
		<path
   style="fill:#FFF1F0;"
   d="M2263.128,2002.623h86.674l0.149-3.527h-86.078    C2263.526,2000.239,2263.277,2001.431,2263.128,2002.623z"
   id="path192" />
		<g
   id="g194">
			
				<path
   style="fill:none;stroke:#FFF1F0;stroke-width:1.134;stroke-linecap:round;stroke-linejoin:round;stroke-miterlimit:10;"
   d="     M2290.261,1980.542c0,0,7.492-13.149,12.537-7.95C2307.844,1977.79,2290.261,1980.542,2290.261,1980.542"
   id="path193" />
			
				<path
   style="fill:none;stroke:#FFF1F0;stroke-width:1.134;stroke-linecap:round;stroke-linejoin:round;stroke-miterlimit:10;"
   d="     M2292.898,1983.16l-2.637-2.618c0,0-7.492-13.149-12.537-7.95c-5.045,5.198,12.537,7.95,12.537,7.95"
   id="path194" />
			
				<line
   style="fill:none;stroke:#FFF1F0;stroke-width:1.134;stroke-linecap:round;stroke-linejoin:round;stroke-miterlimit:10;"
   x1="2288.248"
   y1="1983.16"
   x2="2290.261"
   y2="1980.542"
   id="line194" />
		</g>
		<path
   style="fill:#322A28;"
   d="M2525.431,2002.623h-86.674l-0.149-3.527l-1.064-23.36h58.979c7.302,0,14.057,4.287,19.222,8.757    c4.272,3.825,7.45,8.841,8.941,14.603C2525.034,2000.239,2525.282,2001.431,2525.431,2002.623z"
   id="path195" />
		<path
   style="fill:#FFF1F0;"
   d="M2525.431,2002.623h-86.674l-0.149-3.527h86.078    C2525.034,2000.239,2525.282,2001.431,2525.431,2002.623z"
   id="path196" />
		<g
   id="g198">
			
				<path
   style="fill:none;stroke:#FFF1F0;stroke-width:1.134;stroke-linecap:round;stroke-linejoin:round;stroke-miterlimit:10;"
   d="     M2498.298,1981.338c0,0-7.492-13.149-12.537-7.95C2480.716,1978.586,2498.298,1981.338,2498.298,1981.338"
   id="path197" />
			
				<path
   style="fill:none;stroke:#FFF1F0;stroke-width:1.134;stroke-linecap:round;stroke-linejoin:round;stroke-miterlimit:10;"
   d="     M2495.661,1983.956l2.637-2.618c0,0,7.492-13.149,12.537-7.95c5.046,5.198-12.537,7.95-12.537,7.95"
   id="path198" />
			
				<line
   style="fill:none;stroke:#FFF1F0;stroke-width:1.134;stroke-linecap:round;stroke-linejoin:round;stroke-miterlimit:10;"
   x1="2500.311"
   y1="1983.956"
   x2="2498.298"
   y2="1981.338"
   id="line198" />
		</g>
		
			<polyline
   style="fill:none;stroke:#FFFFFF;stroke-width:0.745;stroke-linecap:round;stroke-linejoin:round;stroke-miterlimit:10;"
   points="    2389.798,1685.955 2382.894,1662.904 2376.278,1662.904 2365.745,1634.372   "
   id="polyline198" />
		
			<line
   style="fill:none;stroke:#FFFFFF;stroke-width:0.745;stroke-linecap:round;stroke-linejoin:round;stroke-miterlimit:10;"
   x1="2498.298"
   y1="1925.338"
   x2="2430.435"
   y2="1925.338"
   id="line199" />
		
			<line
   style="fill:none;stroke:#FFFFFF;stroke-width:0.745;stroke-linecap:round;stroke-linejoin:round;stroke-miterlimit:10;"
   x1="2359.917"
   y1="1925.338"
   x2="2292.054"
   y2="1925.338"
   id="line200" />
		<path
   style="fill:#FFFFFF;"
   d="M2375.518,1299.703l-10.423,3.665c0,0,2.141,5.32,7.405,3.794    C2377.764,1305.637,2375.518,1299.703,2375.518,1299.703z"
   id="path200" />
		
			<path
   style="fill:none;stroke:#FFFFFF;stroke-width:1.4695;stroke-linecap:round;stroke-linejoin:round;stroke-miterlimit:10;"
   d="    M2304.019,1602.384c0,0,20.21,6.737,40.42,1.387"
   id="path201" />
		<path
   style="fill:#FFFFFF;"
   d="M2344.439,1486.87c0,2.079-1.686,3.765-3.765,3.765s-3.765-1.685-3.765-3.765    c0-2.079,1.686-3.765,3.765-3.765S2344.439,1484.79,2344.439,1486.87z"
   id="path202" />
		<path
   style="fill:#FFFFFF;"
   d="M2344.439,1521.453c0,2.079-1.686,3.765-3.765,3.765s-3.765-1.685-3.765-3.765    c0-2.079,1.686-3.765,3.765-3.765S2344.439,1519.373,2344.439,1521.453z"
   id="path203" />
		<path
   style="fill:#FFFFFF;"
   d="M2339.684,1580.727c0,2.079-1.686,3.765-3.765,3.765c-2.079,0-3.764-1.685-3.764-3.765    c0-2.079,1.685-3.765,3.764-3.765C2337.999,1576.963,2339.684,1578.648,2339.684,1580.727z"
   id="path204" />
		<g
   id="g209">
			<polygon
   style="fill:#A5BBD6;"
   points="2236.686,1560.157 2366.198,1560.157 2332.397,1463.173 2202.885,1463.173    "
   id="polygon204" />
			<g
   id="g208">
				<polygon
   style="fill:#89A5C7;"
   points="2364.785,1555.449 2407.136,1517.989 2281.868,1517.989 2235.273,1555.449     "
   id="polygon205" />
				<polygon
   style="fill:#A5BBD6;"
   points="2239.132,1558.01 2368.644,1558.01 2334.844,1461.027 2205.331,1461.027     "
   id="polygon206" />
				<polygon
   style="fill:#89A5C7;"
   points="2205.331,1461.027 2202.885,1463.173 2332.397,1463.173 2366.198,1560.157       2368.644,1558.01 2334.844,1461.027     "
   id="polygon207" />
				<polygon
   style="fill:#586773;"
   points="2407.136,1517.989 2408.548,1522.697 2366.198,1560.157 2364.557,1555.449     "
   id="polygon208" />
			</g>
			<ellipse
   style="fill:#89A5C7;"
   cx="2279.08"
   cy="1512.768"
   rx="14.359"
   ry="6.356"
   id="ellipse208" />
		</g>
		<path
   style="fill:#FDAE97;"
   d="M2340.372,1573.669c0.848,2.286,15.629,2.165,25.85-1.289c8.665-2.917,27.917-11.794,33.573-14.45    l-10.688-34.735c-3.616,0.624-11.129,1.181-14.536,1.983c-9.065,2.134-26.413,9.554-25.922,12.939    c0.46,3.356,16.307,0.176,15.349,1.757c-0.958,1.581-12.588,7.844-17.861,8.294c-5.301,0.481-16.784-0.364-18.4,2.273    c-1.645,2.668,1.536,5.959,1.536,5.959s-4.358-0.83-4.377,1.985c-0.02,2.815,6.436,5.801,6.436,5.801s-2.347-0.735-1.602,2.366    c0.776,3.129,11.886,4.264,11.886,4.264S2339.464,1571.386,2340.372,1573.669z"
   id="path209" />
		<path
   style="fill:#F74242;"
   d="M2386.995,1516.331l109.226-43.89c13.13-4.825,28.361,3.367,33.872,18.246    c5.477,14.879-0.788,31.027-13.918,35.886l-113.799,39.746L2386.995,1516.331z"
   id="path210" />
		<polyline
   style="fill:none;stroke:#332B27;stroke-width:1.2855;stroke-miterlimit:10;"
   points="2398.606,1511.665     2468.437,1484.452 2447.63,1431.402   "
   id="polyline210" />
		
			<line
   style="fill:none;stroke:#332B27;stroke-width:1.2855;stroke-miterlimit:10;"
   x1="2473.423"
   y1="1541.504"
   x2="2412.325"
   y2="1562.844"
   id="line210" />
	</g>
	<g
   id="g247">
		<path
   style="fill:#F9E181;"
   d="M3140.25,656.818L3140.25,656.818c11.757,7.217,27.28,3.502,34.497-8.255l54.245-88.372    c7.217-11.757,3.502-27.28-8.255-34.497h0c-11.757-7.217-27.28-3.502-34.497,8.255l-54.245,88.372    C3124.779,634.077,3128.493,649.601,3140.25,656.818z"
   id="path211" />
		<path
   style="fill:#332B27;"
   d="M3268.743,422.219c0,0,22.15,15.78,24.26,49.098c2.11,33.318,40.531,38.195,40.531,38.195    s-1.511,34.356-43.817,41.397s-41.822-63.11-41.822-63.11L3268.743,422.219z"
   id="path212" />
		<path
   style="fill:#332B27;"
   d="M3227.769,422.219c0,0-14.03,3.139-15.757,28.315c-1.727,25.177,14.462,62.679,22.448,63.246    C3242.447,514.348,3259.499,425.928,3227.769,422.219z"
   id="path213" />
		<path
   style="fill:#F9E181;"
   d="M3270.312,511.739l43.894,20.672c0,0-9.759,112.203-10.768,124.563    c-1.009,12.361,2.775,31.027,2.775,31.027h-105.19c0,0,1.261-60.541-5.802-77.442c-4.785-11.45-8.072-18.415-5.297-31.532    c2.775-13.117,12.108-32.793,8.829-55.496l26.991-10.847L3270.312,511.739z"
   id="path214" />
		<path
   style="fill:#B37661;"
   d="M3225.733,461.658v51.038c0,0,0,0.624,0.125,1.621c0.524,4.166,3.218,14.867,17.087,14.718    c12.672-0.15,21.528-9.454,25.294-14.343c1.372-1.746,2.07-2.944,2.07-2.944l-6.386-50.09H3225.733z"
   id="path215" />
		<polygon
   style="fill:#824C3A;"
   points="3225.743,512.686 3248.435,483.714 3225.743,479.344   "
   id="polygon215" />
		<path
   style="fill:#B37661;"
   d="M3221.498,487.157c8.371,4.5,21.334,3.19,31.707-4.399c10.374-7.589,36.15-38.354,12.87-59.041    c-23.311-20.684-43.538,2.965-44.953,6.935c0,0-2.858,14.379-4.848,24.517c-0.525,2.575-0.978,4.867-1.317,6.593    c-0.042,0.281-0.116,0.535-0.16,0.785C3213.237,470.489,3213.13,482.688,3221.498,487.157z"
   id="path216" />
		<path
   style="fill:#F9E181;"
   d="M3358.008,670.753L3358.008,670.753c12.448-5.947,17.766-20.997,11.819-33.444l-44.702-93.562    c-5.947-12.447-20.997-17.765-33.444-11.818v0c-12.447,5.947-17.765,20.997-11.819,33.444l44.702,93.562    C3330.511,671.381,3345.561,676.7,3358.008,670.753z"
   id="path217" />
		<polygon
   style="fill:#322A28;"
   points="3276.031,1097.566 3257.5,1100.833 3254.202,1089.08 3246.218,1102.823 3202.499,1110.532     3230.078,1075.188 3269.226,1067.629   "
   id="polygon217" />
		
			<line
   style="fill:none;stroke:#FFF1F0;stroke-width:1.4845;stroke-miterlimit:10;"
   x1="3242.43"
   y1="1080.798"
   x2="3224.94"
   y2="1083.825"
   id="line217" />
		<path
   style="fill:#332B27;"
   d="M3248.435,415.342c0,0-23.989-3.527-31.168,18.774l12.004,2.769c0,0,1.221-7.871,7.927-10.203    c0,0-5.367,5.211-4.954,11.332l13.776,3.917c0,0,2.148-8.399,2.002-11.897c0,0,1.988,8.388,1.259,13.052l9.384,4.482    c0,0-1.497,7.936,1.564,11.434c3.061,3.498,5.538,17.105,5.538,17.105s15.305-26.251,12.39-36.017    C3275.24,430.326,3269.728,414.496,3248.435,415.342z"
   id="path218" />
		
			<line
   style="fill:none;stroke:#FFF1F0;stroke-width:1.4845;stroke-miterlimit:10;"
   x1="3239.265"
   y1="1087.567"
   x2="3221.776"
   y2="1090.594"
   id="line218" />
		<polygon
   style="fill:#322A28;"
   points="3077.105,1063.807 3059.267,1057.815 3061.991,1045.915 3048.407,1054.167     3006.325,1040.029 3047.448,1022.177 3085.331,1034.663   "
   id="polygon218" />
		
			<line
   style="fill:none;stroke:#FFF1F0;stroke-width:1.4845;stroke-miterlimit:10;"
   x1="3055.614"
   y1="1033.012"
   x2="3038.806"
   y2="1027.306"
   id="line219" />
		
			<line
   style="fill:none;stroke:#FFF1F0;stroke-width:1.4845;stroke-miterlimit:10;"
   x1="3049.597"
   y1="1037.443"
   x2="3032.789"
   y2="1031.738"
   id="line220" />
		<path
   style="fill:#B37661;"
   d="M3260.574,465.966c-2.39,4.416-2.895,7.439,0.572,9.315c3.467,1.876,8.929,0.809,11.319-3.607    c2.39-4.416,1.517-9.517-1.95-11.393C3267.048,458.405,3262.964,461.55,3260.574,465.966z"
   id="path220" />
		
			<path
   style="fill:none;stroke:#724638;stroke-width:0.6236;stroke-linecap:round;stroke-linejoin:round;stroke-miterlimit:10;"
   d="    M3270.369,465.134c0,0-5.859-1.346-7.274,3.561c0,0,2.257-1.428,5.116-0.37"
   id="path221" />
		<path
   style="fill:#332B27;"
   d="M3239.956,455.248c-0.333,1.911-1.604,3.286-2.841,3.071c-1.236-0.215-1.969-1.939-1.637-3.85    c0.332-1.911,1.604-3.286,2.841-3.071C3239.555,451.613,3240.288,453.337,3239.956,455.248z"
   id="path222" />
		<path
   style="fill:#332B27;"
   d="M3223.884,450.924c-0.333,1.911-1.604,3.286-2.841,3.071c-1.236-0.215-1.969-1.939-1.637-3.85    c0.333-1.911,1.604-3.286,2.841-3.071C3223.484,447.289,3224.217,449.013,3223.884,450.924z"
   id="path223" />
		<path
   style="fill:#FFFFFF;"
   d="M3229.924,476.33c-2.393,0.376-4.638-1.26-5.014-3.653l8.667-1.36    C3233.953,473.71,3232.317,475.955,3229.924,476.33z"
   id="path224" />
		<path
   style="fill:none;stroke:#332B27;stroke-width:0.9259;stroke-miterlimit:10;"
   d="M3244.978,452.165    c0,0-3.008-5.431-7.78-4.486"
   id="path225" />
		<path
   style="fill:none;stroke:#332B27;stroke-width:0.9259;stroke-miterlimit:10;"
   d="M3224.638,444.615    c0,0-2.697-1.005-6.19,1.497"
   id="path226" />
		<path
   style="fill:none;stroke:#332B27;stroke-width:0.9259;stroke-miterlimit:10;"
   d="M3229.61,452.202    c0,0-1.867,9.432-7.626,9.624c0,0,1.488,1.917,3.588,2.964"
   id="path227" />
		<path
   style="fill:#A14C53;"
   d="M3235.06,465.117c0.137,1.901,3.106,3.236,6.631,2.981c3.525-0.255,6.271-2.003,6.133-3.905    c-0.138-1.902-3.106-3.236-6.631-2.981C3237.668,461.467,3234.922,463.215,3235.06,465.117z"
   id="path228" />
		<path
   style="fill:#A14C53;"
   d="M3214.958,461.762c2.012,0.442,3.751,0.1,4.379-1.06c0.819-1.513-0.525-3.83-3.062-5.534    C3215.75,457.744,3215.297,460.036,3214.958,461.762z"
   id="path229" />
		<path
   style="fill:#B37661;"
   d="M3177.028,642.1c6.02-13.867,0.93-29.561-11.311-34.874l-111.603-31.73    c-3.488-1.875-7.403-4.172-10.413-6.469c-6.998-5.339-27.715-17.602-29.458-14.605c-1.744,2.997,10.747,14.276,8.983,14.934    c-1.764,0.658-12.859-5.477-17.382-8.468c-4.523-2.991-13.185-10.964-16.164-9.878c-2.979,1.087-2.563,5.737-2.563,5.737    s-2.933-3.447-4.731-1.202c-1.799,2.246,1.469,8.727,1.469,8.727s-1.436-2.085-2.804,0.884    c-1.368,2.969,6.803,10.941,6.803,10.941s-2.105-0.903-2.835,1.491c-0.731,2.394,11.161,11.679,21.514,15.413    c9.242,3.334,32.083,8.816,36.882,9.955l100.411,54.695C3156.068,662.966,3171.007,655.967,3177.028,642.1z"
   id="path230" />
		
			<line
   style="fill:none;stroke:#332B27;stroke-width:1.2822;stroke-miterlimit:10;"
   x1="3305.483"
   y1="618.998"
   x2="3290.595"
   y2="587.837"
   id="line230" />
		<path
   style="fill:#088CFC;"
   d="M3298.039,957.486c-1.918,19.57-65.681,17.942-112.656-17.219    c-46.976-35.16-127.449-2.904-135.339-75.43c-7.89-72.525,151.103-55.856,155.133-48.948    c4.029,6.907,75.979,107.637,77.706,109.363s13.527,19.714,13.527,19.714L3298.039,957.486z"
   id="path231" />
		<path
   style="fill:none;stroke:#FFFFFF;stroke-width:1.056;stroke-miterlimit:10;"
   d="M3259.794,476.654    c-0.346,2.009,1.001,3.919,3.011,4.266c2.009,0.347,3.919-1.001,4.266-3.011c0.347-2.009-1.001-3.919-3.01-4.266    C3262.051,473.296,3260.141,474.644,3259.794,476.654z"
   id="path232" />
		<path
   style="fill:none;stroke:#332B27;stroke-width:1.2822;stroke-miterlimit:10;"
   d="M3195.583,611.53    c0,0-7.906-16.63-6.621-25.267c1.284-8.637,8.32-31.975,9.248-39.142"
   id="path233" />
		<path
   style="fill:#B37661;"
   d="M3421.819,556.623l5.333-11.117c0,0,8.439-10.229,11.074-14.265    c1.486-2.275,6.116-7.983,7.214-8.629c0.869-0.511,3.16-0.004,3.251,0.979c0.118,1.277-2.667,7.94-3.706,10.571    c-0.988,2.502-3.953,10.008-3.953,10.008s16.586-11.817,21.913-16.09c2.999-2.405,11.458-9.801,13.269-7.824    c1.38,1.506-6.433,10.038-9.079,12.984c-2.432,2.707-9.652,10.898-9.652,10.898s11.734-9.615,15.646-12.82    c2.846-2.332,10.455-10.351,12.543-8.195c2.067,2.135-6.001,9.489-8.419,12.244c-3.412,3.888-13.65,15.553-13.65,15.553    s12.504-9.78,16.671-13.041c2.306-1.804,8.479-8.071,10.294-5.922c1.848,2.189-5.191,7.697-7.286,9.821    c-3.588,3.64-14.353,14.559-14.353,14.559s9.229-6.822,12.305-9.096c1.315-0.972,5.323-3.749,6.237-2.431    c1.245,1.794-3.887,5.943-5.454,7.522l-12.949,13.044c-1.048,1.055-2.213,1.981-3.468,2.756l-22.645,15.053L3421.819,556.623z"
   id="path234" />
		<path
   style="fill:#B37661;"
   d="M3328.921,665.022c8.376,8.718,21.801,9.957,31.607,3.513l0,0l82.428-85.35l-21.138-26.563    l-94.737,71.221C3317.246,637.307,3319.457,655.187,3328.921,665.022z"
   id="path235" />
		<path
   style="fill:#B37661;"
   d="M3153.106,880.849c1.708,5.934,6.659,19.211,13.191,36.158    c22.327,57.717,63.779,158.21,63.779,158.21l39.147-7.556c0,0-8.325-69.073-14.643-120.301c-1.408-11.1-2.689-21.345-3.757-29.883    c-3.159-25.059-11.1-53.149-21.943-74.964c-14.13-28.389-33.17-46.106-52.979-32.53c-9.691,6.617-16.35,12.978-20.747,19.296    C3143.628,845.843,3147.642,861.98,3153.106,880.849z"
   id="path236" />
		<path
   style="fill:#B37661;"
   d="M3047.448,1022.196l37.823,12.423c0,0,27.62-79.19,44.568-128.241    c1.836-5.294,3.544-10.246,5.08-14.685c6.745-19.637,11.484-42.605,12.85-63.736c2.476-37.823-5.848-69.713-32.829-65.785    c-42.092,6.147-46.959,26.852-51.655,53.619c-0.128,0.811-0.299,1.75-0.427,2.817c-1.196,8.239-2.647,24.163-4.226,43.587    C3053.552,924.222,3047.448,1022.196,3047.448,1022.196z"
   id="path237" />
		<path
   style="fill:#824C3A;"
   d="M3153.106,880.849c1.708,5.934,6.659,19.211,13.191,36.158    c28.304-1.152,71.506,21.217,88.283,30.353c-1.408-11.1-2.689-21.345-3.757-29.883c-3.159-25.059-11.1-53.149-21.943-74.964    l-73.726-13.234C3143.628,845.843,3147.642,861.98,3153.106,880.849z"
   id="path238" />
		<path
   style="fill:#824C3A;"
   d="M3058.632,862.194c33.128-2.903,63.053,33.341,71.207,44.184c1.836-5.294,3.544-10.246,5.08-14.685    c6.745-19.637,11.484-42.605,12.85-63.736l-80.428-14.387c0,0-1.793,1.921-4.483,5.037    C3061.663,826.846,3060.212,842.77,3058.632,862.194z"
   id="path239" />
		<path
   style="fill:#2EC6FC;"
   d="M3201.022,688.002c0,0-108.833,63.117-130.823,93.927c-21.99,30.809-20.602,79.432-20.602,79.432    s16.861-23.024,65.786,9.21c48.926,32.233,86.234,51.385,136.939,58.789c50.706,7.404,45.717,28.126,45.717,28.126    s5.764-47.743-15.732-93.247c-21.497-45.503,34.739-102.456,38.378-129.797c3.64-27.341-14.473-46.44-14.473-46.44H3201.022z"
   id="path240" />
		<path
   style="fill:none;stroke:#FFFFFF;stroke-width:1.2822;stroke-miterlimit:10;"
   d="M3147.769,854.446    c0,0-6.484-40.86,9.633-73.669c16.117-32.809,59.531-60.438,68.331-84.037"
   id="path241" />
		<path
   style="fill:#FFFFFF;"
   d="M3232.086,706.813c0,1.828,1.482,3.31,3.31,3.31c1.828,0,3.31-1.482,3.31-3.31    c0-1.828-1.482-3.31-3.31-3.31C3233.568,703.503,3232.086,704.985,3232.086,706.813z"
   id="path242" />
		<path
   style="fill:#FFFFFF;"
   d="M3219.113,722.067c0,1.828,1.482,3.31,3.31,3.31s3.31-1.482,3.31-3.31    c0-1.828-1.482-3.31-3.31-3.31S3219.113,720.239,3219.113,722.067z"
   id="path243" />
		<path
   style="fill:#FFFFFF;"
   d="M3201.861,743.939c0,1.828,1.482,3.31,3.31,3.31c1.828,0,3.31-1.482,3.31-3.31    c0-1.828-1.482-3.31-3.31-3.31C3203.343,740.63,3201.861,742.111,3201.861,743.939z"
   id="path244" />
		<circle
   style="fill:#FFFFFF;"
   cx="3186.106"
   cy="765.152"
   r="3.31"
   id="circle244" />
		<path
   style="fill:#FFFFFF;"
   d="M3163.514,791.63c0,1.828,1.482,3.31,3.31,3.31s3.31-1.482,3.31-3.31c0-1.828-1.482-3.31-3.31-3.31    S3163.514,789.802,3163.514,791.63z"
   id="path245" />
		<path
   style="fill:#FFFFFF;"
   d="M3160.205,818.214c0,1.828,1.482,3.31,3.31,3.31s3.31-1.482,3.31-3.31    c0-1.828-1.482-3.31-3.31-3.31S3160.205,816.386,3160.205,818.214z"
   id="path246" />
		<circle
   style="fill:#FFFFFF;"
   cx="3163.514"
   cy="849.296"
   r="3.31"
   id="circle246" />
		<path
   style="fill:#FFFFFF;"
   d="M3166.824,875.773c0,1.828,1.482,3.31,3.31,3.31s3.31-1.482,3.31-3.31s-1.482-3.31-3.31-3.31    S3166.824,873.946,3166.824,875.773z"
   id="path247" />
	</g>
</g>
</svg>
