<?xml version="1.0" encoding="UTF-8" standalone="no"?>
<!-- Created with Inkscape (http://www.inkscape.org/) -->

<svg
   width="500.00003mm"
   height="499.99997mm"
   viewBox="0 0 500.00003 499.99997"
   version="1.1"
   id="svg1"
   xml:space="preserve"
   xmlns="http://www.w3.org/2000/svg"
   xmlns:svg="http://www.w3.org/2000/svg"><defs
     id="defs1"><linearGradient
       id="swatch296"><stop
         style="stop-color:#28170b;stop-opacity:1;"
         offset="0"
         id="stop296" /></linearGradient></defs><g
     id="layer4"
     style="display:inline"
     transform="translate(0,-75.000002)"><circle
       style="opacity:1;fill:#f9f9f9;fill-opacity:1;fill-rule:evenodd;stroke:#000000;stroke-width:0;stroke-linecap:round;stroke-miterlimit:32;stroke-dasharray:none"
       id="path293"
       cx="250"
       cy="325"
       r="250" /></g><g
     id="layer2"
     style="display:inline"
     transform="translate(0,-75.000002)"><g
       id="g288"
       transform="matrix(1.1479796,0,0,1.1450438,90.816158,74.628087)"><g
         id="g287"
         transform="matrix(0.88731325,0,0,0.88731325,-124.9366,169.60731)"><rect
           style="fill:#f5f4f9;fill-opacity:1;fill-rule:evenodd;stroke:#000000;stroke-width:0;stroke-linecap:round;stroke-miterlimit:32"
           id="rect3"
           width="67.216217"
           height="169.32437"
           x="149.81924"
           y="58.156052" /><rect
           style="fill:#e6eaff;fill-opacity:1;fill-rule:evenodd;stroke:#000000;stroke-width:0;stroke-linecap:round;stroke-miterlimit:32"
           id="rect4"
           width="67.808739"
           height="101.42094"
           x="217.11472"
           y="126.09999" /><rect
           style="fill:#f949c1;fill-opacity:1;fill-rule:evenodd;stroke:#000000;stroke-width:0;stroke-linecap:round;stroke-miterlimit:32"
           id="rect1"
           width="18.042765"
           height="17.530912"
           x="174.5"
           y="83.175865" /><rect
           style="fill:#f949c1;fill-opacity:1;fill-rule:evenodd;stroke:#000000;stroke-width:0;stroke-linecap:round;stroke-miterlimit:32"
           id="rect1-2"
           width="18.042765"
           height="17.530912"
           x="174.5"
           y="117.4771" /><rect
           style="fill:#6753b8;fill-opacity:1;fill-rule:evenodd;stroke:#000000;stroke-width:0;stroke-linecap:round;stroke-miterlimit:32"
           id="rect2"
           width="42.571129"
           height="16.251286"
           x="174.5"
           y="151.5" /><rect
           style="fill:#44388f;fill-opacity:1;fill-rule:evenodd;stroke:#000000;stroke-width:0;stroke-linecap:round;stroke-miterlimit:32"
           id="rect2-4"
           width="43.676651"
           height="16.251286"
           x="217.0748"
           y="151.5" /><rect
           style="fill:#44388f;fill-opacity:1;fill-rule:evenodd;stroke:#000000;stroke-width:0;stroke-linecap:round;stroke-miterlimit:32"
           id="rect2-4-7"
           width="43.676651"
           height="16.251286"
           x="217.0748"
           y="185.5" /><rect
           style="fill:#6753b8;fill-opacity:1;fill-rule:evenodd;stroke:#000000;stroke-width:0;stroke-linecap:round;stroke-miterlimit:32"
           id="rect2-6"
           width="42.656166"
           height="16.251286"
           x="174.5"
           y="185.5" /><path
           style="fill:#cad5ff;fill-opacity:1;fill-rule:evenodd;stroke:#000000;stroke-width:0;stroke-linecap:round;stroke-miterlimit:32"
           d="m 216.9567,58.148917 c 0.33492,68.213913 0.11164,67.990623 0.11164,67.990623 h 67.99063 z"
           id="path4" /></g><g
         id="g120-4"
         transform="matrix(2.1645713,0,0,1.965238,-683.99516,-236.40588)">
		
		
		
		
		<g
   id="g285"
   transform="matrix(1.1967182,0,0,1.1967182,-73.884704,-26.202933)"><g
     id="g111-6">
			<g
   id="g110-4">
				<path
   style="fill:#51cfff"
   d="m 348.675,180.152 c 0,8.424 0,16.848 0,25.271 0,3.861 6,3.867 6,0 0,-8.424 0,-16.848 0,-25.271 0,-3.861 -6,-3.867 -6,0 z"
   id="path109-3" />
			</g>
		</g><g
     id="g113-8"
     style="fill:#51cfff;fill-opacity:1">
			<g
   id="g112-4"
   style="fill:#51cfff;fill-opacity:1">
				<path
   style="fill:#51cfff;fill-opacity:1"
   d="m 340.491,198.482 c 3.021,3.021 6.042,6.042 9.062,9.062 2.734,2.734 6.978,-1.508 4.243,-4.243 -3.021,-3.021 -6.042,-6.042 -9.062,-9.062 -2.734,-2.733 -6.978,1.508 -4.243,4.243 z"
   id="path111-0" />
			</g>
		</g><g
     id="g115-0"
     style="fill:#51cfff;fill-opacity:1">
			<g
   id="g114-9"
   style="fill:#51cfff;fill-opacity:1">
				<path
   style="fill:#51cfff;fill-opacity:1"
   d="m 358.616,194.24 c -3.021,3.021 -6.042,6.042 -9.062,9.062 -2.734,2.734 1.508,6.978 4.243,4.243 3.021,-3.021 6.042,-6.042 9.062,-9.062 2.733,-2.734 -1.508,-6.978 -4.243,-4.243 z"
   id="path113-3" />
			</g>
		</g><g
     id="g117-7"
     style="fill:#51cfff;fill-opacity:1">
			<g
   id="g116-5"
   style="fill:#51cfff;fill-opacity:1">
				<path
   style="fill:#51cfff;fill-opacity:1"
   d="m 362.918,165.908 c -7.744,0 -14.244,6.499 -14.244,14.244 0,3.861 6,3.867 6,0 0,-4.504 3.74,-8.244 8.244,-8.244 3.861,0 3.867,-6 0,-6 z"
   id="path115-7" />
			</g>
		</g><g
     id="g119-2"
     style="fill:#51cfff;fill-opacity:1">
			<g
   id="g118-9"
   style="fill:#51cfff;fill-opacity:1">
				<path
   style="fill:#51cfff;fill-opacity:1"
   d="m 375.314,165.908 c -4.132,0 -8.264,0 -12.396,0 -3.861,0 -3.867,6 0,6 4.132,0 8.264,0 12.396,0 3.861,0 3.868,-6 0,-6 z"
   id="path117-7" />
			</g>
		</g></g>
	</g><g
         id="g286-5"
         transform="matrix(0.36092397,0,0,0.31713652,120.62801,65.824472)"
         style="display:inline"><path
           style="fill:#cad5ff;fill-opacity:1"
           d="m 412,232.87 h -41.412 c 0,68.831 -55.995,124.826 -124.826,124.826 -68.831,0 -124.831,-55.996 -124.831,-124.826 H 79.52 c 0,84.649 63.614,154.672 145.536,164.901 v 93.749 h 41.412 V 397.771 C 348.39,387.541 412,317.518 412,232.87 Z"
           id="path1-5-5" /><path
           style="fill:#44388f;fill-opacity:1"
           d="m 245.763,0 h -0.003 v 311.108 h 0.003 c 43.14,0 78.238,-35.098 78.238,-78.238 V 78.238 C 324.001,35.098 288.903,0 245.763,0 Z"
           id="path2-3-4" /><path
           style="fill:#6753b8;fill-opacity:1"
           d="M 167.519,78.238 V 232.87 c 0,43.139 35.097,78.237 78.241,78.238 V 0 c -43.144,0.001 -78.241,35.099 -78.241,78.238 z"
           id="path3-2" /></g><g
         id="g87-5"
         style="display:inline;fill:#51cfff;fill-opacity:1"
         transform="matrix(2.3518913,0,0,2.5903865,-817.57202,-196.08141)">
		<g
   id="g78-8"
   style="fill:#51cfff;fill-opacity:1">
			<g
   id="g77-6"
   style="fill:#51cfff;fill-opacity:1">
				<path
   style="fill:#51cfff;fill-opacity:1"
   d="m 437.718,191.455 c -8.424,0 -16.848,0 -25.271,0 -3.861,0 -3.867,6 0,6 8.424,0 16.848,0 25.271,0 3.861,0 3.867,-6 0,-6 z"
   id="path76-2" />
			</g>
		</g>
		<g
   id="g80-5"
   style="fill:#51cfff;fill-opacity:1">
			<g
   id="g79-1"
   style="fill:#51cfff;fill-opacity:1">
				<path
   style="fill:#51cfff;fill-opacity:1"
   d="m 423.631,201.396 c -3.021,-3.021 -6.042,-6.042 -9.062,-9.062 -2.734,-2.734 -6.978,1.508 -4.243,4.243 3.021,3.021 6.042,6.042 9.062,9.062 2.734,2.733 6.978,-1.508 4.243,-4.243 z"
   id="path78-3" />
			</g>
		</g>
		<g
   id="g82-9"
   style="fill:#51cfff;fill-opacity:1">
			<g
   id="g81-7"
   style="fill:#51cfff;fill-opacity:1">
				<path
   style="fill:#51cfff;fill-opacity:1"
   d="m 419.388,183.271 c -3.021,3.021 -6.042,6.042 -9.062,9.062 -2.734,2.734 1.508,6.978 4.243,4.243 3.021,-3.021 6.042,-6.042 9.062,-9.062 2.733,-2.734 -1.508,-6.978 -4.243,-4.243 z"
   id="path80-3" />
			</g>
		</g>
		<g
   id="g84-7"
   style="fill:#51cfff;fill-opacity:1">
			<g
   id="g83-5"
   style="fill:#51cfff;fill-opacity:1">
				<path
   style="fill:#51cfff;fill-opacity:1"
   d="m 445.962,183.211 c 0,4.504 -3.74,8.244 -8.244,8.244 -3.861,0 -3.867,6 0,6 7.744,0 14.244,-6.499 14.244,-14.244 0,-3.861 -6,-3.867 -6,0 z"
   id="path82-0" />
			</g>
		</g>
		<g
   id="g86-2"
   style="fill:#51cfff;fill-opacity:1">
			<g
   id="g85-1"
   style="fill:#51cfff;fill-opacity:1">
				<path
   style="fill:#51cfff;fill-opacity:1"
   d="m 445.962,170.815 c 0,4.132 0,8.264 0,12.396 0,3.861 6,3.867 6,0 0,-4.132 0,-8.264 0,-12.396 0,-3.861 -6,-3.867 -6,0 z"
   id="path84-8" />
			</g>
		</g>
	</g></g></g></svg>
