<?xml version="1.0" encoding="UTF-8" standalone="no"?>
<!-- Created with Inkscape (http://www.inkscape.org/) -->

<svg
   width="125.48827mm"
   height="115.91733mm"
   viewBox="0 0 125.48827 115.91733"
   version="1.1"
   id="svg1"
   xmlns="http://www.w3.org/2000/svg"
   xmlns:svg="http://www.w3.org/2000/svg">
  <defs
     id="defs1" />
  <g
     id="layer1"
     transform="translate(-47.963945,-67.840528)">
    <path
       d="M 110.35143,172.66387 A 49.551431,49.551431 0 0 0 159.90392,123.11164 49.55196,49.55196 0 0 0 110.35143,73.559422 49.553018,49.553018 0 0 0 60.799214,123.11164 49.552754,49.552754 0 0 0 110.35143,172.66387 Z"
       fill="#ffd21e"
       id="path1"
       style="stroke-width:0.264583" />
    <path
       d="M 159.90392,123.11164 A 49.55196,49.55196 0 0 0 110.35143,73.559422 49.55196,49.55196 0 0 0 60.799214,123.11164 49.55196,49.55196 0 0 0 145.3902,158.15041 49.552224,49.552224 0 0 0 159.90392,123.11164 Z m -104.808594,0 a 55.256244,55.256244 0 1 1 110.512484,0 55.256244,55.256244 0 0 1 -110.512484,0 z"
       fill="#ff9d0b"
       id="path2"
       style="stroke-width:0.264583" />
    <path
       d="m 126.4508,109.63641 c 1.8251,0.62733 2.53815,4.36325 4.37753,3.39382 a 7.1294624,7.1294624 0 0 0 2.18017,-10.80585 7.1310499,7.1310499 0 0 0 -7.57555,-2.319597 7.1284041,7.1284041 0 0 0 -5.04164,6.111607 7.1286687,7.1286687 0 0 0 0.79746,4.06188 c 0.86995,1.63989 3.63643,-1.02658 5.27605,-0.45614 z m -33.581706,0 c -1.8251,0.62733 -2.55243,4.36325 -4.37753,3.39382 a 7.1294624,7.1294624 0 0 1 -2.18017,-10.80585 7.1310499,7.1310499 0 0 1 7.57555,-2.319597 7.1289332,7.1289332 0 0 1 4.24418,10.173487 c -0.86995,1.63989 -3.65045,-1.02658 -5.27605,-0.45614 z"
       fill="#3a3b45"
       id="path3"
       style="stroke-width:0.264583" />
    <path
       d="m 109.99504,143.84519 c 14.01736,0 18.5375,-12.49151 18.5375,-18.90819 0,-3.33692 -2.23864,-2.28176 -5.83221,-0.51355 -3.32237,1.63989 -7.78563,3.90736 -12.691,3.90736 -10.252606,0 -18.537496,-9.81075 -18.537496,-3.39381 0,6.41668 4.50611,18.90819 18.537496,18.90819 z"
       fill="#ff323d"
       id="path4"
       style="stroke-width:0.264583" />
    <path
       fill-rule="evenodd"
       clip-rule="evenodd"
       d="m 99.257464,140.5797 a 12.407635,12.407635 0 0 1 7.557816,-6.40265 c 0.57018,-0.17092 1.1549,0.8128 1.76794,1.82536 0.57045,0.9697 1.16946,1.95368 1.76821,1.95368 0.64188,0 1.2835,-0.9697 1.89654,-1.92511 0.64188,-0.99827 1.2692,-1.96797 1.88251,-1.78249 a 12.27746,12.27746 0 0 1 7.12972,5.94624 c 5.31892,-4.19232 7.27234,-11.03709 7.27234,-15.25773 0,-3.33692 -2.23864,-2.28176 -5.83221,-0.51355 l -0.19949,0.10001 c -3.29407,1.63989 -7.68615,3.80735 -12.5058,3.80735 -4.81965,0 -9.19745,-2.16746 -12.505796,-3.80735 -3.70734,-1.83965 -6.0317,-2.99455 -6.0317,0.41354 0,4.34922 2.082,11.49324 7.79992,15.6427 z"
       fill="#3a3b45"
       id="path5"
       style="stroke-width:0.264583" />
    <path
       d="m 143.86171,116.33831 a 4.634177,4.634177 0 1 0 5.3e-4,-9.26835 4.634177,4.634177 0 0 0 -5.3e-4,9.26835 z m -66.307226,0 a 4.634177,4.634177 0 1 0 0,-9.26835 4.634177,4.634177 0 0 0 0,9.26835 z m -9.53982,15.68556 c -2.31008,0 -4.36351,0.94112 -5.80363,2.66673 a 8.5124395,8.5124395 0 0 0 -1.89654,5.36152 10.126927,10.126927 0 0 0 -2.76648,-0.42783 c -2.210065,0 -4.206611,0.84137 -5.618163,2.36723 a 8.2700811,8.2700811 0 0 0 -1.140883,9.98167 7.5580874,7.5580874 0 0 0 -2.552435,4.02113 8.3375499,8.3375499 0 0 0 1.140883,6.75905 7.4443166,7.4443166 0 0 0 -0.527844,7.15857 c 1.454679,3.30808 5.090584,5.90338 12.149402,8.69817 4.37753,1.7399 8.39893,2.85195 8.42724,2.86624 a 63.214249,63.214249 0 0 0 15.58581,2.2815 c 8.35634,0 14.33116,-2.56673 17.767566,-7.61445 5.5327,-8.11371 4.74848,-15.54321 -2.42411,-22.70151 -3.949966,-3.96425 -6.587856,-9.7962 -7.129726,-11.07969 -1.11231,-3.79307 -4.04971,-8.01397 -8.91223,-8.01397 a 8.1269416,8.1269416 0 0 0 -6.55955,3.50785 c -1.42584,-1.79652 -2.82336,-3.20834 -4.07828,-4.02114 a 10.552906,10.552906 0 0 0 -5.66103,-1.81107 z m 0,5.70389 c 0.72734,0 1.6256,0.31379 2.5953,0.92683 3.05144,1.9394 8.91222,12.02108 11.0654,15.94247 0.71306,1.3118 1.95369,1.86796 3.05171,1.86796 2.21006,0 3.92139,-2.18176 0.21378,-4.96226 -5.58985,-4.1783 -3.63617,-11.00852 -0.9697,-11.42206 0.11404,-0.0286 0.24236,-0.0286 0.34237,-0.0286 2.42412,0 3.49356,4.17804 3.49356,4.17804 0,0 3.13717,7.87135 8.52726,13.26144 5.375796,5.37607 5.661016,9.69672 1.73963,15.4432 -2.68075,3.92139 -7.79991,5.10514 -13.06195,5.10514 -5.43269,0 -11.02254,-1.2835 -14.14541,-2.08201 -0.1569,-0.0429 -19.179386,-5.41867 -16.769296,-9.98167 0.399256,-0.7702 1.069446,-1.08373 1.910821,-1.08373 3.393545,0 9.554105,5.04772 12.220315,5.04772 0.58472,0 0.99827,-0.24236 1.18374,-0.8554 1.12633,-4.064 -17.197122,-5.77533 -15.657247,-11.65013 0.285221,-1.04114 1.012561,-1.45468 2.053431,-1.45468 4.477546,0 14.544936,7.88564 16.655526,7.88564 0.15663,0 0.28495,-0.0426 0.3421,-0.14261 1.05516,-1.71106 0.47043,-2.90883 -6.98738,-7.41495 -7.42924,-4.50612 -12.662429,-7.21545 -9.69645,-10.45236 0.342106,-0.37069 0.827088,-0.54187 1.4261,-0.54187 4.52015,0 15.20058,9.72502 15.20058,9.72502 0,0 2.88052,2.99456 4.63444,2.99456 0.39926,0 0.74137,-0.14261 0.9697,-0.54187 1.22634,-2.08174 -11.4935,-11.7213 -12.20629,-15.69984 -0.48498,-2.70934 0.34211,-4.064 1.86796,-4.064 z"
       fill="#ff9d0b"
       id="path6"
       style="display:inline;stroke-width:0.264583" />
    <path
       d="m 98.073974,172.9348 c 3.921386,-5.76077 3.636166,-10.08142 -1.73963,-15.45749 -5.39009,-5.3758 -8.52726,-13.26144 -8.52726,-13.26144 0,0 -1.16919,-4.56301 -3.83593,-4.13517 -2.66647,0.42783 -4.62015,7.24376 0.9697,11.42179 5.57557,4.1783 -1.11231,7.01596 -3.26549,3.09457 -2.13889,-3.92139 -8.01396,-14.00307 -11.0654,-15.94247 -3.03742,-1.92511 -5.17631,-0.8554 -4.46352,3.13717 0.71332,3.97854 13.44718,13.6181 12.20655,15.68555 -1.24063,2.0963 -5.60414,-2.4384 -5.60414,-2.4384 0,0 -13.64641,-12.42007 -16.62668,-9.18315 -2.965979,3.23691 2.26721,5.94624 9.69645,10.45236 7.45781,4.50612 8.04254,5.70389 6.98738,7.41495 -1.06944,1.71132 -17.510917,-12.16343 -19.051057,-6.27407 -1.539875,5.86052 16.783577,7.55756 15.657247,11.62156 -1.14088,4.064 -12.919339,-7.67186 -15.314876,-3.10859 -2.424112,4.57729 16.612396,9.9531 16.769296,9.99596 6.13171,1.59703 21.74583,4.97655 27.20736,-3.02313 z"
       fill="#ffd21e"
       id="path7"
       style="stroke-width:0.264583" />
    <path
       d="m 153.40152,132.02387 c 2.31008,0 4.37753,0.94112 5.80364,2.66673 a 8.5124395,8.5124395 0 0 1 1.89653,5.36152 10.126133,10.126133 0 0 1 2.78051,-0.42783 c 2.21033,0 4.20661,0.84137 5.61843,2.36723 a 8.2700811,8.2700811 0 0 1 1.14061,9.98167 7.5575582,7.5575582 0 0 1 2.53842,4.02113 8.3378145,8.3378145 0 0 1 -1.14089,6.75905 7.4459041,7.4459041 0 0 1 0.52758,7.15857 c -1.45441,3.30808 -5.09058,5.90338 -12.13485,8.69817 -4.39208,1.7399 -8.41322,2.85195 -8.44179,2.86624 a 63.212662,63.212662 0 0 1 -15.58581,2.2815 c -8.35607,0 -14.3309,-2.56673 -17.76757,-7.61445 -5.5327,-8.11397 -4.74848,-15.54321 2.42411,-22.70151 3.96426,-3.96425 6.60242,-9.79646 7.14428,-11.07969 1.11205,-3.79307 4.03543,-8.01397 8.89794,-8.01397 a 8.1269416,8.1269416 0 0 1 6.55955,3.50785 c 1.42584,-1.79679 2.82337,-3.20834 4.09231,-4.02114 a 10.5537,10.5537 0 0 1 5.647,-1.81107 z m 0,5.70389 c -0.72734,0 -1.61131,0.31379 -2.59529,0.92683 -3.03742,1.9394 -8.91223,12.02108 -11.06541,15.94247 a 3.4676291,3.4676291 0 0 1 -3.0517,1.86796 c -2.19604,0 -3.92139,-2.18176 -0.1995,-4.96253 5.5753,-4.17803 3.62188,-11.00825 0.95515,-11.42179 a 2.1783146,2.1783146 0 0 0 -0.34211,-0.0286 c -2.42411,0 -3.49356,4.17804 -3.49356,4.17804 0,0 -3.13716,7.87135 -8.51297,13.26144 -5.39035,5.37607 -5.67531,9.69672 -1.7399,15.4432 2.66674,3.92139 7.80019,5.10514 13.04767,5.10514 5.44724,0 11.0228,-1.2835 14.15997,-2.08201 0.14261,-0.0429 19.17911,-5.41867 16.76929,-9.98167 -0.41355,-0.7702 -1.06945,-1.08373 -1.91082,-1.08373 -3.39381,0 -9.56813,5.04772 -12.22058,5.04772 -0.59875,0 -1.01229,-0.24236 -1.18348,-0.8554 -1.14088,-4.064 17.18284,-5.77533 15.6427,-11.65013 -0.27094,-1.04114 -0.99801,-1.45468 -2.05317,-1.45468 -4.47754,0 -14.54494,7.88564 -16.65526,7.88564 -0.14261,0 -0.27093,-0.0426 -0.32808,-0.14261 -1.05516,-1.71106 -0.48472,-2.90883 6.95881,-7.41495 7.45781,-4.50612 12.691,-7.21545 9.69645,-10.45236 -0.32809,-0.37069 -0.8128,-0.54187 -1.39753,-0.54187 -4.53443,0 -15.21487,9.72502 -15.21487,9.72502 0,0 -2.88052,2.99456 -4.62015,2.99456 a 1.0556875,1.0556875 0 0 1 -0.9697,-0.54187 c -1.24063,-2.08174 11.47895,-11.7213 12.192,-15.69984 0.48472,-2.70934 -0.34237,-4.064 -1.86796,-4.064 z"
       fill="#ff9d0b"
       id="path8"
       style="stroke-width:0.264583" />
    <path
       d="m 123.35623,172.9348 c -3.92139,-5.76077 -3.65045,-10.08142 1.7399,-15.45749 5.37581,-5.3758 8.51297,-13.26144 8.51297,-13.26144 0,0 1.1692,-4.56301 3.84995,-4.13517 2.65245,0.42783 4.60587,7.24376 -0.96943,11.42179 -5.58985,4.1783 1.11205,7.01596 3.25094,3.09457 2.15344,-3.92139 8.02825,-14.00307 11.06567,-15.94247 3.03715,-1.92511 5.19033,-0.8554 4.46325,3.13717 -0.71305,3.97854 -13.43263,13.6181 -12.192,15.68555 1.22635,2.0963 5.58985,-2.4384 5.58985,-2.4384 0,0 13.66071,-12.42007 16.62668,-9.18315 2.96598,3.23691 -2.25292,5.94624 -9.69671,10.45236 -7.45755,4.50612 -8.02799,5.70389 -6.98712,7.41495 1.06945,1.71132 17.51092,-12.16343 19.0508,-6.27407 1.54014,5.86052 -16.76929,7.55756 -15.6427,11.62156 1.14062,4.064 12.90505,-7.67186 15.31488,-3.10859 2.40982,4.57729 -16.61266,9.9531 -16.76929,9.99596 -6.14601,1.59703 -21.76039,4.97655 -27.20764,-3.02313 z"
       fill="#ffd21e"
       id="path9"
       style="stroke-width:0.264583" />
  </g>
</svg>
