<?xml version="1.0"?><svg viewBox="0 0 128 128" xmlns="http://www.w3.org/2000/svg"><title/><g data-name="Vinyl" id="5a13b58d-b41d-43d4-80ee-645afc34553e"><path d="M112,64a48,48,0,0,1-96,0c0-.33,0-.67,0-1a48,48,0,0,1,96,0C112,63.33,112,63.67,112,64Z" fill="#383e4a"/><path d="M112,64a48,48,0,0,1-96,0c0-.33,0-.67,0-1h96C112,63.33,112,63.67,112,64Z" fill="#323a4a"/><circle cx="64" cy="64" fill="none" r="41" stroke="#4d5566" stroke-miterlimit="10" stroke-width="0.5"/><circle cx="64" cy="64" fill="none" r="38.44" stroke="#4d5566" stroke-miterlimit="10" stroke-width="0.5"/><circle cx="64" cy="64" fill="none" r="35.5" stroke="#4d5566" stroke-miterlimit="10" stroke-width="0.5"/><circle cx="64" cy="64" fill="none" r="32.5" stroke="#4d5566" stroke-miterlimit="10" stroke-width="0.5"/><circle cx="64" cy="64" fill="none" r="29.5" stroke="#4d5566" stroke-miterlimit="10" stroke-width="0.5"/><circle cx="64" cy="64" fill="#fe5959" r="12.5"/><path d="M64,53A11,11,0,0,0,53,64h7a4,4,0,0,1,8,0h7A11,11,0,0,0,64,53Z" fill="#d10f0f"/><circle cx="64" cy="64" fill="#c24444" r="3"/><path d="M60,69h8a4,4,0,0,1-8,0Z" fill="#fff"/></g></svg>