<?xml version="1.0" encoding="utf-8"?>
<!-- Generator: Adobe Illustrator 27.5.0, SVG Export Plug-In . SVG Version: 6.00 Build 0)  -->
<svg version="1.1" id="Слой_1" xmlns="http://www.w3.org/2000/svg" xmlns:xlink="http://www.w3.org/1999/xlink" x="0px" y="0px"
	 viewBox="0 0 3200 2000" style="enable-background:new 0 0 3200 2000;" xml:space="preserve">
<g>
	<path style="fill:#FFFFFF;" d="M1153.333,466.146c4.298-0.136,8.758-0.674,13.337-1.688c8.726-1.946,20.705-9.119,26.475-15.966
		c0.623-0.73,1.216-1.467,1.809-2.205c35.548-45.336-2.358-106.935-59.522-94.842c-7.47,1.594-17.073,6.828-23.656,12.621
		c-1.506,1.364-2.886,2.728-3.977,4.068c-5.214,6.258-8.991,12.84-11.475,19.553
		C1082.206,425.948,1110.348,467.283,1153.333,466.146z"/>
	<path style="fill:#FFFFFF;" d="M2426.42,1699.496c-0.02,0.018-0.039,0.035-0.057,0.051h17.521
		c-0.095-0.018-0.193-0.033-0.286-0.051H2426.42z"/>
	<path style="fill:#FFFFFF;" d="M632.501,1699.496c-0.005,0.018-0.009,0.034-0.014,0.051h129.967
		c-0.013-0.017-0.025-0.034-0.037-0.051H632.501z"/>
	<path style="fill:#FFFFFF;" d="M1930.595,1699.496H1389.33H847.163c0.007,0.017,0.014,0.034,0.021,0.051h1476.129
		c-0.009-0.017-0.016-0.034-0.024-0.051H1930.595z"/>
	<path style="fill:#FFFFFF;" d="M2369.261,1699.496c-0.02,0.018-0.039,0.035-0.057,0.051h11.269
		c-0.009-0.017-0.016-0.034-0.023-0.051H2369.261z"/>
	<path style="fill:#FFFFFF;" d="M0,0v2000h3200V0H0z M1014.458,414.195l1.167-0.374l23.296-7.213
		c2.497-0.771,4.209-2.969,4.382-5.58l0.007-0.029c0.41-6.247,1.37-12.548,2.933-18.858c0.833-3.362,1.83-6.622,2.945-9.852
		c0.805-2.232,0.25-4.708-1.42-6.385l-16.993-16.968c-2.333-2.315-2.482-6.048-0.383-8.529l17.043-20.227
		c0.489-0.574,1.076-1.028,1.67-1.387c1.983-1.12,4.534-1.088,6.515,0.224l14.969,10.087c1.847,1.215,4.212,1.358,6.15,0.418
		c0.505-0.254,0.995-0.575,1.441-0.97c10.612-9.69,23.036-17.132,36.582-21.959c2.311-0.786,3.853-2.931,4.033-5.318
		c0.021-0.342,0.013-0.691-0.025-1.048l-2.286-21.508c-0.334-3.115,1.734-5.982,4.811-6.673l0.602-0.135l25.308-5.515
		c3.196-0.662,6.338,1.19,7.305,4.304l8.292,26.848c0.711,2.229,2.611,3.869,4.917,4.25c2.946,0.477,5.892,1.08,8.838,1.81
		c5.476,1.356,10.737,3.069,15.739,5.193c2.345,0.991,5.028,0.487,6.801-1.316l20.775-20.757c2.196-2.235,5.772-2.393,8.201-0.338
		l20.548,17.28c2.324,1.965,2.786,5.333,1.118,7.858l-15.067,22.453c-1.512,2.153-1.379,5.06,0.306,7.183
		c7.099,8.96,12.751,19.045,16.738,29.856c0.965,2.608,3.654,4.253,6.412,3.957l16.355-1.762c3.108-0.304,6.013,1.742,6.704,4.818
		l5.613,26.059c0.12,0.535,0.181,1.055,0.145,1.583c-0.083,2.506-1.781,4.771-4.271,5.512l-20.049,6.217l-4.89,1.506
		c-0.502,4.961-1.368,9.99-2.599,14.96c-1.658,6.696-3.912,13.119-6.665,19.134c-1.043,2.3-0.606,4.998,1.197,6.771l16.739,16.717
		c2.273,2.3,2.445,5.943,0.353,8.394l-13.208,15.712l-3.797,4.492c-2.062,2.459-5.667,2.988-8.318,1.194l-18.775-12.577
		c-2.16-1.482-5.015-1.431-7.049,0.15c-6.169,4.631-12.809,8.609-19.791,11.808c-0.587,0.328-1.151,0.567-1.753,0.829
		c-0.208,0.075-0.394,0.187-0.579,0.299c-2.162,1.202-3.354,3.592-3.08,6.06l2.803,26.563c0.053,0.297,0.039,0.609,0.032,0.892
		c-0.113,2.752-2.1,5.166-4.843,5.781l-25.969,5.635c-3.137,0.676-6.256-1.139-7.23-4.222l-8.637-28.008
		c-0.705-2.386-2.82-4.046-5.296-4.249c-5.437-0.494-10.927-1.411-16.433-2.774c-2.917-0.722-5.774-1.556-8.572-2.502
		c-2.277-0.753-4.789-0.175-6.474,1.524l-19.974,19.944c-2.188,2.206-5.735,2.37-8.142,0.353l-20.302-17.125
		c-2.459-2.062-2.995-5.638-1.186-8.349l11.917-17.769c1.601-2.383,1.363-5.506-0.545-7.621
		c-7.596-8.23-13.833-17.608-18.556-27.748c-1.077-2.414-3.623-3.866-6.284-3.577l-23.939,2.537
		c-3.211,0.342-6.154-1.808-6.86-4.952l-5.628-25.873C1009.612,418.206,1011.456,415.093,1014.458,414.195z M3053,1705.906
		c0,2.072-1.695,3.769-3.768,3.769h-2888.9c-2.072,0-3.768-1.696-3.768-3.769v-2.592c0-2.072,1.695-3.768,3.768-3.768h434.706
		c-0.029-0.017-0.058-0.034-0.086-0.051h-320.79c0,0-186.879-388.844-21.62-799.589
		c107.719-267.732,463.989-354.349,741.164-309.679c91.134,14.687,202.337,52.073,326.306,19.226v-14.694
		c0-38.222,31.096-69.316,69.317-69.316h91.313c22.086-17.77,44.438-38.517,67.025-62.685
		c262.513-280.89,1013.103-280.363,1135.533,175.571c54.813,4.83,106.913,28.466,112.061,113.161
		c3.454,56.852-23.584,93.952-100.016,100.618c-4.367,35.972-11.689,73.756-22.242,113.403
		c-99.411,373.498,379.996,313.639,300.064,733.985h-516.091c-0.108,0.018-0.22,0.034-0.331,0.051h592.586
		c2.072,0,3.768,1.695,3.768,3.768V1705.906z"/>
	<path style="fill:#EBF3FA;" d="M2211.35,1022.604c0.043,0.326,0.083,0.628,0.119,0.899c0.038-0.04,0.076-0.082,0.113-0.122
		L2211.35,1022.604z"/>
	<path style="fill:#EBF3FA;" d="M2369.261,1699.496h11.188c-0.197-0.408-0.306-0.896-0.324-1.459
		c-0.767-0.159-1.561-0.303-2.414-0.414C2372.684,1696.963,2370.103,1698.747,2369.261,1699.496z"/>
	<path style="fill:#EBF3FA;" d="M585.281,1682.802c-1.808-11.927-15.175-18.43-18.068-28.187
		c-2.886-9.751,11.927-23.479,11.927-23.479l2.478-3.194l0.001-0.002c-1.229-1.207-2.112-2.385-2.48-3.49
		c0,0,19.896-179.959,54.737-223.827c7.054-8.881,14.548-24.129,21.313-41.238l-7.593-1.082c-1.934,0.153-3.914,0.101-5.914-0.188
		l-113.504-16.18c-14.854-2.116-25.274-15.999-23.158-30.853l7.099-49.851c2.123-14.854,16.005-25.273,30.859-23.157l39.082,5.571
		l1.514-10.635c0.696-4.915,5.271-8.337,10.179-7.641l4.286,0.609l2.87,0.409c0.481-1.771,0.674-3.936,0.333-6.78
		c-1.502-12.561-1.476-13.666,5.528-19.324c-3.391-1.546-5.528-3.106-5.528-3.106s5.102-76.178,19.801-110.155
		c5.668-13.102,43.287-77.258,69.842-122.093c4.137-14.868,9.525-27.474,16.161-36.932c-0.039-0.02-0.067-0.033-0.067-0.033
		s0.078-0.06,0.191-0.148c3.253-4.606,6.806-8.448,10.655-11.438c5.664-7.626,11.971-19.059,14.76-34.429
		c-2.418-3.107-4.145-6.934-4.854-11.649c-0.185-1.231-0.378-2.443-0.576-3.64c-12.368-13.129-14.904-48.76-8.463-61.716
		c6.534-13.142,19.454-14.343,39.455-15.554c9.08-0.55,25.074-8.869,40.761,3.839c15.687,12.707,2.137,31.239,2.137,31.239
		c3.489-1.396,5.799-5.785,5.799-5.785s-0.429,12.292-8.55,15.863c-1.987,0.873-3.914,1.167-5.945,1.127
		c2.448,19.04,1.96,55.564-8.751,58.028c0,0-3.818,0.633-9.458,0.903c-0.02,1.141-0.208,8.643-1.839,21.065
		c-0.469,3.556-1.051,7.521-1.788,11.853c2.251,1.236,4.335,2.543,6.251,3.859c0.894-0.14,1.785-0.293,2.671-0.472l10.681,9.442
		c13.007,12.077,27.252,28.492,33.445,53.418c1.958,7.883,3.615,18.123,5.013,29.91c14.084,21.62,27.78,40.9,36.164,48.317
		l85.23-63.544c0,0,0.814,0.251,2.111,0.829c0.056-0.157,0.105-0.306,0.163-0.465c0,0,2.351-3.021,0.911-6.817
		c-1.44-3.791-1.152-9.65,1.306-13.227c2.458-3.569,4.828-12.369,6.308-12.107c3.583,0.616-1.761,12.711-0.228,14.954
		c1.386,2.029,3.121,1.332,3.442,1.178c0.02-0.013,0.04-0.02,0.06-0.033c0.296-0.13,0.595-0.28,0.895-0.443l24.9-35.431
		c0.625-0.889,1.864-1.105,2.753-0.48l12.592,8.849c0,0.001,0,0.001,0.001,0.001l6.316,4.439c0.677,0.476,0.841,1.418,0.366,2.096
		l-32.799,46.67c-0.476,0.677-1.419,0.842-2.096,0.366l-2.685-1.887c-3.616,1.679-6.18,3.609-7.837,5.124
		c0.465,0.82,0.904,1.681,1.302,2.593c0,0-51.756,105.447-102.715,109.917c-9.567,0.839-19.86-3.093-30.267-10.032
		c0.2,7.302,0.347,14.525,0.412,21.588v0.616c0.149,1.703,0.149,3.564,0.149,5.269c0.624,44.126,0,79.116-0.773,79.739
		c-0.931,0.773-2.011,1.239-3.249,1.239c-0.197-0.003-0.417,0.001-0.627,0.002c-1.258,15.737-4.92,61.661-9.085,114.804
		c-7.013,89.433-15.446,199.287-16.28,220.098c-1.442,36.138-7.229,93.942-7.229,93.942s-1.305,1.302-3.903,2.934
		c0,0.001,0,0.003,0.001,0.004c5.003,16.562,27.444,24.089,40.402,26.185c8.184,1.327,11.35,5.494,12.581,8.531h542.167
		c-38.222,0-69.317-31.096-69.317-69.316v-115.11c-11.804,36.005-43.202,77.097-69.418,99.323
		c-38.882,32.964-36.527,7.146-37.914-28.119c-1.387-35.265,38.129-75.868,41.352-94.496c3.223-18.628-18.845-5.021-37.379,22.751
		s-2.618,61.416-31.783,106.886c-29.165,45.471-134.037,15.269-134.037,15.269c31.986-22.101,56.967-87.128,48.474-97.046
		s-68.342,68.438-80.848,78.155c-12.506,9.717-53.28,11.903-91.358-39.129c-38.078-51.032,41.05-120.772,41.05-120.772
		s128.086,10.984,142.747-3.552c14.66-14.537-107.677-30.775-107.677-30.775c21.479-33.599,122.195-83.146,122.195-83.146
		s94.769,82.49,105.399,64.792s-87.64-68.76-87.64-68.76c32.776-23.107,90.163-23.651,90.163-23.651
		c85.081,9.793,68.114,118.538,68.114,118.538s6.506,5.417,18.56,12.302v-169.807c-33.099,13.187-83.321,14.008-115.626,7.337
		c-46.325-9.566-26.109-22.609-1.13-43.788s77.249-15.519,92.705-23.814c15.457-8.297-7.107-16.644-38.001-14.308
		c-30.895,2.335-46.381,33.206-96.288,37.893c-49.908,4.688-87.804-89.225-87.804-89.225c34.442,10.738,96.249-8.19,98.641-20.068
		c2.392-11.878-89.095-10.811-103.348-14.394c-14.252-3.584-39.166-32.132-23.645-89.142c15.521-57.009,111.735-39.06,111.735-39.06
		s65.215,99.888,84.222,102.29c19.007,2.401-39.081-96.29-39.081-96.29c28.379-2.708,90.56,23.536,117.621,35.732V609.453
		c-123.969,32.848-235.172-4.539-326.306-19.226c-277.176-44.67-633.445,41.947-741.164,309.679
		c-165.259,410.746,21.62,799.589,21.62,799.589h320.79C590.478,1696.842,586.55,1691.158,585.281,1682.802z M970.569,659.735
		c55.816,0,116.559,14.462,121.821,101.065c3.386,55.714-26.314,89.997-111.837,89.997c-28.843,0-51.26-4.549-68.429-12.663
		l-42.75,37.987l21.008-52.507c-18.611-17.303-26.452-41.71-27.587-69.815C860.163,688.67,914.752,659.735,970.569,659.735z"/>
	<path style="fill:#EBF3FA;" d="M2434.869,1697.623c-5.027-0.66-7.607,1.124-8.449,1.873h17.179
		C2440.584,1698.912,2438.131,1698.049,2434.869,1697.623z"/>
	<path style="fill:#EBF3FA;" d="M1908.181,496.083c4.37-5.984,8.98-11.632,13.804-17.124c3.4-3.769,4.303-9.119,2.355-13.79
		l-19.916-47.348c-2.744-6.471-0.021-13.983,6.143-17.197l50.114-26.259c1.433-0.74,2.962-1.166,4.429-1.395
		c4.833-0.613,9.857,1.514,12.718,5.714l21.478,32.086c2.674,3.901,7.239,6.099,11.841,5.804c1.205-0.094,2.435-0.333,3.637-0.755
		c28.854-10.6,59.476-15.282,90.201-13.878c5.212,0.314,10.001-2.685,12.29-7.267c0.319-0.66,0.586-1.358,0.799-2.095l12.878-44.437
		c1.858-6.438,8.274-10.442,14.926-9.321l1.302,0.22l54.572,9.56c6.864,1.276,11.587,7.486,10.981,14.433l-5.309,59.871
		c-0.395,4.989,2.04,9.772,6.298,12.394c5.447,3.327,10.792,6.906,16.035,10.735c9.746,7.116,18.776,14.766,26.962,23.018
		c3.841,3.859,9.562,5.033,14.532,2.897l57.931-24.288c6.157-2.649,13.366-0.066,16.513,5.967l26.701,50.843
		c3.013,5.772,1.201,12.813-4.145,16.463l-48.003,32.266c-4.736,3.039-6.825,8.903-5.206,14.47
		c6.807,23.485,9.836,48.028,8.982,72.661c-0.199,5.945,3.793,11.377,9.493,13.023l33.811,9.746
		c6.399,1.912,10.495,8.313,9.374,14.965l-9.973,56.139c-0.195,1.157-0.496,2.236-0.995,3.253
		c-2.193,4.895-7.388,8.003-12.917,7.458l-44.728-3.914l-10.9-0.976c-5.008,9.417-10.793,18.673-17.251,27.518
		c-8.702,11.917-18.361,22.81-28.68,32.492c-3.927,3.711-5.244,9.406-3.108,14.378l19.617,46.644
		c2.64,6.393,0.032,13.746-6.093,16.907l-38.868,20.423l-11.153,5.822c-6.072,3.2-13.639,1.33-17.438-4.368l-26.996-40.096
		c-3.078-4.683-8.772-6.892-14.079-5.407c-15.963,4.179-32.328,6.684-48.742,7.366c-1.428,0.175-2.739,0.192-4.142,0.223
		c-0.473-0.02-0.932,0.052-1.39,0.123c-5.251,0.63-9.546,4.398-11.002,9.506l-15.944,54.864c-0.136,0.632-0.416,1.238-0.659,1.793
		c-2.449,5.357-8.339,8.528-14.267,7.528l-55.98-9.856c-0.375-0.066-0.741-0.154-1.104-0.25v324.229
		c14.751-17.059,36.445-29.177,67.885-22.648c0,0,51.602,17.606,74.274,48.226c0,0-103.87,16.749-99.56,35.884
		s114.396-27.008,114.396-27.008s76.07,74.731,85.424,111.443c0,0-115.193-21.84-106.306-4.354
		c8.889,17.484,127.7,45.778,127.7,45.778s50.575,86.507,1.008,121.182s-85.694,20.542-94.077,8.047s-38.997-101.023-49.616-94.61
		c-10.618,6.413-7.48,72.52,14.78,101.994c0,0-103.604-4.035-116.35-53.748c-12.746-49.714,11.646-75.314,3.211-105.893
		c-6.318-22.905-16.796-39.231-22.77-38.516v34.539c5.3,21.724,12.626,49.412,4.955,69.877c-1.762,4.699-3.385,9.229-4.955,13.402
		v136.725c0,38.221-31.096,69.316-69.315,69.316h392.694c-0.85-1.762,0.163-5.26,1.18-7.889c0.725-1.894,2.305-3.329,4.26-3.894
		c4.824-1.397,14.337-2.642,23.048-10.528c4.901-4.428,23.666-16.284,23.666-16.284l0.1-0.022c0.023,0,0.054,0.004,0.088,0.009
		c2.106-16.519,4.272-40.568,4.024-68.439c-0.332-36.973-4.905-80.67-19.515-122.391c-34.087-97.351-41.285-176.693-42.396-217.609
		c-7.593-4.492-12.872-10.891-14.108-19.872c-3.6-26.139,1.493-64.45,6.3-99.787c-5.214,9.843-11.388,14.952-18.682,12.263
		c-36.113-13.305-70.896-75.104-70.896-75.104s-12.89-13.999-15.944-24.345c-0.801-2.714-0.688-5.645-0.045-8.496
		c0.384-2.346,1.621-19.716,2.674-28.875l-5.23-17.453c-0.447-1.491,0.4-3.062,1.891-3.509l19.267-5.774l5.255-1.575
		c0.84-0.252,1.726,0.225,1.978,1.066l15.598,52.04c0.252,0.841-0.226,1.727-1.065,1.979l-7.018,2.104
		c0.052,4.019-5.764,16.105-5.762,16.563c0,0-0.002-0.012-0.003-0.016c-0.025,4.327-0.202,7.742-0.204,8.318
		c9.486,13.877,52.163,40.52,52.163,40.52c0.975-11.692,2.389-22.303,4.135-31.912c0.663-3.654,1.376-7.156,2.128-10.528
		c-0.118-0.155-0.186-0.247-0.186-0.247c8.219-50.109,29.232-70.904,38.172-77.676c0.435-0.501,0.864-0.963,1.285-1.384
		c1.88-1.442,3.76-2.343,11.305-3.637c3.855-0.656,9.197-1.416,16.769-2.412c0,0,1.627-0.183,2.491-0.24
		c0.556-0.052,1.191-0.111,1.907-0.176c2.15-1.133,2.724-10.131,2.697-19.626c-0.01-4.504-0.153-9.114-0.321-13.047
		c-4.662,0.398-7.76,0.348-7.76,0.348c-8.721-0.682-14.164-24.043-16.123-42.924c-0.006-0.014-10.492-25.275,1.299-39.567
		c2.197-2.664,4.241-4.404,6.124-5.489c0.536-0.539,1.078-1.044,1.622-1.518c8.119-9.003,41.065-42.738,62.691-23.222
		c0.559-1.954,7.646-23.94,41.946-16.642c0,0-17.177-2.164-21.885,4.453c0,0,13.614-6.235,22.14-1.018s9.925,22.776,8.652,28.12
		c-1.272,5.344-10.688,21.249-16.923,21.249c-2.362,0-4.886-0.786-7.113-1.761c0.955,2.828,1.816,5.899,2.532,9.268
		c6.621,31.157-14.098,54.84-24.812,48.987c-6.87-3.754-12.071,8.271-12.071,8.271l-0.039-0.051
		c1.018,22.794,7.26,37.674,11.902,41.393c1.675,0.192,5.257,0.631,9.746,1.345c0.001-0.004,0.006-0.025,0.006-0.025
		s15.807,1.73,27.843,6.964c0.096,0.04,0.196,0.078,0.292,0.118c2.736,1.142,5.078,2.415,6.834,3.817
		c0.018,0.013,0.037,0.025,0.056,0.039c0,0-0.003,0.003-0.003,0.003c0.906,0.729,1.662,1.491,2.205,2.292
		c0.271,0.339,0.514,0.683,0.7,1.036c12.274,23.369,24.532,82.349,33.153,124.419c-1.432,0.789-2.85,1.502-4.253,2.155
		c3.857,21.777,6.8,38.435,8.37,42.093c4.582,10.684,18.579,69.471,30.539,98.479c0,0,18.428,12.25,21.244,17.414
		c0.924,1.694,2.253,4.882,3.621,8.397c4.74,5.08,10.461,11.16,10.461,11.16s-3.598,1.623-5.947,1.05
		c0.765,2.153,1.254,3.567,1.254,3.567s-4.694,0.704-9.389-7.511c-3.113-5.448-10.975-6.974-17.423-8.685
		c1.026,4.599,1.966,10.193,0.759,11.267c-2.112,1.877-7.275-5.164-11.031-9.389c-3.743-4.21-6.797-18.546-6.818-18.644
		c-1.229-2.361-2.004-4.046-2.004-4.046s-50.385-83.6-54.967-105.352c-1.437-6.811-4.882-20.182-8.946-35.316
		c-0.095-0.024-0.196-0.051-0.286-0.074c7.405,48.452,24.2,100.473,25.302,122.548c0.166,3.227-0.009,5.806-0.595,7.65
		c-0.74,2.327-2.138,4.191-4.422,5.542c0.667,6.894,1.108,14.107,1.354,21.543c2.519,76.168-13.445,155.887-16.12,170.251
		c0,0.009,24.096,31.926,11.719,128.07c-5.233,40.659-11.295,73.922-14.42,90.028c0.15-0.169,0.235-0.27,0.235-0.27
		s1.412,1.169,2.466,3.344c0.848,1.719,1.466,4.077,0.978,6.986c-0.68,4.1,1.511,11.719,3.26,16.871
		c1.061,3.123,1.954,5.337,1.954,5.337s0.45,2.287-7.223,3.515h516.091c79.932-420.346-399.476-360.487-300.064-733.985
		c10.553-39.647,17.875-77.432,22.242-113.403c-8.215,0.716-16.992,1.086-26.371,1.086c-32.596,0-57.929-5.141-77.331-14.31
		l-48.313,42.929l23.741-59.338c-21.031-19.554-29.893-47.136-31.176-78.897c-2.974-73.602,58.717-106.301,121.795-106.301
		c8.491,0,17.082,0.3,25.609,1.052c-122.43-455.935-873.02-456.461-1135.533-175.571c-22.587,24.168-44.939,44.914-67.025,62.685
		h409.311C1895.205,515.375,1901.261,505.56,1908.181,496.083z"/>
	<path style="fill:#EBF3FA;" d="M2432.602,1660.901l0.1-0.022c0.041,0.001,0.104,0.011,0.181,0.029
		c-2.531-16.145-5.663-37.911-8.272-61.509c-0.494-4.458-1.006-8.94-1.535-13.415c-0.748,3.266-1.525,6.503-2.329,9.699
		c-6.908,27.481-15.699,51.497-22.33,67.787c0.159,0.136,1.447,1.277,2.435,3.316c0.848,1.719,1.466,4.077,0.978,6.986
		c-0.341,2.054,0.04,4.991,0.724,8.06c2.123-1.227,4.277-2.739,6.385-4.647C2413.836,1672.758,2432.602,1660.901,2432.602,1660.901z
		"/>
	<path style="fill:#EBF3FA;" d="M2052.245,749.073c8.62,3.208,17.887,5.752,27.772,7.45c18.852,3.208,48.374-1.301,65.34-10.189
		c1.824-0.942,3.596-1.921,5.367-2.902c107.07-61.001,81.861-213.641-41.111-235.955c-16.08-2.889-39.33-0.297-57.053,5.846
		c-4.086,1.482-7.922,3.065-11.166,4.838c-15.388,8.173-28.193,18.148-38.543,29.431c-4.17,4.553-7.918,9.314-11.28,14.231
		c5.316,9.803,8.339,21.023,8.339,32.936v118.11C2013.181,728.276,2030.717,740.932,2052.245,749.073z"/>
	<path style="fill:#EBF3FA;" d="M606.17,1244.314c0,0-10.88,4.148-11.065-4.296c-0.085-3.879,1.501-6.007,3.105-8.318l-0.198-0.028
		l-5.05-0.717c-0.348-0.047-0.683-0.04-1.011,0.014c-1.413,0.228-2.578,1.353-2.792,2.84l-1.514,10.627l40.616,5.793l1.514-10.635
		c0.261-1.828-1.018-3.535-2.853-3.797l-5.853-0.834C618.563,1237.764,614.064,1240.607,606.17,1244.314z"/>
	<path style="fill:#EBF3FA;" d="M1320.013,1467.974v-0.313c-0.375-0.819-0.945-1.926-1.8-3.24
		C1318.791,1465.562,1319.395,1466.754,1320.013,1467.974z"/>
	<path style="fill:#EBF3FA;" d="M678.79,1208.063c0.103-3.73,0.473-9.142,0.938-15.957c1.542-22.484,4.167-60.338,2.073-104.321
		c-8.32,10.307-14.25,17.983-15.182,20.027c-3.668,8.043-32.171,96.093-32.171,96.093s-4.113,0.299-9.552,0.057
		c-0.803,1.49-1.408,2.899-1.479,3.865c-0.048,0.641-0.084,1.262-0.113,1.87c1.425,1.76,2.841,3.761,3.015,4.958
		c1.165,8.005,3.838,11.463,2.499,12.334c-1.522,0.99-3.313-0.34-4.912-2.611c0.127,1.956,0.142,3.677-0.155,5.269l3.968,0.566
		c2.371,0.335,4.48,1.587,5.926,3.509c1.447,1.929,2.056,4.3,1.714,6.67l-1.513,10.635l22.642,3.222
		c0.897,0.127,1.768,0.301,2.625,0.509c0.005,0.006,0.011,0.006,0.016,0.006l0.009,0.001h0.001h0.001l12.416,1.77
		c2.572,0.366,5.006,1.094,7.269,2.112c1.173-15.237,2.959-32.849,4.276-45.168C680.739,1211.862,678.704,1209.914,678.79,1208.063z
		"/>
	<path style="fill:#EBF3FA;" d="M760.657,1670.473c0-0.003,0-0.006,0.001-0.009c-1.227-0.188-2.475-0.404-3.763-0.676
		c0,0-24.475-82.518-31.466-169.827c-0.108-1.431-0.217-2.872-0.325-4.313c-1.122-15.338-2.352-33.604-3.619-53.328
		c-14.433,30.984-28.8,60.122-41.542,82.952c-52.027,93.216-68.286,119.229-68.286,119.229s-0.709-0.284-1.912-0.791
		c0,0.004,0,0.007,0,0.01c0.268,5.377,0.409,11.592,0.107,17.043c-0.724,13.005,3.636,27.015,15.195,29.546
		c8.259,1.807,8.177,6.596,7.455,9.188h129.916C758.594,1694.18,760.051,1676.36,760.657,1670.473z"/>
	<path style="fill:#CDE3FD;" d="M2056.994,935.738c5.928,1,11.817-2.171,14.267-7.528c0.243-0.555,0.523-1.161,0.659-1.793
		l15.944-54.864c1.456-5.108,5.751-8.876,11.002-9.506c0.458-0.071,0.917-0.143,1.39-0.123c1.402-0.031,2.714-0.048,4.142-0.223
		c16.414-0.683,32.779-3.188,48.742-7.366c5.307-1.485,11.001,0.725,14.079,5.407l26.996,40.096
		c3.799,5.697,11.365,7.568,17.438,4.368l11.153-5.822l38.868-20.423c6.125-3.161,8.732-10.514,6.093-16.907l-19.617-46.644
		c-2.136-4.971-0.818-10.667,3.108-14.378c10.318-9.682,19.978-20.575,28.68-32.492c6.458-8.845,12.243-18.101,17.251-27.518
		l10.9,0.976l44.728,3.914c5.529,0.545,10.724-2.563,12.917-7.458c0.499-1.017,0.8-2.096,0.995-3.253l9.973-56.139
		c1.121-6.651-2.975-13.053-9.374-14.965l-33.811-9.746c-5.7-1.646-9.692-7.078-9.493-13.023
		c0.854-24.633-2.176-49.176-8.982-72.661c-1.619-5.567,0.47-11.431,5.206-14.47l48.003-32.266
		c5.346-3.65,7.157-10.691,4.145-16.463l-26.701-50.843c-3.146-6.034-10.355-8.617-16.513-5.967l-57.931,24.288
		c-4.971,2.136-10.691,0.962-14.532-2.897c-8.186-8.251-17.216-15.901-26.962-23.018c-5.243-3.829-10.588-7.408-16.035-10.735
		c-4.258-2.621-6.692-7.405-6.298-12.394l5.309-59.871c0.605-6.947-4.117-13.157-10.981-14.433l-54.572-9.56l-1.302-0.22
		c-6.651-1.122-13.067,2.883-14.926,9.321l-12.878,44.437c-0.213,0.737-0.479,1.436-0.799,2.095
		c-2.289,4.581-7.078,7.581-12.29,7.267c-30.726-1.404-61.348,3.278-90.201,13.878c-1.202,0.422-2.432,0.661-3.637,0.755
		c-4.602,0.294-9.167-1.903-11.841-5.804l-21.478-32.086c-2.86-4.2-7.885-6.327-12.718-5.714c-1.467,0.229-2.996,0.655-4.429,1.395
		l-50.114,26.259c-6.163,3.214-8.887,10.726-6.143,17.197l19.916,47.348c1.947,4.671,1.045,10.021-2.355,13.79
		c-4.823,5.492-9.434,11.14-13.804,17.124c-6.92,9.477-12.976,19.292-18.227,29.359h40.641c26.307,0,49.237,14.732,60.977,36.38
		c3.362-4.917,7.11-9.678,11.28-14.231c10.35-11.283,23.155-21.258,38.543-29.431c3.244-1.773,7.08-3.356,11.166-4.838
		c17.723-6.143,40.973-8.735,57.053-5.846c122.973,22.314,148.182,174.954,41.111,235.955c-1.771,0.981-3.543,1.96-5.367,2.902
		c-16.966,8.888-46.488,13.398-65.34,10.189c-9.886-1.697-19.152-4.241-27.772-7.45c-21.528-8.141-39.064-20.796-52.335-36.204
		v212.763c0.362,0.096,0.729,0.184,1.104,0.25L2056.994,935.738z"/>
	<path style="fill:#2E3552;" d="M3049.232,1699.547h-592.586c-0.367,0.056-0.746,0.109-1.149,0.16h-10.711
		c-0.31-0.049-0.604-0.105-0.901-0.16h-17.521c-0.067,0.063-0.126,0.118-0.167,0.16c-0.069,0.068-0.099,0.107-0.099,0.107h-45.501
		c-0.054-0.077-0.08-0.181-0.124-0.268h-11.269c-0.067,0.063-0.126,0.118-0.167,0.16c-0.068,0.068-0.099,0.107-0.099,0.107h-45.501
		c-0.055-0.077-0.08-0.181-0.124-0.268H847.184c0.029,0.072,0.062,0.146,0.089,0.218h-84.661c-0.055-0.067-0.105-0.146-0.158-0.218
		H632.487c-0.021,0.072-0.04,0.149-0.061,0.218h-37.02c-0.124-0.067-0.246-0.146-0.368-0.218H160.332
		c-2.072,0-3.768,1.695-3.768,3.768v2.592c0,2.072,1.695,3.769,3.768,3.769h2888.9c2.072,0,3.768-1.696,3.768-3.769v-2.592
		C3053,1701.242,3051.305,1699.547,3049.232,1699.547z"/>
	<path style="fill:#ABC8F7;" d="M1318.213,1464.421c0.854,1.314,1.425,2.421,1.8,3.24v-24.023
		c-12.053-6.885-18.56-12.302-18.56-12.302s16.967-108.745-68.114-118.538c0,0-57.387,0.544-90.163,23.651
		c0,0,98.271,51.062,87.64,68.76s-105.399-64.792-105.399-64.792s-100.717,49.548-122.195,83.146c0,0,122.337,16.238,107.677,30.775
		c-14.66,14.536-142.747,3.552-142.747,3.552s-79.128,69.74-41.05,120.772c38.079,51.032,78.852,48.846,91.358,39.129
		c12.506-9.718,72.355-88.073,80.848-78.155s-16.488,74.945-48.474,97.046c0,0,104.872,30.202,134.037-15.269
		c29.165-45.47,13.249-79.114,31.783-106.886s40.602-41.379,37.379-22.751c-3.223,18.628-42.739,59.231-41.352,94.496
		c1.387,35.265-0.968,61.083,37.914,28.119c26.217-22.227,57.614-63.318,69.418-99.323v-47.096
		C1319.395,1466.754,1318.791,1465.562,1318.213,1464.421z"/>
	<path style="fill:#D5E5FB;" d="M1202.392,991.262c0,0,58.088,98.691,39.081,96.29c-19.007-2.401-84.222-102.29-84.222-102.29
		s-96.214-17.949-111.735,39.06c-15.521,57.01,9.393,85.558,23.645,89.142c14.253,3.583,105.74,2.516,103.348,14.394
		c-2.392,11.878-64.199,30.807-98.641,20.068c0,0,37.896,93.912,87.804,89.225c49.907-4.687,65.394-35.558,96.288-37.893
		c30.894-2.336,53.458,6.011,38.001,14.308c-15.457,8.296-67.727,2.636-92.705,23.814s-45.194,34.222,1.13,43.788
		c32.305,6.671,82.527,5.85,115.626-7.337v-246.837C1292.952,1014.798,1230.771,988.554,1202.392,991.262z"/>
	<path style="fill:#7CA8F4;" d="M1999.91,1410.176v83.279c1.57-4.173,3.193-8.703,4.955-13.402
		C2012.536,1459.588,2005.21,1431.899,1999.91,1410.176z"/>
	<path style="fill:#7CA8F4;" d="M2022.68,1414.152c8.436,30.578-15.957,56.179-3.211,105.893
		c12.746,49.713,116.35,53.748,116.35,53.748c-22.261-29.475-25.398-95.581-14.78-101.994c10.619-6.413,41.233,82.115,49.616,94.61
		s44.51,26.628,94.077-8.047s-1.008-121.182-1.008-121.182s-118.812-28.294-127.7-45.778c-8.888-17.485,106.306,4.354,106.306,4.354
		c-9.354-36.712-85.424-111.443-85.424-111.443s-110.085,46.143-114.396,27.008s99.56-35.884,99.56-35.884
		c-22.673-30.619-74.274-48.226-74.274-48.226c-31.439-6.528-53.134,5.59-67.885,22.648v125.776
		C2005.884,1374.921,2016.361,1391.247,2022.68,1414.152z"/>
	<path style="fill:#FFB27D;" d="M966.445,1022.068c1.657-1.515,4.221-3.445,7.837-5.124l-4.697-3.301
		c-0.001-0.001-0.002-0.002-0.004-0.003l-11.523-8.099c-0.89-0.625-1.106-1.864-0.481-2.754l7.356-10.466
		c-0.3,0.163-0.599,0.313-0.895,0.443c-0.02,0.013-0.04,0.02-0.06,0.033c-0.322,0.154-2.056,0.851-3.442-1.178
		c-1.534-2.244,3.811-14.338,0.228-14.954c-1.48-0.261-3.851,8.538-6.308,12.107c-2.458,3.576-2.746,9.436-1.306,13.227
		c1.44,3.797-0.911,6.817-0.911,6.817c-0.058,0.159-0.107,0.308-0.163,0.465C955.473,1010.797,962.199,1014.576,966.445,1022.068z"
		/>
	<path style="fill:#2B478B;" d="M958.059,1005.542l11.523,8.099c-0.673-0.478-0.836-1.417-0.362-2.093l32.799-46.671
		c0.476-0.677,1.419-0.841,2.096-0.366l1.065,0.749c0,0,0,0-0.001-0.001l-12.592-8.849c-0.889-0.625-2.128-0.409-2.753,0.48
		l-24.9,35.431l-7.356,10.466C956.953,1003.678,957.169,1004.917,958.059,1005.542z"/>
	<path style="fill:#233862;" d="M1002.019,964.877l-32.799,46.671c-0.475,0.676-0.311,1.615,0.362,2.093
		c0.002,0.001,0.003,0.002,0.004,0.003l4.697,3.301l2.685,1.887c0.677,0.475,1.62,0.31,2.096-0.366l32.799-46.67
		c0.476-0.677,0.311-1.62-0.366-2.096l-6.316-4.439l-1.065-0.749C1003.438,964.036,1002.495,964.201,1002.019,964.877z"/>
	<path style="fill:#233862;" d="M834.766,1124.546c10.407,6.939,20.7,10.871,30.267,10.032
		c50.959-4.47,102.715-109.917,102.715-109.917c-0.398-0.912-0.837-1.772-1.302-2.593c-4.246-7.492-10.973-11.272-14.37-12.786
		c-1.297-0.578-2.111-0.829-2.111-0.829l-85.23,63.544c-8.384-7.417-22.079-26.697-36.164-48.317
		c2.363,19.927,3.982,44.281,5.052,69.188C834.078,1103.447,834.478,1114.078,834.766,1124.546z"/>
	<path style="fill:#233862;" d="M632.426,1699.765c0.021-0.068,0.041-0.146,0.061-0.218c0.005-0.017,0.009-0.033,0.014-0.051
		c0.722-2.592,0.804-7.381-7.455-9.188c-11.559-2.531-15.919-16.541-15.195-29.546c0.301-5.451,0.161-11.666-0.107-17.043
		c0-0.003,0-0.006,0-0.01c-5.555-2.34-21.712-9.471-28.125-15.771l-0.001,0.002l-2.478,3.194c0,0-14.813,13.729-11.927,23.479
		c2.893,9.757,16.26,16.26,18.068,28.187c1.27,8.356,5.198,14.04,9.671,16.694c0.028,0.017,0.057,0.034,0.086,0.051
		c0.122,0.072,0.245,0.15,0.368,0.218H632.426z"/>
	<path style="fill:#233862;" d="M834.582,1690.965c-12.958-2.096-35.399-9.623-40.402-26.185c0-0.001,0-0.003-0.001-0.004
		c-5.452,3.423-16.627,8.289-33.522,5.688c0,0.003,0,0.006-0.001,0.009c-0.606,5.888-2.063,23.707,1.761,29.023
		c0.012,0.017,0.024,0.034,0.037,0.051c0.053,0.072,0.103,0.15,0.158,0.218h84.661c-0.027-0.071-0.06-0.146-0.089-0.218
		c-0.007-0.017-0.014-0.034-0.021-0.051C845.933,1696.459,842.767,1692.292,834.582,1690.965z"/>
	<path style="fill:#FFA25C;" d="M756.894,1669.788c1.288,0.271,2.536,0.487,3.763,0.676c16.895,2.602,28.07-2.265,33.522-5.688
		c2.599-1.632,3.903-2.934,3.903-2.934s5.788-57.805,7.229-93.942c0.834-20.811,9.267-130.665,16.28-220.098l-96.165,152.158
		C732.419,1587.271,756.894,1669.788,756.894,1669.788z"/>
	<path style="fill:#EF8C48;" d="M721.484,1442.319c1.267,19.725,2.497,37.99,3.619,53.328c0.108,1.441,0.216,2.883,0.325,4.313
		l96.165-152.158c4.164-53.143,7.827-99.066,9.085-114.804c-4.359,0.022-11.418,0.827-19.992,1.724
		C806.105,1246.159,763.521,1352.073,721.484,1442.319z"/>
	<path style="fill:#FFA25C;" d="M679.942,1525.271c12.742-22.83,27.11-51.968,41.542-82.952
		c42.037-90.246,84.621-196.16,89.201-207.597c-15.321,1.602-35.444,3.478-53.501,1.623c-24.153-2.318-45.53-9.473-68.487-19.764
		c-1.393-0.625-3.609-1.748-5.596-3.105c-1.317,12.319-3.103,29.931-4.276,45.168c10.757,4.84,17.547,16.401,15.804,28.629
		l-7.022,49.277c-2.109,14.799-15.942,25.182-30.741,23.072l-1.678-0.239c-6.764,17.109-14.259,32.357-21.313,41.238
		c-34.842,43.868-54.737,223.827-54.737,223.827c0.369,1.105,1.252,2.283,2.48,3.49c6.413,6.3,22.57,13.431,28.125,15.771
		c1.203,0.507,1.912,0.791,1.912,0.791S627.915,1618.487,679.942,1525.271z"/>
	<path style="fill:#FFB27D;" d="M706.977,927.965c0,0,0.027,0.013,0.067,0.033c0.042-0.06,0.082-0.123,0.124-0.181
		C707.055,927.905,706.977,927.965,706.977,927.965z"/>
	<path style="fill:#FFB27D;" d="M746.146,926.88c10.366,5.115,20.731,6.048,30.616,4.502c-1.916-1.317-4-2.624-6.251-3.859
		c0.737-4.332,1.319-8.297,1.788-11.853c-17.977-3.085-38.367-32.116-38.404-32.169c-0.458-0.495-0.893-1.014-1.311-1.551
		c-2.789,15.37-9.096,26.802-14.76,34.429c0.203-0.157,0.399-0.333,0.604-0.486C720.596,914.338,733.911,920.846,746.146,926.88z"/>
	<path style="fill:#ED975D;" d="M733.894,883.5c0.038,0.054,20.427,29.085,38.404,32.169c1.63-12.422,1.819-19.925,1.839-21.065
		C762.716,895.152,743.809,894.208,733.894,883.5z"/>
	<path style="fill:#FFB27D;" d="M774.137,894.604c5.641-0.27,9.458-0.903,9.458-0.903c10.712-2.465,11.199-38.989,8.751-58.028
		c-6.271-0.122-13.546-3.439-26.737-2.831c-17.464,0.805-17.507,12.366-19.919,15.11c-2.412,2.745-2.703-1.955-8.573-3.713
		c-5.869-1.759-5.88,7.677-5.034,14.896c0.845,7.219-4.396,8.095-4.396,8.095c-0.182-0.18-0.356-0.381-0.534-0.57
		c0.197,1.197,0.391,2.409,0.576,3.64c0.709,4.715,2.436,8.542,4.854,11.649c0.418,0.537,0.853,1.057,1.311,1.551
		C743.809,894.208,762.716,895.152,774.137,894.604z"/>
	<path style="fill:#2B478B;" d="M717.54,920.13l33.741,84.439c0,0-9.821,11.544-22.775,26.927
		c2.43,39.602,1.186,124.293-48.778,160.609c-0.465,6.815-0.836,12.227-0.938,15.957c-0.086,1.852,1.949,3.8,4.312,5.414
		c1.986,1.357,4.203,2.48,5.596,3.105c22.957,10.291,44.334,17.445,68.487,19.764c18.058,1.854,38.18-0.021,53.501-1.623
		c8.574-0.896,15.633-1.701,19.992-1.724c0.21-0.001,0.429-0.005,0.627-0.002c1.238,0,2.319-0.466,3.249-1.239
		c0.773-0.623,1.397-35.613,0.773-79.739c0-1.704,0-3.565-0.149-5.269v-0.616c-0.065-7.063-0.211-14.286-0.412-21.588
		c-0.287-10.468-0.688-21.099-1.143-31.679c-1.07-24.906-2.689-49.261-5.052-69.188c-1.398-11.787-3.054-22.026-5.013-29.91
		c-6.192-24.926-20.438-41.341-33.445-53.418l-10.681-9.442c-0.886,0.179-1.777,0.332-2.671,0.472
		c-9.885,1.546-20.25,0.612-30.616-4.502c-12.234-6.034-25.549-12.542-27.719-10.988c-0.205,0.153-0.401,0.329-0.604,0.486
		c-3.849,2.99-7.402,6.832-10.655,11.438c-0.042,0.059-0.082,0.122-0.124,0.181c-6.635,9.458-12.023,22.064-16.161,36.932
		C706.005,939.399,717.54,920.13,717.54,920.13z"/>
	<path style="fill:#233862;" d="M679.728,1192.105c49.963-36.316,51.208-121.008,48.778-160.609
		c-14.799,17.574-33.682,40.155-46.705,56.288C683.896,1131.768,681.271,1169.621,679.728,1192.105z"/>
	<polygon style="fill:#233862;" points="659.133,1254.763 659.139,1254.763 659.129,1254.762 	"/>
	<path style="fill:#233862;" d="M687.607,1336.551l7.022-49.277c1.743-12.228-5.047-23.789-15.804-28.629
		c-2.263-1.019-4.697-1.746-7.269-2.112l-12.416-1.77c8.746,2.144,15.643,8.458,18.837,16.454v0.006
		c1.707,4.273,2.357,9.021,1.667,13.883l-7.106,49.845c-1.379,9.649-7.714,17.432-16.059,21.114
		c-2.766,1.226-5.753,2.003-8.86,2.237c-0.007,0-0.007,0-0.014,0h-0.007c-0.002,0-0.003,0-0.005,0l7.593,1.082l1.678,0.239
		C671.665,1361.732,685.498,1351.35,687.607,1336.551z"/>
	<path style="fill:#2B478B;" d="M647.608,1358.302c0.007,0,0.007,0,0.014,0c3.107-0.234,6.094-1.012,8.86-2.237
		c8.344-3.683,14.679-11.465,16.059-21.114l7.106-49.845c0.69-4.861,0.04-9.609-1.667-13.883v-0.006
		c-3.194-7.996-10.092-14.311-18.837-16.454h-0.001h-0.001h-0.005c-0.002,0-0.002-0.001-0.004-0.001c-0.005,0-0.011,0-0.016-0.006
		c-0.857-0.208-1.728-0.382-2.625-0.509l-22.642-3.222l1.513-10.635c0.342-2.37-0.268-4.741-1.714-6.67
		c-1.446-1.922-3.556-3.174-5.926-3.509l-3.968-0.566c-0.351,1.883-1.14,3.593-2.683,5.317l5.853,0.834
		c1.835,0.262,3.114,1.969,2.853,3.797l-1.514,10.635l-40.616-5.793l1.514-10.627c0.214-1.487,1.38-2.612,2.792-2.84
		c0.328-0.054,0.663-0.061,1.011-0.014l5.05,0.717l0.198,0.028c1.047-1.511,2.098-3.104,2.698-5.312l-2.87-0.409l-4.286-0.609
		c-4.909-0.696-9.483,2.726-10.179,7.641l-1.514,10.635l-39.082-5.571c-14.854-2.116-28.736,8.304-30.859,23.157l-7.099,49.851
		c-2.116,14.854,8.304,28.736,23.158,30.853l113.504,16.18c2,0.288,3.981,0.341,5.914,0.188c0.002,0,0.003,0,0.005,0H647.608z"/>
	<path style="fill:#FFB27D;" d="M595.105,1240.019c0.185,8.444,11.065,4.296,11.065,4.296c7.894-3.707,12.393-6.551,14.898-9.352
		c1.543-1.725,2.332-3.435,2.683-5.317c0.296-1.592,0.282-3.313,0.155-5.269c-1.326-1.884-2.521-4.413-3.319-6.823
		c-1.761-5.318-0.38-11.387-0.38-11.387s1.555,1.623,3.098,3.529c0.029-0.608,0.065-1.229,0.113-1.87
		c0.072-0.966,0.677-2.375,1.479-3.865c-3.214-0.144-6.891-0.476-10.457-1.171c-2.912-0.567-5.538-1.534-7.67-2.506
		c-7.004,5.658-7.031,6.764-5.528,19.324c0.34,2.845,0.148,5.01-0.333,6.78c-0.6,2.208-1.651,3.801-2.698,5.312
		C596.607,1234.012,595.021,1236.14,595.105,1240.019z"/>
	<path style="fill:#2B478B;" d="M624.896,1203.961c5.439,0.242,9.552-0.057,9.552-0.057s28.503-88.05,32.171-96.093
		c0.932-2.044,6.862-9.721,15.182-20.027c13.023-16.133,31.906-38.714,46.705-56.288c12.954-15.383,22.775-26.927,22.775-26.927
		L717.54,920.13c0,0-11.536,19.269-26.657,44.8c-26.555,44.835-64.174,108.991-69.842,122.093
		c-14.699,33.978-19.801,110.155-19.801,110.155s2.138,1.561,5.528,3.106c2.133,0.972,4.758,1.938,7.67,2.506
		C618.006,1203.485,621.683,1203.817,624.896,1203.961z"/>
	<path style="fill:#2B478B;" d="M732.083,859.136c-0.846-7.219-0.835-16.655,5.034-14.896c5.87,1.758,6.162,6.458,8.573,3.713
		c2.412-2.744,2.456-14.306,19.919-15.11c13.191-0.608,20.467,2.708,26.737,2.831c2.031,0.04,3.958-0.254,5.945-1.127
		c8.122-3.571,8.55-15.863,8.55-15.863s-2.31,4.389-5.799,5.785c0,0,13.549-18.532-2.137-31.239
		c-15.687-12.708-31.681-4.389-40.761-3.839c-20.001,1.21-32.921,2.411-39.455,15.554c-6.441,12.956-3.905,48.587,8.463,61.716
		c0.178,0.189,0.352,0.391,0.534,0.57C727.687,867.231,732.928,866.354,732.083,859.136z"/>
	<path style="fill:#FFB27D;" d="M628.818,1226.988c1.339-0.871-1.334-4.329-2.499-12.334c-0.174-1.197-1.59-3.198-3.015-4.958
		c-1.544-1.906-3.098-3.529-3.098-3.529s-1.38,6.068,0.38,11.387c0.798,2.41,1.993,4.939,3.319,6.823
		C625.505,1226.648,627.295,1227.979,628.818,1226.988z"/>
	<path style="fill:#FFB27D;" d="M2231.95,1053.656c0.001,0.004,0.003,0.016,0.003,0.016c-0.002-0.458,5.813-12.545,5.762-16.563
		l-6.59,1.975C2231.832,1043.446,2231.977,1049.063,2231.95,1053.656z"/>
	<path style="fill:#233862;" d="M2375.988,840.988c40.489-5.803,46.025,34.489,44.095,45.358c-0.345,1.943-0.831,3.929-1.415,5.914
		c3.228,3.738,5.706,5.713,5.706,5.713s-2.706,1.666-8.552,2.338c-4.234,10.405-9.713,19.066-9.713,19.066h-0.002
		c-0.456,1.322-1.022,2.565-1.682,3.737c-0.009,2.411,0.047,4.74,0.146,6.999l0.039,0.051c0,0,5.201-12.024,12.071-8.271
		c10.714,5.852,31.433-17.83,24.812-48.987c-0.716-3.369-1.577-6.44-2.532-9.268c-3.651-1.599-6.501-3.71-6.501-3.71l-20.359-30.538
		c0,0,0.018-0.063,0.043-0.153c-21.626-19.516-54.572,14.219-62.691,23.222c1.262-1.1,2.527-2.04,3.723-2.847
		C2364.229,842.147,2375.988,840.988,2375.988,840.988z"/>
	<path style="fill:#FFB27D;" d="M2315.018,1078.255c-13.521-3.883-23.414-16.324-24.846-18.201
		c-0.752,3.372-1.465,6.874-2.128,10.528c-1.746,9.609-3.16,20.22-4.135,31.912c0,0-42.677-26.643-52.163-40.52l-11.39,7.973
		c0,0,34.783,61.8,70.896,75.104c7.294,2.689,13.468-2.42,18.682-12.263c2.712-19.939,5.325-38.916,6.241-54.234
		C2315.788,1078.46,2315.4,1078.365,2315.018,1078.255z"/>
	<path style="fill:#233862;" d="M2432.461,859.928c0,0,2.85,2.111,6.501,3.71c2.228,0.976,4.751,1.761,7.113,1.761
		c6.234,0,15.65-15.905,16.923-21.249c1.272-5.344-0.127-22.903-8.652-28.12s-22.14,1.018-22.14,1.018
		c4.708-6.617,21.885-4.453,21.885-4.453c-34.3-7.298-41.388,14.688-41.946,16.642c-0.025,0.09-0.043,0.153-0.043,0.153
		L2432.461,859.928z"/>
	<path style="fill:#FFB27D;" d="M2360.535,974.463c-1.398,2.501-20.128,30.86-18.668,38.151c1.53,7.633,67.949,0.761,72.531-3.436
		c1.875-1.717,4.195-8.117,6.283-15.079l-5.243-22.708c0,0,0.37,0.038,1.036,0.114c-4.643-3.719-10.885-18.599-11.902-41.393
		c-0.1-2.259-0.155-4.587-0.146-6.999c-1.346,2.394-3.082,4.486-5.1,6.311c-5.801,10.874-16.698,24.723-34.713,25.231
		c-0.011-4.504-0.153-9.114-0.322-13.047l0,0c0.168,3.933,0.312,8.543,0.321,13.047c0.026,9.494-0.547,18.493-2.697,19.626
		c-0.716,0.065-1.352,0.124-1.907,0.176C2360.334,974.437,2360.555,974.432,2360.535,974.463z"/>
	<path style="fill:#E8945B;" d="M2364.613,954.657c18.015-0.508,28.912-14.357,34.713-25.231
		c-9.63,8.71-25.565,11.375-35.035,12.184C2364.46,945.542,2364.603,950.153,2364.613,954.657z"/>
	<path style="fill:#233862;" d="M2358.828,854.878c1.133-1.692,2.518-2.957,4.09-3.866c0.695-1.171,1.443-1.743,2.16-0.995
		c14.266-5.058,39.494,12.191,39.494,12.191c2.081,13.905,9.018,24.169,14.096,30.053c0.584-1.985,1.07-3.971,1.415-5.914
		c1.931-10.87-3.605-51.161-44.095-45.358c0,0-11.759,1.159-22.813,8.625c-1.195,0.807-2.461,1.747-3.723,2.847
		c-0.544,0.474-1.086,0.979-1.622,1.518C2352.675,851.185,2356.428,852.819,2358.828,854.878z"/>
	<path style="fill:#233862;" d="M2415.822,900.312c-2.251,0.259-4.964,0.37-8.172,0.182c-0.11,3.388-0.203,6.929-0.207,10.613
		c-0.004,3.049-0.481,5.795-1.336,8.272h0.002C2406.109,919.378,2411.588,910.716,2415.822,900.312z"/>
	<path style="fill:#FFB27D;" d="M2399.326,929.426c2.018-1.825,3.754-3.917,5.1-6.311c0.659-1.172,1.226-2.414,1.682-3.737
		c0.854-2.477,1.332-5.223,1.336-8.272c0.004-3.684,0.097-7.225,0.207-10.613c-3.901-0.23-8.527-0.9-13.928-2.289
		c-6.53-1.679-12.361-6.32-17.316-11.949c8.652,14.502,20.428,24.95,20.428,24.95c-25.536-11.804-35.791-47.318-36.813-51.076
		c-3.106,2.789-9.228,8.848-11.094,14.786c-2.537,8.07-3.678,24.684-8.52,24.119v-0.001c1.959,18.88,7.402,42.242,16.123,42.924
		c0,0,3.098,0.05,7.76-0.348l0,0C2373.761,940.801,2389.696,938.136,2399.326,929.426z M2356.3,926.304c0,0-7.801-0.482-7.562-4.587
		c0,0,7.563-2.92,17.732,1.428C2366.471,923.146,2365.591,926.88,2356.3,926.304z"/>
	<path style="fill:#233862;" d="M2358.828,854.878c0.764,0.655,1.389,1.349,1.87,1.957c0.548-1.929,1.343-4.35,2.22-5.823
		C2361.346,851.921,2359.961,853.186,2358.828,854.878z"/>
	<path style="fill:#233862;" d="M2415.822,900.312c5.846-0.672,8.552-2.338,8.552-2.338s-2.479-1.975-5.706-5.713
		c-5.078-5.884-12.015-16.148-14.096-30.053c0,0-25.229-17.249-39.494-12.191c0.947,0.988,1.842,4.285,2.49,11.565
		c0.777,8.719,4.396,17.229,8.838,24.673c4.955,5.629,10.786,10.27,17.316,11.949c5.4,1.389,10.026,2.06,13.928,2.289
		C2410.858,900.682,2413.571,900.57,2415.822,900.312z"/>
	<path style="fill:#233862;" d="M2348.928,874.916c1.866-5.939,7.987-11.997,11.094-14.786c-0.058-0.212-0.088-0.329-0.088-0.329
		s0.291-1.299,0.765-2.966c-0.481-0.608-1.106-1.302-1.87-1.957c-2.4-2.059-6.153-3.692-10.997-0.9
		c-1.883,1.085-3.927,2.826-6.124,5.489c-11.791,14.292-1.305,39.554-1.299,39.567v0.001
		C2345.25,899.6,2346.391,882.986,2348.928,874.916z"/>
	<path style="fill:#2B478B;" d="M2398.384,1663.443c0,0,0.021,0.019,0.031,0.027c6.631-16.29,15.422-40.306,22.33-67.787
		c0.804-3.196,1.581-6.434,2.329-9.699c-4.942-41.855-11.356-83.016-18.521-96.482c-21.513-40.396-32.749-157.384-37.71-227.438
		c-17.548,0.03-36.512-2.168-49.101-9.616c1.111,40.916,8.31,120.259,42.396,217.609c14.609,41.721,19.183,85.418,19.515,122.391
		c0.248,27.871-1.918,51.921-4.024,68.439c0.57,0.09,2.771,1.012,10.821,7.809
		C2390.864,1672.414,2398.384,1663.443,2398.384,1663.443z"/>
	<path style="fill:#FFB27D;" d="M2452.776,1118.154c4.064,15.135,7.51,28.506,8.946,35.316
		c4.582,21.752,54.967,105.352,54.967,105.352l15.273-4.582c-11.96-29.008-25.957-87.795-30.539-98.479
		c-1.57-3.658-4.513-20.315-8.37-42.093C2474.293,1122.411,2458.326,1119.599,2452.776,1118.154z"/>
	<path style="fill:#FFB27D;" d="M2454.361,979.908c-0.096-0.04-0.196-0.078-0.292-0.118c2.621,1.14,5.064,2.444,7.126,3.935
		C2459.439,982.323,2457.098,981.05,2454.361,979.908z"/>
	<path style="fill:#FFB27D;" d="M2463.453,986.059c-0.543-0.802-1.299-1.563-2.205-2.292c-0.003,0.004-0.044,0.053-0.119,0.146
		C2462.084,984.597,2462.859,985.313,2463.453,986.059z"/>
	<path style="fill:#FFB27D;" d="M2420.682,994.1c2.972-9.907,5.469-20.935,5.539-21.249c-4.489-0.713-8.071-1.153-9.746-1.345
		c-0.666-0.076-1.036-0.114-1.036-0.114L2420.682,994.1z"/>
	<path style="fill:#2B478B;" d="M2451.258,1255.858c-10.334-1.076-14.941-18.396-16.996-33.171
		c-6.207,21.141-14.897,33.004-26.133,35.496c-6.437,1.432-23.097,3.85-41.285,3.881c4.961,70.054,16.197,187.042,37.71,227.438
		c7.164,13.467,13.578,54.627,18.521,96.482c0.529,4.475,1.041,8.957,1.535,13.415c2.609,23.598,5.741,45.364,8.272,61.509
		c0.694,0.168,3.045,1.3,10.729,7.788c3.954,3.332,10.4-3.522,11.697-4.983c3.125-16.106,9.187-49.369,14.42-90.028
		c12.377-96.145-11.719-128.062-11.719-128.07c2.675-14.364,18.639-94.083,16.12-170.251c-0.245-7.436-0.687-14.649-1.354-21.543
		C2468.769,1256.189,2462.026,1256.972,2451.258,1255.858z"/>
	<path style="fill:#233862;" d="M2365.078,850.017c-0.717-0.748-1.465-0.176-2.16,0.995c-0.877,1.474-1.672,3.894-2.22,5.823
		c-0.474,1.667-0.765,2.966-0.765,2.966s0.03,0.117,0.088,0.329c1.021,3.757,11.276,39.272,36.813,51.076
		c0,0-11.775-10.448-20.428-24.95c-4.441-7.445-8.061-15.955-8.838-24.673C2366.92,854.302,2366.025,851.005,2365.078,850.017z"/>
	<path style="fill:#FFA25C;" d="M2408.129,1258.184c11.235-2.492,19.926-14.355,26.133-35.496
		c2.055,14.775,6.662,32.095,16.996,33.171c10.769,1.113,17.511,0.331,21.518-2.038c2.284-1.351,3.682-3.215,4.422-5.542
		c0.586-1.845,0.761-4.424,0.595-7.65c-11.356-3.794-25.931-13.884-43.435-36.501c-46.337-59.889-3.934-130.269,1.749-131.58
		s16.384,45.533,16.384,45.533c0.09,0.023,0.191,0.05,0.286,0.074c5.55,1.444,21.517,4.257,40.277-4.485
		c1.403-0.653,2.821-1.366,4.253-2.155c-8.621-42.07-20.879-101.05-33.153-124.419c-0.187-0.353-0.43-0.696-0.7-1.036
		c-0.594-0.746-1.369-1.462-2.324-2.147c0.075-0.092,0.116-0.142,0.119-0.146c0,0,0.003-0.003,0.003-0.003
		c-0.019-0.013-0.038-0.025-0.056-0.039c-2.062-1.491-4.505-2.795-7.126-3.935c-12.036-5.233-27.843-6.964-27.843-6.964
		s-0.005,0.021-0.006,0.025c-0.07,0.314-2.567,11.342-5.539,21.249c-2.088,6.961-4.408,13.362-6.283,15.079
		c-4.582,4.196-71.001,11.068-72.531,3.436c-1.46-7.291,17.27-35.65,18.668-38.151c0.02-0.031-0.201-0.027-0.527-0.005
		c-0.864,0.057-2.491,0.24-2.491,0.24c-7.571,0.996-12.913,1.756-16.769,2.412c-7.545,1.294-9.425,2.195-11.305,3.637
		c-0.421,0.421-0.851,0.883-1.285,1.384c2.557-1.936,4.128-2.729,4.128-2.729s7.221,100.926-10.753,99.968
		c-1.836-0.099-3.622-0.388-5.357-0.815c-0.916,15.318-3.529,34.295-6.241,54.234c-4.807,35.337-9.899,73.648-6.3,99.787
		c1.236,8.981,6.516,15.38,14.108,19.872c12.589,7.448,31.553,9.646,49.101,9.616
		C2385.032,1262.033,2401.692,1259.615,2408.129,1258.184z"/>
	<path style="fill:#FFB27D;" d="M2211.582,1023.381c-0.037,0.04-0.075,0.082-0.113,0.122c0.137,1.03,0.217,1.652,0.217,1.652v-1.43
		L2211.582,1023.381z"/>
	<path style="fill:#FFB27D;" d="M2231.95,1053.656c0.026-4.593-0.118-10.21-0.825-14.573l-9.729,2.916
		c-0.002,0.001-0.005,0.001-0.008,0.001l-0.62,0.187c-1.62,2.115-2.869,3.56-2.869,3.56l-6.214-14.195v-6.396l-7.356,12.148
		c0.011-0.044,0.024-0.114,0.038-0.197c-0.643,2.852-0.756,5.782,0.045,8.496c3.055,10.346,15.944,24.345,15.944,24.345l11.39-7.973
		C2231.748,1061.398,2231.925,1057.983,2231.95,1053.656z"/>
	<path style="fill:#2B478B;" d="M2228.191,982.872l14.892,49.685c0.446,1.491-0.399,3.063-1.892,3.509l-19.803,5.935
		c0.003,0,0.006,0,0.008-0.001l9.729-2.916l6.59-1.975l7.018-2.104c0.84-0.252,1.317-1.138,1.065-1.979l-15.598-52.04
		c-0.252-0.841-1.138-1.318-1.978-1.066l-5.255,1.575l1.715-0.514C2226.173,980.535,2227.744,981.381,2228.191,982.872z"/>
	<path style="fill:#233862;" d="M2208.222,1002.843c0.791,2.639,2.423,14.485,3.128,19.761l0.232,0.777l0.104,0.345v-0.432
		c0,0,9.807-15.089,12.203-14.25c3.313,1.16-8.133,19.158-8.855,20.29c0.6-0.937,9.138-14.214,10.512-13.177
		c3.247,2.452-1.922,11.442-7.047,18.334c0,0,9.174-8.401,9.473-6.888c0.697,3.524-3.986,10.383-7.202,14.583l0.62-0.187
		l19.803-5.935c1.492-0.446,2.338-2.018,1.892-3.509l-14.892-49.685c-0.447-1.491-2.019-2.337-3.509-1.891l-1.715,0.514
		l-19.267,5.774c-1.49,0.447-2.338,2.018-1.891,3.509l5.23,17.453C2207.498,1004.262,2207.92,1001.834,2208.222,1002.843z"/>
	<path style="fill:#233862;" d="M2327.003,1697.989c0.764,1.046,37.118,0.382,39.218-1.146c1.88-1.367,7.134-3.642,14.516-2.597
		c0.262-0.913,0.574-1.819,0.891-2.64c0.725-1.894,2.306-3.329,4.26-3.894c3.658-1.06,10.01-2.037,16.664-5.881
		c-0.684-3.068-1.064-6.006-0.724-8.06c0.488-2.909-0.13-5.268-0.978-6.986c-2.558,1.803-7.955,5.353-11.535,5.818
		c-4.832,0.633-13.872-11.704-13.872-11.704s-18.765,11.856-23.666,16.284c-8.711,7.887-18.224,9.131-23.048,10.528
		c-1.955,0.564-3.535,2-4.26,3.894C2325.85,1690.378,2326.239,1696.943,2327.003,1697.989z"/>
	<path style="fill:#466AA5;" d="M2389.314,1672.605c3.58-0.466,8.978-4.016,11.535-5.818c-0.987-2.039-2.275-3.181-2.435-3.316
		c-0.011-0.009-0.031-0.027-0.031-0.027s-7.52,8.971-11.933,5.253c-8.05-6.797-10.251-7.719-10.821-7.809
		c-0.034-0.005-0.064-0.009-0.088-0.009l-0.1,0.022C2375.442,1660.901,2384.482,1673.238,2389.314,1672.605z"/>
	<path style="fill:#466AA5;" d="M2377.711,1697.623c0.854,0.111,1.647,0.255,2.414,0.414c-0.035-1.112,0.226-2.453,0.611-3.79
		c-7.382-1.045-12.636,1.229-14.516,2.597c-2.1,1.527-38.454,2.191-39.218,1.146s-1.153-7.611-2.534-6.382
		c-1.017,2.629-2.029,6.127-1.18,7.889c0.009,0.017,0.016,0.034,0.024,0.051c0.044,0.087,0.069,0.19,0.124,0.268h45.501
		c0,0,0.03-0.039,0.099-0.107c0.041-0.042,0.1-0.098,0.167-0.16c0.018-0.016,0.037-0.033,0.057-0.051
		C2370.103,1698.747,2372.684,1696.963,2377.711,1697.623z"/>
	<path style="fill:#233862;" d="M2446.473,1672.605c-4.832,0.633-13.871-11.704-13.871-11.704s-18.766,11.856-23.666,16.284
		c-2.107,1.908-4.262,3.421-6.385,4.647c-6.654,3.844-13.006,4.821-16.664,5.881c-1.954,0.564-3.535,2-4.26,3.894
		c1.382-1.229,1.771,5.336,2.535,6.382c0.763,1.046,37.117,0.382,39.217-1.146c2.1-1.526,8.398-4.198,17.178-2.099
		c7.642,1.824,18.902-2.855,21.689-4.101c-1.749-5.152-3.939-12.771-3.26-16.871c0.488-2.909-0.13-5.268-0.978-6.986
		C2455.451,1668.59,2450.054,1672.14,2446.473,1672.605z"/>
	<path style="fill:#466AA5;" d="M2443.61,1668.696c-7.684-6.488-10.034-7.62-10.729-7.788c-0.077-0.019-0.14-0.028-0.181-0.029
		l-0.1,0.022c0,0,9.039,12.337,13.871,11.704c3.581-0.466,8.979-4.016,11.536-5.818c-1.054-2.175-2.466-3.344-2.466-3.344
		s-0.085,0.101-0.235,0.27C2454.011,1665.174,2447.564,1672.028,2443.61,1668.696z"/>
	<path style="fill:#466AA5;" d="M2464.2,1695.981c0,0-0.894-2.214-1.954-5.337c-2.787,1.245-14.048,5.925-21.689,4.101
		c-8.779-2.1-15.078,0.572-17.178,2.099c-2.1,1.527-38.454,2.191-39.217,1.146c-0.764-1.046-1.153-7.611-2.535-6.382
		c-0.316,0.82-0.629,1.727-0.891,2.64c-0.386,1.337-0.646,2.678-0.611,3.79c0.019,0.563,0.127,1.051,0.324,1.459
		c0.008,0.017,0.015,0.034,0.023,0.051c0.044,0.087,0.07,0.19,0.124,0.268h45.501c0,0,0.029-0.039,0.099-0.107
		c0.041-0.042,0.1-0.098,0.167-0.16c0.018-0.016,0.037-0.033,0.057-0.051c0.842-0.749,3.422-2.533,8.449-1.873
		c3.262,0.426,5.715,1.289,8.729,1.873c0.093,0.018,0.191,0.033,0.286,0.051c0.297,0.055,0.592,0.111,0.901,0.16h10.711
		c0.403-0.051,0.782-0.104,1.149-0.16c0.111-0.017,0.223-0.033,0.331-0.051C2464.65,1698.269,2464.2,1695.981,2464.2,1695.981z"/>
	<path style="fill:#EF8C48;" d="M2436.106,1072.547c-5.683,1.312-48.086,71.691-1.749,131.58
		c17.504,22.617,32.078,32.707,43.435,36.501c-1.102-22.075-17.896-74.096-25.302-122.548
		C2452.49,1118.08,2441.789,1071.235,2436.106,1072.547z"/>
	<path style="fill:#FFA25C;" d="M2315.018,1078.255c0.383,0.11,0.771,0.205,1.158,0.3c1.735,0.428,3.521,0.717,5.357,0.815
		c17.974,0.958,10.753-99.968,10.753-99.968s-1.571,0.793-4.128,2.729c-8.939,6.772-29.953,27.566-38.172,77.676
		c0,0,0.067,0.092,0.186,0.247C2291.604,1061.931,2301.496,1074.372,2315.018,1078.255z"/>
	<path style="fill:#FFB27D;" d="M2227.971,1027.604c-0.299-1.514-9.473,6.888-9.473,6.888c5.125-6.892,10.294-15.882,7.047-18.334
		c-1.374-1.037-9.912,12.24-10.512,13.177c0.723-1.132,12.168-19.13,8.855-20.29c-2.396-0.839-12.203,14.25-12.203,14.25v0.432v1.43
		v6.396l6.214,14.195c0,0,1.249-1.444,2.869-3.56C2223.984,1037.986,2228.668,1031.128,2227.971,1027.604z"/>
	<path style="fill:#FFB27D;" d="M2211.686,1025.155c0,0-0.08-0.622-0.217-1.652c-0.036-0.272-0.076-0.573-0.119-0.899
		c-0.705-5.275-2.337-17.122-3.128-19.761c-0.302-1.009-0.724,1.419-1.181,5.389c-1.053,9.159-2.29,26.529-2.674,28.875
		c-0.014,0.083-0.027,0.153-0.038,0.197L2211.686,1025.155z"/>
	<path style="fill:#FFFFFF;" d="M2366.471,923.146c-10.169-4.348-17.732-1.428-17.732-1.428c-0.239,4.105,7.562,4.587,7.562,4.587
		C2365.591,926.88,2366.471,923.146,2366.471,923.146z"/>
	<path style="fill:#FFB27D;" d="M2518.693,1262.868l-0.001-0.005l15.503,10.434c0,0,0.818,2.89,1.589,6.337
		c6.448,1.711,14.31,3.236,17.423,8.685c4.694,8.215,9.389,7.511,9.389,7.511s-0.489-1.414-1.254-3.567
		c-0.648-0.158-1.208-0.475-1.563-1.05c-1.643-2.659-9.153-17.915-9.153-17.915c0.19,0.285,2.969,3.287,6.203,6.755
		c-1.368-3.516-2.697-6.703-3.621-8.397c-2.816-5.164-21.244-17.414-21.244-17.414l-15.273,4.582
		C2516.689,1258.822,2517.465,1260.507,2518.693,1262.868z"/>
	<path style="fill:#FFB27D;" d="M2518.692,1262.863l0.001,0.005c0.021,0.098,3.075,14.434,6.818,18.644
		c3.756,4.225,8.919,11.266,11.031,9.389c1.207-1.073,0.268-6.668-0.759-11.267c-0.771-3.447-1.589-6.337-1.589-6.337
		L2518.692,1262.863z"/>
	<path style="fill:#FFB27D;" d="M2559.778,1291.212c0.355,0.575,0.915,0.892,1.563,1.05c2.35,0.573,5.947-1.05,5.947-1.05
		s-5.721-6.08-10.461-11.16c-3.234-3.468-6.013-6.47-6.203-6.755C2550.625,1273.297,2558.136,1288.553,2559.778,1291.212z"/>
	<path style="fill:#4C88F2;" d="M2535.797,743.578c1.283,31.761,10.145,59.343,31.176,78.897l-23.741,59.338l48.313-42.929
		c19.402,9.168,44.735,14.31,77.331,14.31c9.379,0,18.156-0.37,26.371-1.086c76.432-6.666,103.47-43.766,100.016-100.618
		c-5.147-84.695-57.248-108.331-112.061-113.161c-8.527-0.752-17.118-1.052-25.609-1.052
		C2594.514,637.277,2532.823,669.977,2535.797,743.578z M2585.131,745.176h87.35v6.822h-87.35V745.176z M2585.131,771.042v-6.822
		h114.457v6.822H2585.131z M2746.114,751.998h-66.803v-6.822h66.803V751.998z M2699.588,726.131v6.822h-114.457v-6.822H2699.588z"/>
	<rect x="2585.131" y="726.131" style="fill:#FFFFFF;" width="114.457" height="6.822"/>
	<rect x="2585.131" y="764.221" style="fill:#FFFFFF;" width="114.457" height="6.822"/>
	<rect x="2585.131" y="745.176" style="fill:#FFFFFF;" width="87.35" height="6.822"/>
	<rect x="2679.312" y="745.176" style="fill:#FFFFFF;" width="66.803" height="6.822"/>
	<path style="fill:#FFA25C;" d="M890.381,823.614l-21.008,52.507l42.75-37.987c17.17,8.113,39.586,12.663,68.429,12.663
		c85.523,0,115.223-34.282,111.837-89.997c-5.263-86.603-66.005-101.065-121.821-101.065c-55.817,0-110.406,28.935-107.774,94.064
		C863.93,781.904,871.771,806.311,890.381,823.614z M1048.901,761.25h-59.113v-6.037h59.113V761.25z M906.449,738.361h101.281v6.037
		H906.449V738.361z M906.449,755.213h77.294v6.037h-77.294V755.213z M906.449,772.065h101.281v6.037H906.449V772.065z"/>
	<rect x="906.449" y="738.361" style="fill:#FFFFFF;" width="101.281" height="6.037"/>
	<rect x="906.449" y="772.065" style="fill:#FFFFFF;" width="101.281" height="6.037"/>
	<rect x="906.449" y="755.213" style="fill:#FFFFFF;" width="77.294" height="6.037"/>
	<rect x="989.788" y="755.213" style="fill:#FFFFFF;" width="59.113" height="6.037"/>
	<path style="fill:#DFEDFB;" d="M1015.923,447.185c0.706,3.144,3.648,5.294,6.86,4.952l23.939-2.537
		c2.661-0.289,5.208,1.163,6.284,3.577c4.722,10.14,10.96,19.518,18.556,27.748c1.908,2.115,2.146,5.237,0.545,7.621l-11.917,17.769
		c-1.809,2.711-1.273,6.287,1.186,8.349l20.302,17.125c2.406,2.017,5.953,1.852,8.142-0.353l19.974-19.944
		c1.685-1.699,4.196-2.277,6.474-1.524c2.798,0.946,5.655,1.78,8.572,2.502c5.505,1.364,10.996,2.28,16.433,2.774
		c2.477,0.203,4.592,1.863,5.296,4.249l8.637,28.008c0.974,3.083,4.093,4.898,7.23,4.222l25.969-5.635
		c2.743-0.615,4.73-3.029,4.843-5.781c0.007-0.283,0.021-0.595-0.032-0.892l-2.803-26.563c-0.273-2.468,0.918-4.858,3.08-6.06
		c0.186-0.112,0.371-0.224,0.579-0.299c0.602-0.262,1.167-0.501,1.753-0.829c6.982-3.199,13.622-7.177,19.791-11.808
		c2.034-1.581,4.889-1.632,7.049-0.15l18.775,12.577c2.651,1.794,6.256,1.265,8.318-1.194l3.797-4.492l13.208-15.712
		c2.092-2.451,1.92-6.094-0.353-8.394l-16.739-16.717c-1.803-1.773-2.241-4.471-1.197-6.771c2.753-6.015,5.006-12.438,6.665-19.134
		c1.231-4.97,2.097-9.999,2.599-14.96l4.89-1.506l20.049-6.217c2.489-0.742,4.188-3.006,4.271-5.512
		c0.037-0.528-0.024-1.048-0.145-1.583l-5.613-26.059c-0.691-3.077-3.596-5.123-6.704-4.818l-16.355,1.762
		c-2.758,0.296-5.446-1.349-6.412-3.957c-3.987-10.811-9.639-20.896-16.738-29.856c-1.685-2.123-1.818-5.03-0.306-7.183
		l15.067-22.453c1.668-2.525,1.207-5.893-1.118-7.858l-20.548-17.28c-2.429-2.055-6.005-1.897-8.201,0.338l-20.775,20.757
		c-1.773,1.803-4.457,2.307-6.801,1.316c-5.002-2.124-10.263-3.837-15.739-5.193c-2.947-0.729-5.893-1.333-8.838-1.81
		c-2.306-0.381-4.206-2.021-4.917-4.25l-8.292-26.848c-0.967-3.114-4.109-4.966-7.305-4.304l-25.308,5.515l-0.602,0.135
		c-3.077,0.691-5.145,3.559-4.811,6.673l2.286,21.508c0.038,0.356,0.046,0.706,0.025,1.048c-0.181,2.388-1.723,4.533-4.033,5.318
		c-13.546,4.827-25.97,12.269-36.582,21.959c-0.446,0.395-0.936,0.716-1.441,0.97c-1.938,0.941-4.304,0.798-6.15-0.418
		l-14.969-10.087c-1.981-1.312-4.532-1.343-6.515-0.224c-0.594,0.359-1.181,0.813-1.67,1.387l-17.043,20.227
		c-2.099,2.481-1.949,6.214,0.383,8.529l16.993,16.968c1.669,1.677,2.225,4.152,1.42,6.385c-1.116,3.229-2.113,6.489-2.945,9.852
		c-1.563,6.31-2.522,12.61-2.933,18.858l-0.007,0.029c-0.172,2.611-1.885,4.809-4.382,5.58l-23.296,7.213l-1.167,0.374
		c-3.002,0.898-4.847,4.011-4.163,7.118L1015.923,447.185z M1096.324,387.688c2.484-6.713,6.261-13.295,11.475-19.553
		c1.09-1.341,2.47-2.705,3.977-4.068c6.583-5.793,16.187-11.027,23.656-12.621c57.165-12.092,95.07,49.506,59.522,94.842
		c-0.593,0.737-1.187,1.475-1.809,2.205c-5.77,6.847-17.749,14.02-26.475,15.966c-4.579,1.014-9.039,1.552-13.337,1.688
		C1110.348,467.283,1082.206,425.948,1096.324,387.688z"/>
	<path style="fill:#FFA25C;" d="M1335.473,1630.18c0,29.696,24.16,53.856,53.857,53.856h541.265
		c29.695,0,53.854-24.16,53.854-53.856V600.545c-0.013,1.424-0.043,2.873-0.104,4.357v63.694h-648.678v-64.341
		c0-7.951,0.361-15.435,1.361-22.319c-1.008,4.112-1.555,8.404-1.555,12.823V1630.18z M1457.681,1554.687v-85.802h13.738v85.802
		H1457.681z M1496.762,1554.687v-110.545h13.738v110.545H1496.762z M1549.582,1554.687h-13.738v-87.676h13.738V1554.687z
		 M1588.663,1554.687h-13.738v-127.392h13.738V1554.687z M1627.745,1554.687h-13.738v-153.432h13.738V1554.687z M1666.826,1554.687
		h-13.738v-129.756h13.738V1554.687z M1705.908,1554.687h-13.738v-91.734h13.738V1554.687z M1744.989,1554.687h-13.737v-63.696
		h13.737V1554.687z M1784.071,1554.687h-13.738v-81.306h13.738V1554.687z M1823.152,1554.687h-13.737v-110.545h13.737V1554.687z
		 M1862.234,1554.687h-13.738v-91.734h13.738V1554.687z M1659.961,789.042c141.041,0,255.378,114.336,255.378,255.377
		s-114.337,255.378-255.378,255.378c-141.041,0-255.377-114.337-255.377-255.378S1518.92,789.042,1659.961,789.042z"/>
	<path style="fill:#FFA25C;" d="M1984.449,594.759c0-3.854-0.415-7.612-1.188-11.239c0.794,4.858,1.194,10.21,1.188,16.066V594.759z
		"/>
	<path style="fill:#FFA25C;" d="M1940.322,541.799c-3.158-0.579-6.405-0.897-9.728-0.897H1869.6l51.18,0.436
		C1927.703,540.891,1934.245,541.017,1940.322,541.799z"/>
	<path style="fill:#FFFFFF;" d="M1335.667,668.597h648.678v-63.694c0.062-1.485,0.092-2.933,0.104-4.357v-0.96
		c0.006-5.856-0.395-11.209-1.188-16.066c-4.518-21.192-21.536-37.798-42.938-41.721c-6.077-0.782-12.619-0.908-19.543-0.46
		l-51.18-0.436h-480.27c-25.278,0-46.533,17.51-52.302,41.034c-1,6.884-1.361,14.368-1.361,22.319V668.597z M1895.353,643.781
		l-12.477-8.811c2.765-3.891,7.331-6.464,12.477-6.464c5.113,0,9.647,2.508,12.413,6.367L1895.353,643.781z M1917.541,627.863
		c-4.952-6.914-13.056-11.415-22.188-11.415c-9.197,0-17.365,4.566-22.316,11.576l-7.879-5.531
		c6.688-9.486,17.719-15.692,30.195-15.692c12.349,0,23.313,6.078,30.035,15.435L1917.541,627.863z M1932.848,616.898
		c-8.425-11.577-22.092-19.133-37.495-19.133c-15.532,0-29.295,7.685-37.688,19.422l-7.879-5.531
		c10.13-14.246,26.786-23.539,45.566-23.539c18.619,0,35.147,9.133,45.31,23.185L1932.848,616.898z M1895.353,565.543
		c26.176,0,49.36,12.895,63.542,32.671l-7.813,5.627c-12.445-17.333-32.801-28.651-55.729-28.651
		c-23.12,0-43.604,11.512-56.018,29.069l-7.878-5.531C1845.605,578.663,1868.952,565.543,1895.353,565.543z"/>
	<path style="fill:#ED7D2B;" d="M1659.961,1299.798c141.041,0,255.378-114.337,255.378-255.378s-114.337-255.377-255.378-255.377
		c-141.041,0-255.377,114.336-255.377,255.377S1518.92,1299.798,1659.961,1299.798z M1599.405,1010.402h34.347V998.99h-34.347v-14.8
		h34.347v-11.399h-34.347v-15.521h34.347v-11.399h-34.347v-45.664c0-31.939,26.144-58.083,58.083-58.083h4.951
		c31.939,0,58.07,26.145,58.07,58.083v45.664h-31.898v11.399h31.898v15.521h-31.898v11.399h31.898v14.8h-31.898v11.413h31.898
		v40.087c0,31.939-26.131,58.084-58.07,58.084h-4.951c-31.939,0-58.083-26.145-58.083-58.084V1010.402z M1555.308,939.988
		c0-5.089,4.125-9.215,9.215-9.215s9.215,4.125,9.215,9.215v106.931c0,47.544,38.68,86.224,86.223,86.224
		c47.544,0,86.225-38.68,86.225-86.224V939.988c0-5.089,4.125-9.215,9.214-9.215c5.09,0,9.215,4.125,9.215,9.215v106.931
		c0,54.601-42.032,99.562-95.438,104.243v91.68c0,5.09-4.125,9.215-9.215,9.215c-5.089,0-9.215-4.125-9.215-9.215v-91.68
		c-53.405-4.682-95.438-49.643-95.438-104.243V939.988z"/>
	<path style="fill:#FFFFFF;" d="M1657.488,1108.573h4.951c31.939,0,58.07-26.145,58.07-58.084v-40.087h-31.898V998.99h31.898v-14.8
		h-31.898v-11.399h31.898v-15.521h-31.898v-11.399h31.898v-45.664c0-31.939-26.131-58.083-58.07-58.083h-4.951
		c-31.939,0-58.083,26.145-58.083,58.083v45.664h34.347v11.399h-34.347v15.521h34.347v11.399h-34.347v14.8h34.347v11.413h-34.347
		v40.087C1599.405,1082.429,1625.549,1108.573,1657.488,1108.573z"/>
	<path style="fill:#FFFFFF;" d="M1669.176,1142.357v8.805c53.406-4.682,95.438-49.643,95.438-104.243V939.988
		c0-5.089-4.125-9.215-9.215-9.215c-5.089,0-9.214,4.125-9.214,9.215v106.931c0,47.544-38.681,86.224-86.225,86.224
		C1665.051,1133.143,1669.176,1137.268,1669.176,1142.357z"/>
	<path style="fill:#FFFFFF;" d="M1650.746,1151.162v-8.805c0-5.09,4.126-9.215,9.215-9.215c-47.543,0-86.223-38.68-86.223-86.224
		V939.988c0-5.089-4.125-9.215-9.215-9.215s-9.215,4.125-9.215,9.215v106.931C1555.308,1101.52,1597.341,1146.48,1650.746,1151.162z
		"/>
	<path style="fill:#FFFFFF;" d="M1650.746,1142.357v8.805v91.68c0,5.09,4.126,9.215,9.215,9.215c5.09,0,9.215-4.125,9.215-9.215
		v-91.68v-8.805c0-5.09-4.125-9.215-9.215-9.215C1654.872,1133.143,1650.746,1137.268,1650.746,1142.357z"/>
	<rect x="1457.681" y="1468.885" style="fill:#FFFFFF;" width="13.738" height="85.802"/>
	<rect x="1496.762" y="1444.142" style="fill:#FFFFFF;" width="13.738" height="110.545"/>
	<rect x="1535.844" y="1467.011" style="fill:#FFFFFF;" width="13.738" height="87.676"/>
	<rect x="1574.925" y="1427.295" style="fill:#FFFFFF;" width="13.738" height="127.392"/>
	<rect x="1614.007" y="1401.255" style="fill:#FFFFFF;" width="13.738" height="153.432"/>
	<rect x="1653.088" y="1424.931" style="fill:#FFFFFF;" width="13.738" height="129.756"/>
	<rect x="1692.17" y="1462.952" style="fill:#FFFFFF;" width="13.738" height="91.734"/>
	<rect x="1731.252" y="1490.99" style="fill:#FFFFFF;" width="13.737" height="63.696"/>
	<rect x="1770.333" y="1473.381" style="fill:#FFFFFF;" width="13.738" height="81.306"/>
	<rect x="1809.415" y="1444.142" style="fill:#FFFFFF;" width="13.737" height="110.545"/>
	<rect x="1848.496" y="1462.952" style="fill:#FFFFFF;" width="13.738" height="91.734"/>
	<path style="fill:#ED7D2B;" d="M1895.353,628.506c-5.146,0-9.712,2.573-12.477,6.464l12.477,8.811l12.413-8.908
		C1905,631.015,1900.466,628.506,1895.353,628.506z"/>
	<path style="fill:#ED7D2B;" d="M1895.353,606.801c-12.477,0-23.507,6.206-30.195,15.692l7.879,5.531
		c4.951-7.01,13.119-11.576,22.316-11.576c9.133,0,17.236,4.501,22.188,11.415l7.847-5.628
		C1918.666,612.878,1907.701,606.801,1895.353,606.801z"/>
	<path style="fill:#ED7D2B;" d="M1895.353,575.19c22.928,0,43.283,11.319,55.729,28.651l7.813-5.627
		c-14.182-19.776-37.366-32.671-63.542-32.671c-26.4,0-49.747,13.12-63.896,33.186l7.878,5.531
		C1851.748,586.703,1872.232,575.19,1895.353,575.19z"/>
	<path style="fill:#ED7D2B;" d="M1895.353,588.117c-18.78,0-35.437,9.293-45.566,23.539l7.879,5.531
		c8.393-11.737,22.155-19.422,37.688-19.422c15.403,0,29.07,7.557,37.495,19.133l7.814-5.596
		C1930.5,597.25,1913.972,588.117,1895.353,588.117z"/>
	<path style="fill:#2B478B;" d="M1320.013,1273.831v169.807v24.023v0.313v47.096v115.11c0,38.221,31.096,69.316,69.317,69.316
		h541.265c38.22,0,69.315-31.096,69.315-69.316v-136.725v-83.279v-34.539V1249.86V925.632V712.869v-118.11
		c0-11.913-3.022-23.133-8.339-32.936c-11.739-21.648-34.67-36.38-60.977-36.38h-40.641h-409.311h-91.313
		c-38.222,0-69.317,31.095-69.317,69.316v14.694v417.541V1273.831z M1389.33,540.902h480.27h60.995c3.322,0,6.569,0.318,9.728,0.897
		c21.402,3.923,38.421,20.529,42.938,41.721c0.773,3.627,1.188,7.385,1.188,11.239v4.827v0.96V1630.18
		c0,29.696-24.159,53.856-53.854,53.856H1389.33c-29.697,0-53.857-24.16-53.857-53.856V594.759c0-4.419,0.546-8.711,1.555-12.823
		C1342.797,558.412,1364.052,540.902,1389.33,540.902z"/>
</g>
</svg>
