<?xml version="1.0" encoding="UTF-8"?>
<!-- Generated by Pixelmator Pro 3.5.7 -->
<svg width="1875" height="1875" viewBox="0 0 1875 1875" xmlns="http://www.w3.org/2000/svg">
    <g id="g1">
        <g id="g2"/>
        <g id="g3"/>
        <g id="g4">
            <path id="path1" fill="#131313" stroke="none" d="M 1658.813354 962.605835 C 1658.813354 1353.24292 1342.138794 1669.922119 951.505432 1669.922119 C 560.866211 1669.922119 244.193329 1353.24292 244.193329 962.605835 C 244.193329 571.972534 560.866211 255.300049 951.505432 255.300049 C 1342.138794 255.300049 1658.813354 571.972534 1658.813354 962.605835 Z"/>
            <g id="g5">
                <g id="g6">
                    <clipPath id="clipPath1">
                        <path d="M 951.505431 962.613794 L 951.505431 962.613794 C 959.61499 962.463342 967.602477 962.308801 975.480041 962.162134 C 983.35791 962.015894 991.125427 961.877527 998.783325 961.735071 C 1006.441223 961.592493 1013.997497 961.450037 1021.451721 961.31167 C 1028.906249 961.173364 1036.267089 961.043359 1043.534179 960.909143 C 1050.801635 960.774622 1057.975341 960.632532 1065.067504 960.5021 C 1072.159911 960.372095 1079.170898 960.237512 1086.100341 960.107507 C 1093.02954 959.977136 1099.882079 959.851282 1106.665038 959.725 C 1113.447997 959.598779 1120.157836 959.472559 1126.80664 959.350427 C 1133.455444 959.228357 1140.043334 959.106287 1146.57373 958.984583 C 1153.104492 958.862512 1159.582519 958.740442 1166.007446 958.622156 C 1172.432494 958.504175 1178.804565 958.386255 1185.140014 958.268396 C 1191.475463 958.150415 1197.757934 958.032129 1204.016235 957.914209 C 1210.274169 957.796228 1216.503784 957.68252 1222.697021 957.568384 C 1228.890014 957.454553 1235.054565 957.328394 1241.19873 957.214197 C 1247.342895 957.100427 1253.470825 956.986719 1259.578369 956.872522 C 1265.68579 956.758752 1271.7854 956.648767 1277.872924 956.535059 C 1283.95996 956.420862 1290.039184 956.315027 1296.12207 956.201257 C 1302.205444 956.087122 1308.284667 955.969202 1314.371581 955.855432 C 1320.459106 955.741296 1326.554077 955.627527 1332.665893 955.51333 C 1338.777587 955.399622 1344.901611 955.285852 1351.045898 955.171655 C 1357.189941 955.057947 1363.354614 954.947961 1369.547485 954.834192 C 1375.740478 954.719995 1381.966308 954.602136 1388.22412 954.484216 C 1394.482543 954.366235 1400.769164 954.244165 1407.104614 954.125879 C 1413.439941 954.007959 1419.812133 953.889978 1426.23706 953.772119 C 1432.662109 953.654199 1439.139892 953.540002 1445.67041 953.417932 C 1452.201171 953.295862 1458.789184 953.173791 1465.437988 953.051721 C 1472.086669 952.92959 1478.796264 952.799646 1485.579589 952.673364 C 1492.362426 952.547083 1499.210327 952.421289 1506.140014 952.290857 C 1513.069579 952.160852 1520.084594 952.030481 1527.177001 951.900415 C 1534.269164 951.770044 1541.44287 951.627527 1548.70996 951.493372 C 1555.977538 951.359216 1563.334106 951.228784 1570.79248 951.090479 C 1578.25122 950.952112 1585.799194 950.809656 1593.461181 950.667505 C 1601.122924 950.525049 1608.886718 950.382532 1616.76416 950.235864 C 1624.642089 950.089624 1632.629516 949.939172 1640.738769 949.788354 C 1640.405395 931.874597 1639.392089 914.223352 1637.74414 896.846643 C 1636.096191 879.469995 1633.821655 862.371667 1630.94873 845.5646 C 1628.076293 828.757959 1624.609619 812.243799 1620.589233 796.036646 C 1616.569091 779.82998 1611.995483 763.934106 1606.909179 748.356226 C 1601.822875 732.777979 1596.21582 717.517114 1590.136718 702.592065 C 1584.057494 687.66665 1577.49414 673.075464 1570.491699 658.829614 C 1563.488769 644.584131 1556.04663 630.684595 1548.185424 617.138818 C 1540.32373 603.59292 1532.055785 590.399194 1523.404907 577.57583 C 1514.75415 564.7521 1505.720825 552.292871 1496.33789 540.210107 C 1486.954589 528.1271 1477.225829 516.418359 1467.171264 505.094629 C 1457.116699 493.77041 1446.728393 482.82876 1436.051269 472.282129 C 1425.374267 461.73501 1414.416625 451.576685 1403.173705 441.821313 C 1391.931274 432.06582 1380.41162 422.711328 1368.652465 413.761255 C 1356.892944 404.81167 1344.893432 396.270898 1332.665893 388.142969 C 1320.43872 380.015039 1307.987426 372.298364 1295.337035 365.002588 C 1282.686279 357.706689 1269.836303 350.82998 1256.803344 344.380884 C 1243.770507 337.931299 1230.546142 331.911279 1217.171264 326.318384 C 1203.796264 320.725488 1190.254638 315.564233 1176.578735 310.83999 C 1162.902953 306.115869 1149.084594 301.820825 1135.140014 297.973779 C 1121.195434 294.126245 1107.132934 290.726709 1092.960327 287.768823 C 1078.788329 284.810449 1064.502075 282.300073 1050.13037 280.240869 C 1035.7583 278.182153 1021.305419 276.574609 1006.770812 275.423364 C 992.236266 274.271753 977.624572 273.573755 962.955871 273.33999 C 948.287048 273.105859 933.487914 273.33999 918.90454 274.02334 C 904.321227 274.707178 889.904601 275.834253 875.66748 277.39248 C 861.429992 278.95083 847.371215 280.94082 833.496215 283.333398 C 819.620849 285.725854 805.93457 288.521265 792.439575 291.707544 C 778.944946 294.893335 765.651244 298.469995 752.555419 302.408838 C 739.459167 306.347559 726.558288 310.65249 713.875366 315.30752 C 701.192077 319.962549 688.718749 324.969629 676.464965 330.305811 C 664.210815 335.64248 652.174987 341.30874 640.364562 347.290063 C 628.554138 353.271753 616.973754 359.566309 605.62329 366.162134 C 594.272949 372.757959 583.158325 379.655054 572.282104 386.832544 C 561.405456 394.0104 550.767089 401.475 540.380859 409.204248 C 529.994567 416.933374 519.860839 424.928735 509.977081 433.182886 C 500.093749 441.43667 490.460021 449.942896 481.095397 458.691309 C 471.730438 467.4396 462.62622 476.428369 453.79251 485.644678 C 444.958343 494.860864 436.395416 504.309229 428.108764 513.968774 C 419.822082 523.628809 411.818359 533.504175 404.093322 543.583398 C 396.368347 553.662134 388.928314 563.940454 381.779174 574.414209 C 374.629577 584.887476 367.77124 595.552515 361.214172 606.396753 C 354.657073 617.240381 348.400848 628.26333 342.447906 639.457056 C 336.494994 650.65127 330.851226 662.013818 325.520843 673.535059 C 320.190429 685.056665 315.175414 696.736719 310.481689 708.565454 C 305.788329 720.393823 301.412078 732.36709 297.371246 744.482568 C 293.33084 756.597925 289.624175 768.851709 286.255004 781.233789 C 282.885833 793.615869 279.856231 806.127954 277.172913 818.758325 C 274.489167 831.38833 272.151673 844.132471 270.174164 856.990442 C 268.196686 869.848779 266.579162 882.81875 265.323761 895.886255 C 264.068756 908.95376 263.183746 922.123376 262.670837 935.38418 C 262.158325 948.645044 262.022095 962.003809 262.272095 975.4396 C 262.522522 988.875391 263.154999 1002.205408 264.160004 1015.437891 C 265.165009 1028.670435 266.53833 1041.797083 268.277923 1054.809595 C 270.017486 1067.822168 272.121247 1080.729211 274.57666 1093.505884 C 277.032502 1106.282556 279.839996 1118.925012 282.991668 1131.445459 C 286.142913 1143.965753 289.627899 1156.355768 293.457092 1168.603387 C 297.285827 1180.851251 301.452514 1192.960321 305.940826 1204.915338 C 310.428741 1216.869989 315.238342 1228.6784 320.369598 1240.323785 C 325.500427 1251.969537 330.946655 1263.456232 336.702514 1274.77215 C 342.457916 1286.087946 348.518737 1297.22912 354.882903 1308.195001 C 361.246673 1319.160822 367.913757 1329.952081 374.870025 1340.543756 C 381.825836 1351.13537 389.08084 1361.527521 396.614593 1371.728387 C 404.148315 1381.929529 411.964996 1391.922876 420.060424 1401.7091 C 428.155425 1411.494958 436.525421 1421.065393 445.165832 1430.411646 C 453.80664 1439.758295 462.713744 1448.880884 471.883331 1457.763788 C 481.05249 1466.646173 490.478332 1475.280878 500.162933 1483.674982 C 509.847076 1492.069604 519.78955 1500.219598 529.972473 1508.097437 C 540.155029 1515.97912 550.580016 1523.596185 561.246703 1530.932497 C 571.913696 1538.269167 582.82666 1545.332979 593.961669 1552.099611 C 605.096252 1558.866243 616.455016 1565.348299 628.043762 1571.517061 C 639.632079 1577.685426 651.444579 1583.540865 663.468383 1589.078767 C 675.492492 1594.616701 687.73413 1599.837099 700.179138 1604.712038 C 712.624145 1609.586732 725.270385 1614.131685 738.118347 1618.310426 C 750.966247 1622.489547 764.011657 1626.31047 777.246215 1629.760864 C 790.480407 1633.211258 803.902038 1636.283371 817.505004 1638.964965 C 831.107543 1641.646194 844.891235 1643.941238 858.845825 1645.817062 C 872.798705 1647.692871 886.926269 1649.149582 901.212524 1650.179169 C 915.498718 1651.208374 929.950012 1651.79837 944.547546 1651.936722 C 959.147094 1652.074936 973.937927 1651.757935 988.590453 1650.976685 C 1003.242919 1650.195435 1017.809997 1648.958328 1032.291625 1647.265884 C 1046.773315 1645.572922 1061.169555 1643.436691 1075.45581 1640.844604 C 1089.742065 1638.252899 1103.914672 1635.204956 1117.968749 1631.722137 C 1132.022827 1628.2388 1145.951171 1624.316284 1159.74121 1619.954561 C 1173.531249 1615.592439 1187.182494 1610.794954 1200.675414 1605.566286 C 1214.168334 1600.337862 1227.498412 1594.677858 1240.657592 1588.590364 C 1253.81665 1582.503389 1266.805053 1575.988771 1279.589965 1569.059114 C 1292.374511 1562.129579 1304.95996 1554.781221 1317.334106 1547.021608 C 1329.708007 1539.262148 1341.85791 1531.087099 1353.776244 1522.509637 C 1365.694213 1513.93255 1377.368285 1504.935815 1388.785766 1495.556635 C 1400.203369 1486.177423 1411.360839 1476.403802 1422.23291 1466.235468 C 1433.105468 1456.06701 1443.689208 1445.507928 1453.963378 1434.570428 C 1464.237426 1423.632928 1474.210327 1412.325037 1483.83789 1400.634637 C 1493.465087 1388.944604 1502.750732 1376.875818 1511.677978 1364.453363 C 1520.605468 1352.03045 1529.170898 1339.245477 1537.337158 1326.106622 C 1545.503784 1312.96795 1553.279662 1299.474969 1560.628417 1285.644525 C 1567.977172 1271.814203 1574.902465 1257.645807 1581.37207 1243.147882 C 1587.841674 1228.650018 1593.851684 1213.838678 1599.373412 1198.697931 C 1604.895019 1183.557123 1609.916259 1168.099176 1614.42041 1152.343744 C 1618.924926 1136.588831 1622.90454 1120.528284 1626.318359 1104.182947 C 1629.732177 1087.837854 1632.584594 1071.199548 1634.83081 1054.297083 C 1637.07666 1037.394189 1638.716674 1020.222925 1639.713744 1002.799646 C 1640.710449 985.375879 1641.072509 967.700037 1640.738769 949.788354 C 1632.629516 949.939172 1624.642089 950.089624 1616.76416 950.235864 C 1608.886718 950.382532 1601.122924 950.525049 1593.461181 950.667505 C 1585.799194 950.809656 1578.25122 950.952112 1570.79248 951.090479 C 1563.334106 951.228784 1555.977538 951.359216 1548.70996 951.493372 C 1541.44287 951.627527 1534.269164 951.770044 1527.177001 951.900415 C 1520.084594 952.030481 1513.069579 952.160852 1506.140014 952.290857 C 1499.210327 952.421289 1492.362426 952.547083 1485.579589 952.673364 C 1478.796264 952.799646 1472.086669 952.92959 1465.437988 953.051721 C 1458.789184 953.173791 1452.201171 953.295862 1445.67041 953.417932 C 1439.139892 953.540002 1432.662109 953.654199 1426.23706 953.772119 C 1419.812133 953.889978 1413.439941 954.007959 1407.104614 954.125879 C 1400.769164 954.244165 1394.482543 954.366235 1388.22412 954.484216 C 1381.966308 954.602136 1375.740478 954.719995 1369.547485 954.834192 C 1363.354614 954.947961 1357.189941 955.057947 1351.045898 955.171655 C 1344.901611 955.285852 1338.777587 955.399622 1332.665893 955.51333 C 1326.554077 955.627527 1320.459106 955.741296 1314.371581 955.855432 C 1308.284667 955.969202 1302.205444 956.087122 1296.12207 956.201257 C 1290.039184 956.315027 1283.95996 956.420862 1277.872924 956.535059 C 1271.7854 956.648767 1265.68579 956.758752 1259.578369 956.872522 C 1253.470825 956.986719 1247.342895 957.100427 1241.19873 957.214197 C 1235.054565 957.328394 1228.890014 957.454553 1222.697021 957.568384 C 1216.503784 957.68252 1210.274169 957.800439 1204.016235 957.918359 C 1197.757934 958.036279 1191.475463 958.150415 1185.140014 958.268396 C 1178.804565 958.386255 1172.432494 958.508386 1166.007446 958.626245 C 1159.582519 958.744226 1153.104492 958.862512 1146.57373 958.984583 C 1140.043334 959.106287 1133.455444 959.228357 1126.80664 959.350427 C 1120.157836 959.472559 1113.444091 959.598779 1106.660888 959.725 C 1099.877929 959.851282 1093.02954 959.977136 1086.100341 960.107507 C 1079.170898 960.237512 1072.159911 960.372095 1065.067504 960.5021 C 1057.975341 960.632532 1050.801635 960.774622 1043.534179 960.909143 C 1036.267089 961.043359 1028.906249 961.173364 1021.451721 961.31167 C 1013.997497 961.450037 1006.441223 961.592493 998.783325 961.735071 C 991.125427 961.877527 983.35791 962.019983 975.480041 962.166284 C 967.602477 962.312891 959.61499 962.463342 951.505431 962.613794 Z"/>
                    </clipPath>
                    <g id="g7" clip-path="url(#clipPath1)">
                        <g id="g8"/>
                        <g id="g9"/>
                    </g>
                </g>
            </g>
            <path id="path2" fill="#1a1c14" stroke="none" d="M 951.505432 1264.36377 C 785.117554 1264.36377 649.751648 1128.99585 649.751648 962.605835 C 649.751648 796.222168 785.117554 660.856201 951.505432 660.856201 C 1117.891357 660.856201 1253.255493 796.222168 1253.255493 962.605835 C 1253.255493 1128.99585 1117.891357 1264.36377 951.505432 1264.36377 Z"/>
            <linearGradient id="linearGradient1" x1="583.597917" y1="824.51375" x2="1038.211667" y2="516.8375" gradientUnits="userSpaceOnUse">
                <stop offset="0" stop-color="#083d8c" stop-opacity="1"/>
                <stop offset="0.434982" stop-color="#447be6" stop-opacity="1"/>
                <stop offset="0.672727" stop-color="#2d5bba" stop-opacity="1"/>
                <stop offset="1" stop-color="#123687" stop-opacity="1"/>
            </linearGradient>
            <path id="path3" fill="url(#linearGradient1)" stroke="none" d="M 1225.947998 962.605835 C 1225.947998 1114.18042 1103.076294 1237.056641 951.505432 1237.056641 C 799.932922 1237.056641 677.058716 1114.18042 677.058716 962.605835 C 677.058716 811.04126 799.932922 688.165405 951.505432 688.165405 C 1103.076294 688.165405 1225.947998 811.04126 1225.947998 962.605835 Z"/>
            <path id="path4" fill="#131313" stroke="none" d="M 946.052917 1000.842102 C 924.973755 1000.842102 907.82251 983.691284 907.82251 962.605835 C 907.82251 941.522095 924.973755 924.375427 946.052917 924.375427 C 967.138733 924.375427 984.289612 941.522095 984.289612 962.605835 C 984.289612 983.691284 967.138733 1000.842102 946.052917 1000.842102 Z"/>
            <path id="path5" fill="#ffffff" stroke="none" d="M 951.505432 995.633789 C 933.292542 995.633789 918.481262 980.818726 918.481262 962.605835 C 918.481262 944.397095 933.292542 929.585815 951.505432 929.585815 C 969.710388 929.585815 984.525452 944.397095 984.525452 962.605835 C 984.525452 980.818726 969.710388 995.633789 951.505432 995.633789 Z"/>
            <g id="g10">
                <g id="g11">
                    <path id="path6" fill="#6b759e" stroke="none" d="M 951.505432 1372.167969 C 725.518738 1372.167969 541.666687 1188.439941 541.666687 962.609985 C 541.666687 736.779541 725.518738 553.053711 951.505432 553.053711 C 1177.490356 553.053711 1361.340454 736.779541 1361.340454 962.609985 C 1361.340454 1188.439941 1177.490356 1372.167969 951.505432 1372.167969 Z M 951.505432 556.178711 C 727.242065 556.178711 544.791687 738.50293 544.791687 962.609985 C 544.791687 1186.71875 727.242065 1369.042969 951.505432 1369.042969 C 1175.765015 1369.042969 1358.215454 1186.71875 1358.215454 962.609985 C 1358.215454 738.50293 1175.765015 556.178711 951.505432 556.178711 Z"/>
                </g>
                <g id="g12">
                    <path id="path7" fill="#6b759e" stroke="none" d="M 951.505432 1360.81543 C 731.787109 1360.81543 553.033325 1182.181641 553.033325 962.609985 C 553.033325 743.040039 731.787109 564.408325 951.505432 564.408325 C 1171.224243 564.408325 1349.975464 743.040039 1349.975464 962.609985 C 1349.975464 1182.181641 1171.224243 1360.81543 951.505432 1360.81543 Z M 951.505432 567.533325 C 733.510376 567.533325 556.158325 744.763306 556.158325 962.609985 C 556.158325 1180.456665 733.510376 1357.69043 951.505432 1357.69043 C 1169.498657 1357.69043 1346.850464 1180.456665 1346.850464 962.609985 C 1346.850464 744.763306 1169.498657 567.533325 951.505432 567.533325 Z"/>
                </g>
                <g id="g13">
                    <path id="path8" fill="#6b759e" stroke="none" d="M 951.505432 1349.462891 C 738.053345 1349.462891 564.398315 1175.919678 564.398315 962.609985 C 564.398315 749.300049 738.053345 575.760864 951.505432 575.760864 C 1164.953735 575.760864 1338.606689 749.300049 1338.606689 962.609985 C 1338.606689 1175.919678 1164.953735 1349.462891 951.505432 1349.462891 Z M 951.505432 578.885864 C 739.776672 578.885864 567.523315 751.023315 567.523315 962.609985 C 567.523315 1174.198242 739.776672 1346.337891 951.505432 1346.337891 C 1163.232544 1346.337891 1335.481689 1174.198242 1335.481689 962.609985 C 1335.481689 751.023315 1163.232544 578.885864 951.505432 578.885864 Z"/>
                </g>
                <g id="g14">
                    <path id="path9" fill="#6b759e" stroke="none" d="M 951.505432 1338.106201 C 744.321716 1338.106201 575.764954 1169.657471 575.764954 962.609985 C 575.764954 755.5625 744.321716 587.115356 951.505432 587.115356 C 1158.6875 587.115356 1327.242065 755.5625 1327.242065 962.609985 C 1327.242065 1169.657471 1158.6875 1338.106201 951.505432 1338.106201 Z M 951.505432 590.240356 C 746.044983 590.240356 578.889954 757.2854 578.889954 962.609985 C 578.889954 1167.936279 746.044983 1334.981201 951.505432 1334.981201 C 1156.966309 1334.981201 1324.117065 1167.936279 1324.117065 962.609985 C 1324.117065 757.2854 1156.966309 590.240356 951.505432 590.240356 Z"/>
                </g>
                <g id="g15">
                    <path id="path10" fill="#6b759e" stroke="none" d="M 951.505432 1326.753662 C 750.587891 1326.753662 587.129578 1163.39917 587.129578 962.609985 C 587.129578 761.82251 750.587891 598.469971 951.505432 598.469971 C 1152.421143 598.469971 1315.877075 761.82251 1315.877075 962.609985 C 1315.877075 1163.39917 1152.421143 1326.753662 951.505432 1326.753662 Z M 951.505432 601.594971 C 752.311279 601.594971 590.254578 763.545898 590.254578 962.609985 C 590.254578 1161.677979 752.311279 1323.628662 951.505432 1323.628662 C 1150.695801 1323.628662 1312.752075 1161.677979 1312.752075 962.609985 C 1312.752075 763.545898 1150.695801 601.594971 951.505432 601.594971 Z"/>
                </g>
                <g id="g16">
                    <path id="path11" fill="#6b759e" stroke="none" d="M 951.505432 1315.401123 C 756.856201 1315.401123 598.496704 1157.141235 598.496704 962.609985 C 598.496704 768.08252 756.856201 609.82251 951.505432 609.82251 C 1146.150879 609.82251 1304.508301 768.08252 1304.508301 962.609985 C 1304.508301 1157.141235 1146.150879 1315.401123 951.505432 1315.401123 Z M 951.505432 612.94751 C 758.57959 612.94751 601.621704 769.805786 601.621704 962.609985 C 601.621704 1155.415771 758.57959 1312.276123 951.505432 1312.276123 C 1144.429565 1312.276123 1301.383301 1155.415771 1301.383301 962.609985 C 1301.383301 769.805786 1144.429565 612.94751 951.505432 612.94751 Z"/>
                </g>
                <g id="g17">
                    <path id="path12" fill="#6b759e" stroke="none" d="M 951.505432 1304.044678 C 763.122498 1304.044678 609.863342 1150.878784 609.863342 962.609985 C 609.863342 774.342896 763.122498 621.177124 951.505432 621.177124 C 1139.884521 621.177124 1293.143677 774.342896 1293.143677 962.609985 C 1293.143677 1150.878784 1139.884521 1304.044678 951.505432 1304.044678 Z M 951.505432 624.302124 C 764.845825 624.302124 612.988342 776.066284 612.988342 962.609985 C 612.988342 1149.153809 764.845825 1300.919678 951.505432 1300.919678 C 1138.16333 1300.919678 1290.018677 1149.153809 1290.018677 962.609985 C 1290.018677 776.066284 1138.16333 624.302124 951.505432 624.302124 Z"/>
                </g>
                <g id="g18">
                    <path id="path13" fill="#6b759e" stroke="none" d="M 951.505432 1292.692139 C 769.390808 1292.692139 621.227905 1144.616699 621.227905 962.609985 C 621.227905 780.602905 769.390808 632.529541 951.505432 632.529541 C 1133.618286 632.529541 1281.775024 780.602905 1281.775024 962.609985 C 1281.775024 1144.616699 1133.618286 1292.692139 951.505432 1292.692139 Z M 951.505432 635.654541 C 771.112061 635.654541 624.352905 782.326294 624.352905 962.609985 C 624.352905 1142.895386 771.112061 1289.567139 951.505432 1289.567139 C 1131.892944 1289.567139 1278.650024 1142.895386 1278.650024 962.609985 C 1278.650024 782.326294 1131.892944 635.654541 951.505432 635.654541 Z"/>
                </g>
                <g id="g19">
                    <path id="path14" fill="#6b759e" stroke="none" d="M 951.505432 1281.3396 C 775.657104 1281.3396 632.594971 1138.358643 632.594971 962.609985 C 632.594971 786.863281 775.657104 643.884155 951.505432 643.884155 C 1127.352173 643.884155 1270.410034 786.863281 1270.410034 962.609985 C 1270.410034 1138.358643 1127.352173 1281.3396 951.505432 1281.3396 Z M 951.505432 647.009155 C 777.380432 647.009155 635.719971 788.586182 635.719971 962.609985 C 635.719971 1136.633301 777.380432 1278.2146 951.505432 1278.2146 C 1125.626587 1278.2146 1267.285034 1136.633301 1267.285034 962.609985 C 1267.285034 788.586182 1125.626587 647.009155 951.505432 647.009155 Z"/>
                </g>
            </g>
            <g id="g20">
                <g id="g21">
                    <path id="path15" fill="#4a566e" stroke="none" d="M 951.505432 1645.88208 C 574.108765 1645.88208 267.075409 1339.367554 267.075409 962.609985 C 267.075409 585.854126 574.108765 279.3396 951.505432 279.3396 C 1328.897827 279.3396 1635.929077 585.854126 1635.929077 962.609985 C 1635.929077 1339.367554 1328.897827 1645.88208 951.505432 1645.88208 Z M 951.505432 282.4646 C 575.832092 282.4646 270.200409 587.577515 270.200409 962.609985 C 270.200409 1337.642578 575.832092 1642.75708 951.505432 1642.75708 C 1327.177002 1642.75708 1632.804077 1337.642578 1632.804077 962.609985 C 1632.804077 587.577515 1327.177002 282.4646 951.505432 282.4646 Z"/>
                </g>
                <g id="g22">
                    <path id="path16" fill="#4a566e" stroke="none" d="M 951.505432 1630.70459 C 582.494995 1630.70459 282.283325 1330.998047 282.283325 962.609985 C 282.283325 594.219971 582.494995 294.515015 951.505432 294.515015 C 1320.512085 294.515015 1620.719482 594.219971 1620.719482 962.609985 C 1620.719482 1330.998047 1320.512085 1630.70459 951.505432 1630.70459 Z M 951.505432 297.640015 C 584.218323 297.640015 285.408325 595.945435 285.408325 962.609985 C 285.408325 1329.276611 584.218323 1627.57959 951.505432 1627.57959 C 1318.786621 1627.57959 1617.594482 1329.276611 1617.594482 962.609985 C 1617.594482 595.945435 1318.786621 297.640015 951.505432 297.640015 Z"/>
                </g>
                <g id="g23">
                    <path id="path17" fill="#4a566e" stroke="none" d="M 951.505432 1615.53125 C 590.881226 1615.53125 297.493317 1322.631714 297.493317 962.609985 C 297.493317 602.589966 590.881226 309.692505 951.505432 309.692505 C 1312.125732 309.692505 1605.513428 602.589966 1605.513428 962.609985 C 1605.513428 1322.631714 1312.125732 1615.53125 951.505432 1615.53125 Z M 951.505432 312.817505 C 592.604553 312.817505 300.618317 604.313354 300.618317 962.609985 C 300.618317 1320.910767 592.604553 1612.40625 951.505432 1612.40625 C 1310.404541 1612.40625 1602.388428 1320.910767 1602.388428 962.609985 C 1602.388428 604.313354 1310.404541 312.817505 951.505432 312.817505 Z"/>
                </g>
                <g id="g24">
                    <path id="path18" fill="#4a566e" stroke="none" d="M 951.505432 1600.354126 C 599.267517 1600.354126 312.701263 1314.262207 312.701263 962.609985 C 312.701263 610.957886 599.267517 324.86792 951.505432 324.86792 C 1303.739502 324.86792 1590.303833 610.957886 1590.303833 962.609985 C 1590.303833 1314.262207 1303.739502 1600.354126 951.505432 1600.354126 Z M 951.505432 327.99292 C 600.990784 327.99292 315.826263 612.681274 315.826263 962.609985 C 315.826263 1312.540771 600.990784 1597.229126 951.505432 1597.229126 C 1302.018311 1597.229126 1587.178833 1312.540771 1587.178833 962.609985 C 1587.178833 612.681274 1302.018311 327.99292 951.505432 327.99292 Z"/>
                </g>
                <g id="g25">
                    <path id="path19" fill="#4a566e" stroke="none" d="M 951.505432 1585.176758 C 607.653748 1585.176758 327.911255 1305.895874 327.911255 962.609985 C 327.911255 619.325806 607.653748 340.045044 951.505432 340.045044 C 1295.357178 340.045044 1575.097534 619.325806 1575.097534 962.609985 C 1575.097534 1305.895874 1295.357178 1585.176758 951.505432 1585.176758 Z M 951.505432 343.170044 C 609.377075 343.170044 331.036255 621.049194 331.036255 962.609985 C 331.036255 1304.170898 609.377075 1582.051758 951.505432 1582.051758 C 1293.63208 1582.051758 1571.972534 1304.170898 1571.972534 962.609985 C 1571.972534 621.049194 1293.63208 343.170044 951.505432 343.170044 Z"/>
                </g>
                <g id="g26">
                    <path id="path20" fill="#4a566e" stroke="none" d="M 951.505432 1570.003418 C 616.039978 1570.003418 343.119171 1297.526367 343.119171 962.609985 C 343.119171 627.693726 616.039978 355.220459 951.505432 355.220459 C 1286.967041 355.220459 1559.887451 627.693726 1559.887451 962.609985 C 1559.887451 1297.526367 1286.967041 1570.003418 951.505432 1570.003418 Z M 951.505432 358.345459 C 617.763306 358.345459 346.244171 629.417114 346.244171 962.609985 C 346.244171 1295.804932 617.763306 1566.878418 951.505432 1566.878418 C 1285.24585 1566.878418 1556.762451 1295.804932 1556.762451 962.609985 C 1556.762451 629.417114 1285.24585 358.345459 951.505432 358.345459 Z"/>
                </g>
                <g id="g27">
                    <path id="path21" fill="#4a566e" stroke="none" d="M 951.505432 1554.825806 C 624.42627 1554.825806 358.327057 1289.160034 358.327057 962.609985 C 358.327057 636.061646 624.42627 370.395874 951.505432 370.395874 C 1278.580811 370.395874 1544.677856 636.061646 1544.677856 962.609985 C 1544.677856 1289.160034 1278.580811 1554.825806 951.505432 1554.825806 Z M 951.505432 373.520874 C 626.149536 373.520874 361.452057 637.785034 361.452057 962.609985 C 361.452057 1287.435059 626.149536 1551.700806 951.505432 1551.700806 C 1276.859497 1551.700806 1541.552856 1287.435059 1541.552856 962.609985 C 1541.552856 637.785034 1276.859497 373.520874 951.505432 373.520874 Z"/>
                </g>
                <g id="g28">
                    <path id="path22" fill="#4a566e" stroke="none" d="M 951.505432 1539.648315 C 632.8125 1539.648315 373.537109 1280.789917 373.537109 962.609985 C 373.537109 644.431641 632.8125 385.573364 951.505432 385.573364 C 1270.19873 385.573364 1529.47168 644.431641 1529.47168 962.609985 C 1529.47168 1280.789917 1270.19873 1539.648315 951.505432 1539.648315 Z M 951.505432 388.698364 C 634.535828 388.698364 376.662109 646.154541 376.662109 962.609985 C 376.662109 1279.064941 634.535828 1536.523315 951.505432 1536.523315 C 1268.473267 1536.523315 1526.34668 1279.064941 1526.34668 962.609985 C 1526.34668 646.154541 1268.473267 388.698364 951.505432 388.698364 Z"/>
                </g>
                <g id="g29">
                    <path id="path23" fill="#4a566e" stroke="none" d="M 951.505432 1524.470703 C 641.19873 1524.470703 388.744995 1272.42041 388.744995 962.609985 C 388.744995 652.799561 641.19873 400.748779 951.505432 400.748779 C 1261.8125 400.748779 1514.262085 652.799561 1514.262085 962.609985 C 1514.262085 1272.42041 1261.8125 1524.470703 951.505432 1524.470703 Z M 951.505432 403.873779 C 642.922058 403.873779 391.869995 654.522461 391.869995 962.609985 C 391.869995 1270.699219 642.922058 1521.345703 951.505432 1521.345703 C 1260.087036 1521.345703 1511.137085 1270.699219 1511.137085 962.609985 C 1511.137085 654.522461 1260.087036 403.873779 951.505432 403.873779 Z"/>
                </g>
                <g id="g30">
                    <path id="path24" fill="#4a566e" stroke="none" d="M 951.505432 1509.297607 C 649.585022 1509.297607 403.955017 1264.054077 403.955017 962.609985 C 403.955017 661.16748 649.585022 415.92627 951.505432 415.92627 C 1253.42627 415.92627 1499.055908 661.16748 1499.055908 962.609985 C 1499.055908 1264.054077 1253.42627 1509.297607 951.505432 1509.297607 Z M 951.505432 419.05127 C 651.308289 419.05127 407.080017 662.890869 407.080017 962.609985 C 407.080017 1262.333252 651.308289 1506.172607 951.505432 1506.172607 C 1251.700806 1506.172607 1495.930908 1262.333252 1495.930908 962.609985 C 1495.930908 662.890869 1251.700806 419.05127 951.505432 419.05127 Z"/>
                </g>
                <g id="g31">
                    <path id="path25" fill="#4a566e" stroke="none" d="M 951.505432 1494.120361 C 657.971252 1494.120361 419.162903 1255.68457 419.162903 962.609985 C 419.162903 669.5354 657.971252 431.101685 951.505432 431.101685 C 1245.040039 431.101685 1483.845825 669.5354 1483.845825 962.609985 C 1483.845825 1255.68457 1245.040039 1494.120361 951.505432 1494.120361 Z M 951.505432 434.226685 C 659.69458 434.226685 422.287903 671.258789 422.287903 962.609985 C 422.287903 1253.963379 659.69458 1490.995361 951.505432 1490.995361 C 1243.314575 1490.995361 1480.720825 1253.963379 1480.720825 962.609985 C 1480.720825 671.258789 1243.314575 434.226685 951.505432 434.226685 Z"/>
                </g>
            </g>
        </g>
        <g id="g32">
            <g id="g33">
                <path id="path26" fill="#ffffff" stroke="none" d="M 754.732056 882.647522 C 749.707092 899.527954 768.768311 923.75293 780.041687 902.23999 C 792.547485 878.371216 791.127502 840.744995 789.705383 814.599609 C 787.624146 814.672974 785.540833 814.746216 783.459595 814.819092 C 785.457458 834.222534 780.165405 897.493347 815.270813 891.029968 C 841.996277 886.108337 829.24585 812.701172 828.743347 795.890381 C 826.662048 795.963745 824.578735 796.036621 822.497498 796.109985 C 824.822937 814.680908 824.157898 858.026245 841.571228 870.192505 C 861.895813 884.38916 873.10376 836.588745 876.102539 826.5625 C 877.262512 822.690796 871.171265 821.272949 870.023743 825.11377 C 867.150818 834.710815 864.341248 844.222046 860.37793 853.446289 C 857.922485 860.752502 851.865845 863.303772 842.207886 861.100403 C 839.512085 856.866272 838.28125 851.170044 836.946655 846.374634 C 832.395447 829.998779 830.851257 812.713745 828.743347 795.890381 C 828.251282 791.955444 822.375427 792.018799 822.497498 796.109985 C 823.246277 821.240479 827.205383 847.11499 821.826233 871.970459 C 819.77124 881.459534 813.553772 890.140869 802.575806 881.978333 C 795.284119 876.556274 793.668762 863.393311 792.456238 855.214539 C 790.462097 841.772583 791.094971 828.094604 789.705383 814.599609 C 789.296631 810.632568 783.237915 810.760376 783.459595 814.819092 C 784.228333 828.971191 783.589539 843.18042 782.542114 857.301636 C 781.897095 865.974976 780.735413 874.576721 779.187073 883.130005 C 778.509583 886.871277 777.525024 890.525452 776.4729 894.173279 C 775.827942 895.874146 775.182922 897.575012 774.53833 899.275818 C 770.894165 907.942871 766.318787 902.882874 760.811218 884.096252 C 761.964966 880.222534 755.875854 878.804565 754.732056 882.647522 L 754.732056 882.647522 Z"/>
            </g>
            <g id="g34">
                <path id="path27" fill="#ffffff" stroke="none" d="M 868.676697 818.548828 C 868.6604 825.58374 873.352112 866.172119 889.085022 852.313354 C 900.598328 842.171265 901.981689 818.214966 902.384583 803.981689 C 902.484192 800.490479 896.573792 799.853271 896.222107 803.367065 C 895.157959 813.960815 894.230042 826.733276 899.668335 836.37085 C 905.948792 847.505859 917.470398 834.25708 921.474121 828.723389 C 923.807922 825.498291 919.264587 821.19751 916.904602 824.45874 C 912.660828 830.324219 906.074951 839.178345 903.041626 828.000854 C 901.059998 820.697144 901.554199 812.257935 902.300842 804.815918 C 900.248352 804.609985 898.193359 804.406616 896.138306 804.201294 C 895.796631 816.286255 893.73999 829.156738 889.355408 840.456299 C 887.129578 846.1875 883.760376 851.377502 879.270447 843.8396 C 875.024597 836.710449 874.904541 826.401611 874.922485 818.328735 C 874.932922 814.294556 868.684998 814.52832 868.676697 818.548828 L 868.676697 818.548828 Z"/>
            </g>
            <g id="g35">
                <path id="path28" fill="#ffffff" stroke="none" d="M 936.197937 785.982056 C 927.78125 784.096313 917.456238 789.772461 916.752075 799.009155 C 916.235413 805.794189 926.68457 808.738281 931.388367 810.312866 C 935.628296 811.73291 939.959595 812.874146 944.059204 814.680908 C 949.719177 817.169189 948.034607 820.469116 943.794556 823.822144 C 939.943298 826.865845 934.989624 828.92041 930.167542 829.738403 C 928.065796 830.094604 925.396667 830.259155 923.65332 828.827148 C 919.057068 825.050903 929.797485 821.45166 931.799194 820.546631 C 935.416687 818.908813 933.599976 812.919189 929.92749 814.581177 C 925.880798 816.414551 918.810852 817.97876 917.230408 822.851685 C 915.956665 826.78418 916.886292 832.269165 920.794617 834.484985 C 929.317078 839.312988 942.265015 833.581665 948.868774 827.712036 C 956.070862 821.307495 955.883728 813.52124 947.025452 809.175415 C 942.118347 806.768677 936.627075 805.501221 931.463745 803.772095 C 928.902039 802.915405 926.186218 801.918335 924.025391 800.248291 C 919.016663 796.374634 931.591675 791.355347 934.749146 792.061279 C 938.686218 792.944092 940.128784 786.861206 936.197937 785.982056 L 936.197937 785.982056 Z"/>
            </g>
            <g id="g36">
                <path id="path29" fill="#ffffff" stroke="none" d="M 953.625427 785.842041 C 953.255371 790.287109 953.108704 794.765381 953.234985 799.227051 C 953.312134 801.88208 953.548279 804.612061 954.304993 807.169556 C 955.244995 810.349609 958.467468 812.17041 961.14502 813.74707 C 974.227051 821.439575 980.196228 805.92041 982.682495 796.057007 C 983.671265 792.140869 977.587891 790.708374 976.603333 794.608765 C 975.638794 798.42749 974.682495 802.22998 972.786621 805.712891 C 969.991211 810.858398 965.649597 809.612915 961.523315 806.549194 C 958.577454 804.359985 959.423767 798.504517 959.440002 795.2229 C 959.452515 792.022461 959.607056 788.812012 959.875427 785.62207 C 960.209167 781.612061 953.959167 781.876709 953.625427 785.842041 L 953.625427 785.842041 Z"/>
            </g>
            <g id="g37">
                <path id="path30" fill="#ffffff" stroke="none" d="M 955.737488 779.359985 C 961.792053 779.359985 961.442078 769.989136 955.411682 769.989136 C 949.357117 769.989136 949.707092 779.359985 955.737488 779.359985 L 955.737488 779.359985 Z"/>
            </g>
            <g id="g38">
                <path id="path31" fill="#ffffff" stroke="none" d="M 1000.947876 764.790894 C 991.62207 759.576172 980.769958 762.369995 977.571655 773.193359 C 975.256226 781.02417 979.581665 791.888306 985.168335 797.330811 C 990.482544 802.508789 997.977539 802.522949 1004.333313 799.564575 C 1014.241638 794.950439 1019.006226 782.427856 1021.793762 772.741577 C 1022.912476 768.85791 1016.825439 767.437988 1015.7146 771.293335 C 1013.057495 780.515381 1006.376282 797.906738 993.664612 795.125366 C 979.772888 792.087891 979.724182 760.082886 997.98584 770.296265 C 1001.513733 772.267456 1004.459595 766.756226 1000.947876 764.790894 L 1000.947876 764.790894 Z"/>
            </g>
            <g id="g39">
                <path id="path32" fill="#ffffff" stroke="none" d="M 900.596252 1128.60498 C 901.89624 1142.382935 913.606628 1166.308716 929.880859 1150.651367 C 945.377502 1135.737793 926.90625 1116.19458 919.677917 1102.152588 C 918.556641 1103.723267 917.433716 1105.293701 916.3125 1106.864502 C 930.289612 1111.804199 939.207092 1114.640381 948.584167 1101.481201 C 950.923706 1098.19751 945.385803 1095.28418 943.08252 1098.518799 C 935.83374 1108.6875 927.803711 1104.32959 917.76123 1100.7854 C 914.900818 1099.772217 913.29126 1103.348877 914.39624 1105.49707 C 919.482483 1115.376709 927.716248 1124.084595 929.5979 1135.36792 C 931.195007 1144.950439 919.282898 1154.077026 912.276245 1145.129517 C 908.727905 1140.600464 907.369141 1133.959961 906.842102 1128.385498 C 906.46582 1124.393799 900.21582 1124.589111 900.596252 1128.60498 L 900.596252 1128.60498 Z"/>
            </g>
            <g id="g40">
                <path id="path33" fill="#ffffff" stroke="none" d="M 993.131653 1083.764526 C 997.635864 1093.404053 1002.302917 1104.288818 1000.923706 1115.152832 C 1002.978333 1115.356201 1005.033325 1115.564209 1007.088318 1115.767578 C 1005.871643 1104.402588 1005.35083 1088.293335 1013.118347 1079.02417 C 1018.493774 1072.603271 1020.707092 1088.216309 1021.342102 1090.779541 C 1022.196289 1094.22998 1023.299133 1097.294189 1025.589966 1100.012085 C 1039.461304 1116.454956 1054.459595 1068.143799 1056.319214 1062.109619 C 1057.51123 1058.247925 1051.420044 1056.835815 1050.23999 1060.660889 C 1048.030396 1067.818359 1045.617432 1074.861572 1042.651245 1081.746338 C 1041.129517 1085.27832 1032.442139 1102.681641 1028.45874 1092.802002 C 1026.314209 1087.483643 1026.302124 1073.099609 1018.973755 1071.378662 C 999.296265 1066.752197 999.698792 1105.330322 1000.838318 1115.987061 C 1001.192078 1119.275024 1006.535034 1120.300415 1007.002869 1116.601685 C 1008.626221 1103.820801 1003.739624 1091.813232 998.412903 1080.420044 C 996.712097 1076.782104 991.442932 1080.155518 993.131653 1083.764526 L 993.131653 1083.764526 Z"/>
            </g>
            <g id="g41">
                <path id="path34" fill="#ffffff" stroke="none" d="M 1050.414917 1055.411621 C 1052.929565 1064.8479 1055.4646 1085.339233 1070.07666 1080.765869 C 1085.693359 1075.878784 1087.788818 1052.144165 1089.896606 1039.164185 C 1087.841675 1038.960815 1085.787109 1038.753296 1083.732056 1038.550049 C 1085.204956 1053.515869 1088.49707 1068.212891 1089.640381 1083.247803 C 1090.018677 1088.220459 1089.96167 1093.20874 1089.449219 1098.168701 C 1088.765503 1104.756592 1078.540039 1102.567627 1082.067871 1093.330811 C 1084.802124 1086.165283 1088.9729 1079.89502 1093.526245 1073.79541 C 1099.633789 1065.62085 1135.412476 1011.238708 1120.337036 998.140381 C 1100.309082 980.741272 1103.759644 1036.287476 1104.508301 1042.480469 C 1105.484985 1050.512451 1109.818359 1062.609985 1119.844604 1062.26001 C 1134.435791 1061.751221 1143.827393 1042.439575 1148.299194 1031.217529 C 1149.780396 1027.510376 1144.287109 1024.515869 1142.797974 1028.255371 C 1138.720825 1038.480835 1133.614258 1047.86792 1124.401733 1054.431274 C 1110.770752 1064.143799 1109.806152 1031.677002 1109.623291 1027.514648 C 1109.521606 1024.442505 1109.513306 1021.370422 1109.598755 1018.29834 C 1109.790039 1015.677917 1109.981323 1013.061646 1110.172485 1010.441284 C 1109.729126 1006.380371 1111.8125 1004.642944 1116.422485 1005.23291 C 1117.42334 1011.669983 1114.037964 1020.10498 1111.698242 1025.935791 C 1104.415039 1044.08374 1095.491699 1059.631226 1084.37915 1075.6875 C 1079.158325 1083.227539 1075.130493 1092.028809 1073.31958 1101.025391 C 1070.495483 1115.07959 1088.16748 1116.715332 1093.770508 1106.185059 C 1103.54834 1087.809082 1091.878418 1057.629639 1089.982056 1038.330078 C 1089.652466 1034.993408 1084.411621 1034.057495 1083.817505 1037.71582 C 1082.633301 1044.991211 1081.314941 1052.12793 1079.390503 1059.244995 C 1078.080322 1069.254639 1071.842407 1072.513672 1060.681274 1069.018799 C 1058.536621 1064.294556 1057.710815 1058.536621 1056.380371 1053.540039 C 1055.342529 1049.645752 1049.377563 1051.521729 1050.414917 1055.411621 L 1050.414917 1055.411621 Z"/>
            </g>
            <g id="g42">
                <path id="path35" fill="#ffffff" stroke="none" d="M 957.873352 1103.182129 C 961.661682 1112.642578 958.056641 1131.514648 974.10498 1129.748291 C 986.51123 1128.385498 992.907898 1111.226318 998.209595 1102.005859 C 1000.227905 1098.502441 994.710388 1095.556641 992.708313 1099.043701 C 988.085815 1107.079956 984.379211 1116.752197 976.513733 1122.249268 C 965.144958 1130.192139 966.015808 1106.750366 963.838745 1101.310547 C 962.353333 1097.599121 956.37207 1099.43042 957.873352 1103.182129 L 957.873352 1103.182129 Z"/>
            </g>
            <g id="g43">
                <path id="path36" fill="#ffffff" stroke="none" d="M 958.870422 1091.223267 C 964.924988 1091.223267 964.575012 1081.856201 958.544983 1081.856201 C 952.490417 1081.856201 952.839966 1091.223267 958.870422 1091.223267 L 958.870422 1091.223267 Z"/>
            </g>
        </g>
    </g>
</svg>
