<?xml version="1.0" standalone="no"?><!DOCTYPE svg PUBLIC "-//W3C//DTD SVG 1.1//EN" "http://www.w3.org/Graphics/SVG/1.1/DTD/svg11.dtd"><svg t="1769597557062" class="icon" viewBox="0 0 1024 1024" version="1.1" xmlns="http://www.w3.org/2000/svg" p-id="7230" xmlns:xlink="http://www.w3.org/1999/xlink" width="200" height="200"><path d="M395.6736 35.2256C334.2336 53.248 271.9744 106.496 244.9408 165.4784c-9.8304 22.9376-21.2992 32.768-43.4176 40.1408C104.8576 237.568 45.056 313.7536 38.5024 413.696c-4.096 63.8976 5.7344 107.3152 34.4064 147.456C87.6544 581.632 90.112 597.1968 90.112 663.552c0 71.2704 2.4576 81.92 24.576 122.88 27.0336 49.9712 86.016 99.1232 135.168 113.8688 16.384 4.9152 53.248 9.0112 81.1008 9.0112 44.2368 0 54.0672 3.2768 87.6544 28.672 120.4224 92.5696 291.6352 54.8864 359.6288-78.6432 15.5648-30.3104 26.2144-40.1408 56.5248-51.6096 147.456-56.5248 205.6192-226.9184 119.6032-353.8944-22.9376-33.5872-23.7568-38.5024-16.384-77.824 13.9264-73.728-13.9264-153.1904-72.9088-206.4384-49.9712-45.056-78.6432-56.5248-155.648-61.44-63.0784-3.2768-72.9088-6.5536-98.304-28.672-15.5648-13.1072-40.96-29.4912-55.7056-35.2256-40.1408-17.2032-115.5072-21.2992-159.744-9.0112zM536.576 108.1344c19.6608 10.6496 37.6832 22.9376 39.3216 28.672 0.8192 4.9152-45.8752 36.0448-104.0384 67.9936L364.544 263.7824v130.2528c0 90.112-2.4576 130.2528-9.0112 130.2528-4.9152 0-23.7568-8.192-41.7792-18.0224l-31.9488-18.0224 2.4576-140.9024 2.4576-140.9024 24.576-35.2256C362.9056 98.304 462.0288 70.4512 536.576 108.1344z m251.4944 85.1968c39.3216 22.9376 63.0784 53.248 80.2816 102.4 14.7456 40.1408 15.5648 69.632 4.096 77.0048-4.9152 3.2768-55.7056-20.48-113.8688-52.4288-57.344-31.9488-107.3152-58.1632-111.4112-58.1632-5.7344 0-118.784 63.0784-207.2576 116.3264l-27.0336 16.384 2.4576-50.7904 2.4576-50.7904 101.5808-56.5248c55.7056-31.1296 113.0496-59.8016 126.976-64.7168 37.6832-11.4688 102.4-1.6384 141.7216 21.2992zM233.472 401.408v121.2416l108.1344 59.8016c58.9824 33.5872 107.3152 63.8976 108.1344 68.8128 0 4.096-15.5648 16.384-34.4064 27.0336L380.928 697.9584l-92.5696-51.6096c-122.88-68.8128-135.168-77.824-162.2016-120.4224-19.6608-31.1296-23.7568-46.6944-23.7568-89.2928 0-74.5472 25.3952-118.784 90.112-159.744 36.0448-22.9376 40.96-9.0112 40.96 124.5184z m515.2768-27.0336c113.0496 64.7168 151.552 98.304 168.7552 148.2752 16.384 49.152 15.5648 82.7392-3.2768 126.1568C897.024 688.9472 839.68 745.472 815.104 745.472c-14.7456 0-16.384-6.5536-18.0224-125.3376l-2.4576-124.5184-86.016-49.152c-47.5136-27.0336-99.1232-57.344-113.8688-66.3552l-27.0336-17.2032 35.2256-21.2992c19.6608-11.4688 39.3216-20.48 43.4176-21.2992 4.096-0.8192 49.9712 23.7568 102.4 54.0672z m-178.5856 53.248l48.3328 27.0336v108.9536l-54.0672 27.8528-53.248 27.0336-46.6944-26.2144-46.6944-25.3952-2.4576-57.344-2.4576-57.344 43.4176-25.3952c23.7568-13.9264 48.3328-25.3952 54.8864-25.3952 5.7344 0 32.768 12.288 58.9824 26.2144z m146.6368 81.92l32.768 18.8416V647.168c0 131.8912-6.5536 167.936-38.5024 205.6192-40.96 48.3328-82.7392 67.9936-142.5408 68.8128-55.7056 0-113.8688-21.2992-113.8688-42.5984 0-4.9152 37.6832-31.1296 84.3776-56.5248 45.8752-25.3952 93.3888-54.0672 106.496-62.2592l22.1184-15.5648V617.6768c0-82.7392 3.2768-126.1568 9.0112-126.1568 4.096 0 22.9376 8.192 40.1408 18.0224zM616.8576 676.6592l-2.4576 45.8752-114.688 62.2592c-107.3152 58.9824-117.1456 63.0784-163.84 63.0784-77.0048-0.8192-143.36-44.2368-171.2128-112.2304-15.5648-36.0448-17.2032-96.6656-4.096-96.6656 8.192 0 42.5984 18.0224 126.1568 67.1744 13.9264 8.192 40.1408 22.9376 58.9824 32.768l33.5872 17.2032 109.7728-61.44c59.8016-34.4064 113.8688-62.2592 119.6032-63.0784 8.192-0.8192 9.8304 11.4688 8.192 45.056z" fill="#149f30" p-id="7231"></path></svg>