<?xml version="1.0" encoding="UTF-8" standalone="no"?>
<svg
   t="1769586238558"
   class="icon"
   viewBox="0 0 1024 1024"
   version="1.1"
   p-id="5249"
   width="200"
   height="200"
   id="svg2"
   sodipodi:docname="download (1).svg"
   inkscape:version="1.3.2 (091e20e, 2023-11-25)"
   xmlns:inkscape="http://www.inkscape.org/namespaces/inkscape"
   xmlns:sodipodi="http://sodipodi.sourceforge.net/DTD/sodipodi-0.dtd"
   xmlns="http://www.w3.org/2000/svg"
   xmlns:svg="http://www.w3.org/2000/svg">
  <defs
     id="defs2" />
  <sodipodi:namedview
     id="namedview2"
     pagecolor="#ffffff"
     bordercolor="#000000"
     borderopacity="0.25"
     inkscape:showpageshadow="2"
     inkscape:pageopacity="0.0"
     inkscape:pagecheckerboard="0"
     inkscape:deskcolor="#d1d1d1"
     inkscape:zoom="1.18"
     inkscape:cx="100"
     inkscape:cy="100"
     inkscape:window-width="1328"
     inkscape:window-height="451"
     inkscape:window-x="0"
     inkscape:window-y="33"
     inkscape:window-maximized="0"
     inkscape:current-layer="svg2" />
  <path
     d="M917.333333 443.733333V426.666667c0-164.266667-134.4-298.666667-298.666666-298.666667-113.066667 0-215.466667 64-264.533334 162.133333-21.333333-8.533333-42.666667-12.8-66.133333-12.8C187.733333 277.333333 106.666667 358.4 106.666667 458.666667v17.066666c-64 38.4-106.666667 108.8-106.666667 185.6 0 117.333333 96 213.333333 213.333333 213.333334h106.666667c23.466667 0 42.666667-19.2 42.666667-42.666667s-19.2-42.666667-42.666667-42.666667h-106.666667c-70.4 0-128-57.6-128-128 0-53.333333 34.133333-102.4 85.333334-119.466666 21.333333-8.533333 34.133333-32 25.6-53.333334-2.133333-10.666667-4.266667-19.2-4.266667-29.866666C192 405.333333 234.666667 362.666667 288 362.666667c21.333333 0 42.666667 6.4 59.733333 21.333333 10.666667 8.533333 25.6 10.666667 38.4 8.533333 12.8-4.266667 23.466667-14.933333 27.733334-27.733333 27.733333-89.6 110.933333-149.333333 204.8-149.333333 117.333333 0 213.333333 96 213.333333 213.333333 0 10.666667 0 21.333333-2.133333 32-2.133333 19.2 6.4 36.266667 23.466666 44.8 51.2 25.6 85.333333 76.8 85.333334 134.4 0 76.8-57.6 140.8-132.266667 149.333333H704c-23.466667 0-42.666667 19.2-42.666667 42.666667s19.2 42.666667 42.666667 42.666667h106.666667c4.266667 0 10.666667 0 14.933333-2.133334C938.666667 853.333333 1024 755.2 1024 640c0-78.933333-40.533333-153.6-106.666667-196.266667"
     fill="#2F3CF4"
     p-id="5250"
     id="path1"
     style="fill:#ffffff" />
  <path
     d="M512 448c-23.466667 0-42.666667 19.2-42.666667 42.666667v196.266666l-34.133333-34.133333c-17.066667-17.066667-42.666667-17.066667-59.733333 0s-17.066667 42.666667 0 59.733333l106.666666 106.666667c2.133333 2.133333 4.266667 4.266667 6.4 4.266667 2.133333 0 2.133333 2.133333 4.266667 2.133333s2.133333 2.133333 4.266667 2.133333 2.133333 0 4.266666 2.133334h25.6c2.133333 0 2.133333 0 4.266667-2.133334 2.133333 0 2.133333-2.133333 4.266667-2.133333s2.133333-2.133333 4.266666-2.133333c2.133333-2.133333 4.266667-2.133333 6.4-4.266667l106.666667-106.666667c17.066667-17.066667 17.066667-42.666667 0-59.733333s-42.666667-17.066667-59.733333 0L554.666667 686.933333V490.666667c0-23.466667-19.2-42.666667-42.666667-42.666667"
     fill="#2F3CF4"
     p-id="5251"
     id="path2"
     style="fill:#ffffff" />
</svg>
